<svg xmlns="http://www.w3.org/2000/svg" viewBox="0 0 681.96 628.83"><defs><style>.cls-1,.cls-4{fill:#006838;}.cls-2,.cls-5{fill:#fff;}.cls-3,.cls-6{fill:#ed1c24;}.cls-4,.cls-5,.cls-6{font-size:470.94px;font-family:LuckiestGuy-Regular, Luckiest Guy;}</style></defs><g id="Capa_2" data-name="Capa 2"><g id="Layer_1" data-name="Layer 1"><path class="cls-1" d="M132.57,448.51c-10.69,9.83-25.73,13.55-40.24,14.19s-29-1.43-43.52-1.48c-8.81,0-18.91,1.4-23.74,8.76a9.06,9.06,0,0,0-1.65,4.86A9.84,9.84,0,0,0,25,479.65c4.87,8.23,15,11.63,24.43,13.23,12,2,24.73,2.15,36-2.56,8.32-3.48,15.37-9.4,21.93-15.6,8.5-8,16.4-16.7,24.29-25.35"/><path class="cls-1" d="M132.1,448.05c-12.44,11.33-29.94,14.18-46.2,14.12-9.74,0-19.44-1-29.17-1.41-7.53-.32-15.55-.72-22.77,1.87-6,2.13-13.35,8.13-10.57,15.28,2.55,6.54,9.15,10.66,15.46,13a74.82,74.82,0,0,0,23.46,4c8.54.22,17.17-1,25-4.64s14.23-9.1,20.33-14.86C114.48,468.85,121,462,127.34,455c1.58-1.71,3.14-3.43,4.71-5.15.57-.62-.36-1.55-.93-.92-6.16,6.75-12.32,13.51-18.78,20-6,6-12.1,11.93-19.19,16.54a50.47,50.47,0,0,1-23.7,7.93,80,80,0,0,1-24.57-2.06c-6.68-1.61-13.63-4.39-18-10a13.23,13.23,0,0,1-2.68-5.18,8.12,8.12,0,0,1,1.81-6.4A17.07,17.07,0,0,1,34,464c7-2.63,14.88-2.26,22.26-2,9.31.39,18.6,1.27,27.93,1.41,15.4.22,31.86-1.85,44.69-11.09A50.15,50.15,0,0,0,133,449c.62-.57-.31-1.5-.93-.93Z"/><path class="cls-2" d="M179.4,476.68c1.8,2.78,3.63,5.66,4.14,8.93s-.67,7.05-3.62,8.55c-5,2.57-10.53-2.81-12.82-8a43.82,43.82,0,0,1-3.65-20S176.37,472,179.4,476.68Z"/><path class="cls-1" d="M150.09,458.94q-12.56,13.23-24.63,26.9c-13.79,15.6-27.62,32.71-31,53.27-.88,5.42-.66,11.75,3.48,15.34,5.37,4.64,14.31,1.53,18.37-4.28S121,536.91,122,529.88c3.53-26.81,16.28-47.54,31.21-70.09Z"/><path class="cls-1" d="M149.62,458.48q-9.52,10-18.8,20.36c-5.62,6.26-11.25,12.54-16.47,19.13-9.6,12.12-18.27,25.93-20.56,41.5-.88,6-.37,13.87,5.88,16.86,5.53,2.65,12.42-.15,16.22-4.51,5-5.73,5.69-13.91,6.62-21.11a113.49,113.49,0,0,1,5.63-23.55c5.31-15,13.59-28.68,22.25-42,1.11-1.7,2.23-3.39,3.35-5.09a.67.67,0,0,0-.39-1l-3.09-.85a.65.65,0,0,0-.35,1.26l3.09.85-.39-1C144.25,472.08,136,484.9,130,498.85A120.57,120.57,0,0,0,123.06,520c-.83,3.69-1.43,7.41-1.91,11.16a74.45,74.45,0,0,1-2.07,11.59,20.35,20.35,0,0,1-5.3,9.38,14.6,14.6,0,0,1-8.7,3.91,9,9,0,0,1-8.16-3.71c-1.92-2.76-2.31-6.28-2.15-9.56.35-7.43,3-14.94,6.17-21.59A111.57,111.57,0,0,1,113,501.78c4.74-6.25,9.93-12.16,15.14-18q8.81-9.9,17.87-19.57,2.23-2.4,4.5-4.78C151.13,458.79,150.2,457.86,149.62,458.48Z"/><path class="cls-2" d="M81.38,513.06l-23.49-2.17c-4.27-.4-8.71-.77-12.71.77s-7.37,5.6-6.63,9.82c.81,4.59,5.87,7.17,10.5,7.75,13.24,1.66,25.54-7,34.79-16.61Z"/><path class="cls-1" d="M560.65,448.51c10.69,9.83,25.73,13.55,40.24,14.19s29-1.43,43.51-1.48c8.81,0,18.92,1.4,23.75,8.76a9.06,9.06,0,0,1,1.65,4.86,9.75,9.75,0,0,1-1.56,4.81c-4.86,8.23-15,11.63-24.42,13.23-12,2-24.73,2.15-36-2.56-8.32-3.48-15.38-9.4-21.93-15.6-8.5-8-16.4-16.7-24.29-25.35"/><path class="cls-1" d="M560.19,449c11.34,10.33,27,13.92,41.93,14.42,9.33.32,18.64-.43,27.94-1,8-.48,16.48-1.27,24.46.29a24.13,24.13,0,0,1,9.07,3.55c3.07,2.12,6.21,5.91,5.41,9.89-.72,3.53-3.63,6.7-6.38,8.86a31.63,31.63,0,0,1-9.3,4.85,75.22,75.22,0,0,1-23.31,3.7c-8.52.12-17.09-1.29-24.75-5.14-7.37-3.7-13.65-9.16-19.57-14.81-6.62-6.31-12.88-13-19.05-19.72-1.52-1.65-3-3.31-4.55-5-.57-.63-1.49.3-.92.92,6.37,7,12.75,14,19.46,20.67,6.07,6,12.38,12.08,19.68,16.63,14.47,9,32.55,9.32,48.73,5.34,6.69-1.64,13.59-4.51,18-10,2.35-2.9,4.24-6.56,2.89-10.33a15.21,15.21,0,0,0-6.27-7.38c-5.78-3.68-13.11-4.23-19.78-4.18-9.74.06-19.45,1-29.18,1.41-16.69.7-34.68-.4-48.89-10.17a43.72,43.72,0,0,1-4.72-3.76c-.63-.57-1.56.36-.93.93Z"/><path class="cls-3" d="M513.82,476.68c-1.8,2.78-3.64,5.66-4.15,8.93s.68,7.05,3.63,8.55c5,2.57,10.53-2.81,12.82-8a43.68,43.68,0,0,0,3.64-20S516.85,472,513.82,476.68Z"/><path class="cls-1" d="M543.13,458.94q12.55,13.23,24.63,26.9c13.79,15.6,27.62,32.71,31,53.27.87,5.42.66,11.75-3.49,15.34-5.36,4.64-14.3,1.53-18.36-4.28s-4.69-13.26-5.62-20.29c-3.52-26.81-16.27-47.54-31.2-70.09Z"/><path class="cls-1" d="M542.67,459.4c11.59,12.23,23.2,24.58,33.81,37.68,9.61,11.85,18.32,25.14,21.27,40.36,1.18,6.07,1.67,15.3-5.44,18-6.18,2.36-13-2.07-16-7.36-3.81-6.79-3.8-15-5.07-22.46a114.31,114.31,0,0,0-6.06-21.88c-5.39-14-13.2-26.86-21.37-39.37q-1.61-2.46-3.23-4.91l-.39,1,3.09-.85a.65.65,0,0,0-.35-1.26l-3.09.85a.66.66,0,0,0-.39,1C548.29,473.42,557,487,563,501.8a116.83,116.83,0,0,1,6.67,22.48c1.43,7.7,1.39,16,4.83,23.19,2.72,5.66,8.48,10.24,15,9.86a10.15,10.15,0,0,0,7.55-4,15.16,15.16,0,0,0,2.67-9c.12-7.3-2.37-14.83-5.26-21.46a104.71,104.71,0,0,0-12.2-20.45c-4.79-6.46-10.06-12.55-15.4-18.56q-9.2-10.37-18.67-20.49-2.32-2.49-4.66-4.95C543,457.86,542.09,458.79,542.67,459.4Z"/><path class="cls-2" d="M611.84,513.06l23.49-2.17c4.27-.4,8.71-.77,12.7.77s7.38,5.6,6.63,9.82c-.8,4.59-5.87,7.17-10.5,7.75-13.23,1.66-25.53-7-34.78-16.61Z"/><path class="cls-1" d="M108.45,130.58c-27.89-6.14-56.37,4.23-83.79,12.22-4.57,1.34-9.34,2.62-14,1.85s-9.31-4.17-9.91-8.89c-.71-5.53,4-10.12,8.2-13.72,4.49-3.81,9.09-7.69,14.54-9.92,9.09-3.72,19.36-2.46,29.08-1,21.1,3.11,43.44,7.33,59,21.91"/><path class="cls-1" d="M108.63,130c-16.32-3.54-33.06-1.53-49.13,2.29-8.27,2-16.43,4.39-24.57,6.83-4.09,1.22-8.17,2.49-12.28,3.63s-8.51,2.13-12.73,1.15A11.49,11.49,0,0,1,2,137.94c-1.6-3.46-.26-7.13,1.91-10a47.41,47.41,0,0,1,7.77-7.41,54.35,54.35,0,0,1,9.75-6.79c7.33-3.76,15.71-3.83,23.73-3,7.5.8,15,2,22.42,3.49,13.89,2.73,28,6.93,39.34,15.68,1.44,1.1,2.81,2.28,4.14,3.52.62.57,1.54-.35.92-.92C101.07,122.39,86.82,117.16,72.48,114c-7.41-1.64-14.92-2.83-22.44-3.88-8.07-1.12-16.55-1.91-24.46.58A36.59,36.59,0,0,0,15,116.3a97,97,0,0,0-8.85,7.34c-2.44,2.3-4.83,5-5.76,8.32a9.55,9.55,0,0,0,1.94,8.81c5.27,6.34,14.15,5,21.16,3.06,8.55-2.41,17-5.13,25.56-7.52,17-4.74,34.8-8.52,52.53-6.27,2.26.29,4.5.69,6.73,1.17.82.18,1.17-1.08.35-1.26Z"/><path class="cls-2" d="M121,112.63c-20.43-6.14-37.78-20-54.23-33.58C63.29,76.17,59.57,72.46,60,68c.38-4.35,4.66-7.46,9-8.26,9.48-1.78,18.41,4.67,25.48,11.22,12.61,11.7,23.9,25.31,30.21,41.31C124.61,112.23,124.55,113.7,121,112.63Z"/><path class="cls-2" d="M121.18,112C110,108.54,99.67,102.83,90.06,96.2c-5-3.42-9.73-7.07-14.42-10.83q-3.37-2.7-6.71-5.45a40.24,40.24,0,0,1-5.82-5.4c-1.69-2.06-2.93-4.7-2.29-7.41a8.93,8.93,0,0,1,4.9-5.58c5.08-2.6,11.24-1.35,16.12,1.08C87,65.19,91.42,69,95.59,73a157.36,157.36,0,0,1,11.72,12.37,109.87,109.87,0,0,1,11,15.57,88.33,88.33,0,0,1,4.37,8.56c.34.76.58,1.61,1,2.34.07.13.12.58.22.27,0,.06.09,0,0,0-.65.48-2,0-2.72-.2a.71.71,0,0,0-.37,1.36c1.2.34,3.56,1,4.35-.51.29-.55,0-1-.18-1.53q-.87-2.13-1.83-4.2a97.88,97.88,0,0,0-9.79-16.29,137.82,137.82,0,0,0-12.13-14.19,95.93,95.93,0,0,0-14-12.41c-4.86-3.35-10.66-6-16.69-5.41-4.86.45-10.42,3.35-11.21,8.65-.87,5.76,4.34,10,8.27,13.22,5,4.08,9.93,8.12,15.07,12,11.62,8.71,24.15,16.46,38.14,20.71A.71.71,0,0,0,121.18,112Z"/><path class="cls-1" d="M138.91,99.12c-6.27-10.34-12.6-20.78-16.54-32.22a85.83,85.83,0,0,1-.67-53.43c1.27-4,3-8.07,6.25-10.67s8.56-3.09,11.42,0a11.36,11.36,0,0,1,2.35,4.72c8,27.23-20.42,60.09-5.37,84.14a18.29,18.29,0,0,0,5.37,5S142.59,101,138.91,99.12Z"/><path class="cls-1" d="M139.47,98.79a244.18,244.18,0,0,1-12.55-22.46,89.11,89.11,0,0,1-7.57-24.54,85.47,85.47,0,0,1,.12-26,83.51,83.51,0,0,1,2.92-12.29c1.15-3.58,2.66-7.3,5.57-9.82,2.53-2.2,6.62-3.22,9.66-1.45s3.82,6.18,4.37,9.42c1,6.2.39,12.59-.83,18.71-2.54,12.67-7.68,24.75-9.43,37.59a40.11,40.11,0,0,0,.88,17,24.59,24.59,0,0,0,3.83,7.93,18.66,18.66,0,0,0,3.87,3.55c.1.08.9.57.78.39,0,0,0,.1,0,.13a2.13,2.13,0,0,1,0,.94c-.1,1.24-.9,1.16-1.91.68-.75-.36-1.42.76-.66,1.12,1.9.9,3.74.55,3.87-1.8a3.09,3.09,0,0,0-.17-1.6c-.42-.69-1.74-1.29-2.37-1.8a15.68,15.68,0,0,1-2.2-2.11,22.85,22.85,0,0,1-4.21-9.1,35.11,35.11,0,0,1-1-9.3c.15-6.7,1.75-13.28,3.52-19.7,1.88-6.8,4.07-13.53,5.67-20.41,1.5-6.42,2.53-13.09,1.91-19.7a28.67,28.67,0,0,0-2.34-9.71,7.86,7.86,0,0,0-8-4.41c-8.14.69-11.21,9.37-13.07,16.08a86.43,86.43,0,0,0,2.28,53.11c3.19,8.53,7.62,16.51,12.27,24.31,1.17,2,2.37,3.94,3.56,5.91A.65.65,0,0,0,139.47,98.79Z"/><path class="cls-3" d="M156.65,77.2c4.83-12.11,11.62-25.9,24.44-28.23a4.67,4.67,0,0,1,3.32.31c1.88,1.16,1.58,4,.79,6.06-4.11,10.84-14.39,17.88-24.1,24.23"/><path class="cls-1" d="M573.5,130.58c27.89-6.14,56.37,4.23,83.79,12.22,4.57,1.34,9.34,2.62,14,1.85s9.31-4.17,9.92-8.89c.7-5.53-4-10.12-8.21-13.72-4.49-3.81-9.09-7.69-14.54-9.92-9.09-3.72-19.36-2.46-29.08-1-21.09,3.11-43.44,7.33-59,21.91"/><path class="cls-1" d="M573.67,131.21c17.59-3.81,35.62-1,52.82,3.37,8.62,2.21,17.12,4.84,25.64,7.38,7.42,2.21,16.36,5.79,23.79,1.8a11.14,11.14,0,0,0,5.84-7.13c.7-3.27-.5-6.47-2.42-9.09a44.9,44.9,0,0,0-7.82-7.64,60.09,60.09,0,0,0-9.78-7c-7.34-3.94-15.69-4.34-23.83-3.57-7.67.73-15.35,2-22.91,3.46-14.41,2.76-29.06,7.05-40.83,16.15q-2.19,1.69-4.21,3.58c-.62.57.31,1.49.92.92,10.61-9.86,24.44-15,38.35-18.12,7-1.58,14.13-2.72,21.25-3.75,8-1.16,16.36-2.18,24.28,0,7.61,2,14,7.37,19.71,12.61,2.53,2.32,5.12,5.07,6,8.5a8.69,8.69,0,0,1-3.78,9.12c-7,4.95-16.17,1.3-23.49-.87-8.22-2.45-16.42-5-24.71-7.17-15.89-4.18-32.47-7.13-48.91-4.89-2.08.28-4.16.65-6.21,1.1-.82.18-.48,1.44.34,1.26Z"/><path class="cls-2" d="M561,112.63c20.42-6.14,37.78-20,54.22-33.58,3.49-2.88,7.21-6.59,6.8-11.09-.38-4.35-4.66-7.46-9-8.26-9.48-1.78-18.41,4.67-25.48,11.22-12.61,11.7-23.9,25.31-30.21,41.31C557.34,112.23,557.4,113.7,561,112.63Z"/><path class="cls-2" d="M561.14,113.31c12.45-3.78,23.78-10.35,34.3-17.89,5.22-3.74,10.26-7.72,15.24-11.77,2.36-1.92,4.8-3.79,7-5.88A15.79,15.79,0,0,0,622.37,71c1.54-5.27-2.36-9.72-7.08-11.44-5.5-2-11.63-.46-16.62,2.18C593.14,64.69,588.46,69,584,73.32a145.57,145.57,0,0,0-12.74,14A103.08,103.08,0,0,0,559.81,105q-1.21,2.43-2.28,4.94c-.31.72-1,1.77-.85,2.58.46,1.82,3.32,1.11,4.46.79a.7.7,0,0,0-.37-1.36c-.73.2-2,.65-2.7.21-.08,0,0,0,0,0,.1.17,0,.1.15-.08a9.33,9.33,0,0,0,.6-1.46,82.84,82.84,0,0,1,3.81-7.81A103.5,103.5,0,0,1,572,88.63,141.54,141.54,0,0,1,583.5,75.79a82.31,82.31,0,0,1,13-11.1c4.75-3.08,10.41-5.35,16.15-4.34,5,.87,10.14,5.1,8.26,10.65-.86,2.52-2.82,4.56-4.77,6.3-2.12,1.91-4.39,3.68-6.61,5.49-4.61,3.74-9.28,7.43-14.09,10.91-10.62,7.68-22,14.42-34.66,18.25A.71.71,0,0,0,561.14,113.31Z"/><path class="cls-1" d="M543,99.12c6.28-10.34,12.6-20.78,16.54-32.22a85.76,85.76,0,0,0,.67-53.43c-1.27-4-3-8.07-6.24-10.67s-8.56-3.09-11.43,0a11.34,11.34,0,0,0-2.34,4.72c-8,27.23,20.41,60.09,5.37,84.14a18.41,18.41,0,0,1-5.37,5S539.36,101,543,99.12Z"/><path class="cls-1" d="M543.6,99.45c4.77-7.85,9.55-15.74,13.32-24.13a88.66,88.66,0,0,0,7.3-25.82,86.81,86.81,0,0,0-1-26.77A67.4,67.4,0,0,0,559.68,10c-1.34-3.3-3.31-6.64-6.47-8.48a9.89,9.89,0,0,0-9.1-.64c-3.26,1.6-4.34,5.4-5.07,8.68-1.4,6.36-1,13,.15,19.31,2.43,13.66,8.29,26.57,9.89,40.39.73,6.3.41,12.84-2.23,18.7a18.59,18.59,0,0,1-2.6,4.46,15.89,15.89,0,0,1-2,2c-.51.42-1,.82-1.58,1.2a2.43,2.43,0,0,0-.21,4.37c.91.62,2.06.19,3-.24s.1-1.48-.66-1.12c-1,.47-1.8.57-1.91-.68a2.47,2.47,0,0,1,0-.94s0-.08,0-.12c-.09.15.65-.31.78-.4a18.65,18.65,0,0,0,6.21-7.56,34.35,34.35,0,0,0,2.8-16.63c-.75-12.77-5.77-24.88-8.8-37.19a67.38,67.38,0,0,1-2.36-18.78,35.39,35.39,0,0,1,1.56-9.19,8.07,8.07,0,0,1,3.29-4.88,7.48,7.48,0,0,1,5-.76c8.07,1.37,10.42,11.66,12,18.33a85.1,85.1,0,0,1-3.62,50.41A156.58,156.58,0,0,1,545.8,93.28q-1.65,2.76-3.32,5.51A.65.65,0,0,0,543.6,99.45Z"/><path class="cls-3" d="M525.3,77.2C520.48,65.09,513.68,51.3,500.86,49a4.64,4.64,0,0,0-3.31.31c-1.89,1.16-1.59,4-.8,6.06,4.11,10.84,14.39,17.88,24.1,24.23"/><text class="cls-4" transform="translate(111.05 447.45)">15</text><text class="cls-5" transform="translate(121.79 456.73)">15</text><text class="cls-6" transform="translate(132 464.18)">15</text></g></g></svg>