<svg xmlns="http://www.w3.org/2000/svg" viewBox="0 0 615.06 309.83"><defs><style>.cls-1{fill:none;stroke:#fecd9a;stroke-miterlimit:10;stroke-width:2.9px;}.cls-2{fill:#fff;}.cls-3{fill:#006838;}.cls-4{fill:#ed1c24;}</style></defs><g id="Capa_2" data-name="Capa 2"><g id="Layer_1" data-name="Layer 1"><path class="cls-1" d="M.71,168.91c28,15.62,189.28,62.53,320.42,35.87,88.55-18,250-153.54,249.47-204.77"/><path class="cls-2" d="M249.16,211.15,149,203a1.15,1.15,0,0,0-1.24,1.05l-6.16,75.5a8.79,8.79,0,0,0,8,9.48l2.31.19-.73.27s5.27,15.58,19.85,10.14c0,0,6.94,14.56,21,5.93,0,0,13,11.68,21.7-3.51l-.24-.63c10,4.69,16.21-1.63,18.94-5.63l2.05.17a8.8,8.8,0,0,0,9.48-8.05l6.16-75.5A1.15,1.15,0,0,0,249.16,211.15Zm-87.11,80.19a2.67,2.67,0,1,1,1.51-3.46A2.66,2.66,0,0,1,162.05,291.34Zm34-65.8a8.24,8.24,0,0,1,2.36-4.41c1.31-1.08,3.52-1.22,4.55.12a4.43,4.43,0,0,1,.73,2.45c.47,6.44-2.92,14.37-7.22,19.19l-.67-.34c.18,0,.08.35-.1.31s-.25-.26-.28-.44A38.33,38.33,0,0,1,196,225.54Zm-18.9,2.83a4.36,4.36,0,0,1-.09-2.55c.56-1.6,2.7-2.16,4.28-1.56a8.22,8.22,0,0,1,3.63,3.45,38.34,38.34,0,0,1,5.93,15.81c0,.19,0,.42-.13.51s-.37-.21-.19-.25l-.55.28C184.4,240.84,178.69,234.64,177.12,228.37ZM167,239.27a8.23,8.23,0,0,1,5,.62,38.27,38.27,0,0,1,14.17,9.19c.13.14.27.32.2.49s-.42.05-.3-.1l-.3.86c-6.42.73-14.67-1.16-19.66-5.26a4.42,4.42,0,0,1-1.59-2C164,241.45,165.38,239.73,167,239.27Zm17.47,62.06a2.67,2.67,0,1,1,1.52-3.46A2.67,2.67,0,0,1,184.48,301.33Zm-13.7-31.09a4.36,4.36,0,0,1-2.55.09c-1.6-.56-2.16-2.7-1.56-4.28a8.25,8.25,0,0,1,3.44-3.63,38.4,38.4,0,0,1,15.82-5.94c.18,0,.41,0,.51.13s-.07.25-.17.26l.78.57C183.83,263.05,177.05,268.66,170.78,270.24Zm21.44,12.81c-1.21,1.19-3.4,1.52-4.55.28a4.5,4.5,0,0,1-.94-2.38c-1-6.38,1.47-14.46,5.33-19.65l.89.18c-.19,0-.12-.34.07-.31s.27.23.32.41a38.32,38.32,0,0,1,.84,16.87A8.32,8.32,0,0,1,192.22,283.05Zm13.14,19a2.67,2.67,0,1,1,1.51-3.46A2.66,2.66,0,0,1,205.36,302Zm-13.62-47a4.23,4.23,0,1,1,5.92.86A4.24,4.24,0,0,1,191.74,255Zm20.64,23.19c-.27,1.67-1.83,3.24-3.49,2.92a4.49,4.49,0,0,1-2.17-1.35c-4.63-4.52-7.12-12.57-7.1-19l.52-.33c-.13.14-.29-.2-.13-.29s.36,0,.51.14a38.27,38.27,0,0,1,10.7,13.07A8.23,8.23,0,0,1,212.38,278.22Zm12.23,18.34a2.67,2.67,0,1,1,1.51-3.47A2.68,2.68,0,0,1,224.61,296.56Zm-1-31.53a8.23,8.23,0,0,1-5-.17,38.21,38.21,0,0,1-14.91-7.93c-.15-.12-.3-.29-.24-.46s.41-.09.31.06l0-.75c6.33-1.29,14.89-.25,20.23,3.4a4.45,4.45,0,0,1,1.75,1.85C226.48,262.6,225.25,264.44,223.66,265Zm-.59-25a4.45,4.45,0,0,1-1.54,2c-4.9,4.21-13.53,6.37-20,5.78l.1-.81c-.07.07-.24.1-.29,0s.06-.35.19-.49a38.11,38.11,0,0,1,14-9.51,8.3,8.3,0,0,1,4.95-.73C222.11,236.67,223.53,238.37,223.07,240Z"/><path class="cls-3" d="M517.51,174.25l-45.22-60.77a1.14,1.14,0,0,0-1.61-.24l-80.61,60a1.15,1.15,0,0,0-.24,1.61l45.22,60.77a8.8,8.8,0,0,0,12.31,1.81l1.65-1.23c4.43,1.95,13,4,19-5.26l.13.66c15.47,8.25,20.27-8.52,20.27-8.52,16.52-.14,14.69-16.17,14.69-16.17,15.25-3.1,11.47-19.11,11.47-19.11l-.76.15,1.86-1.38A8.79,8.79,0,0,0,517.51,174.25Zm-35.26-15.1c1.67.29,2.58,2.3,2.25,4a8.23,8.23,0,0,1-2.78,4.15,38.17,38.17,0,0,1-14.59,8.51c-.18.06-.4.1-.52,0s.14-.4.22-.23l-.62-.43c2.23-6.07,7.63-12.8,13.54-15.41A4.51,4.51,0,0,1,482.25,159.15Zm-25.88-3.88a8.22,8.22,0,0,1,2-4.59c1.22-1.18,3.4-1.5,4.55-.25a4.47,4.47,0,0,1,.92,2.38c1,6.39-1.71,14.87-5.6,20l-.63-.51c0,.09-.05.25-.17.23s-.27-.24-.32-.42A38.15,38.15,0,0,1,456.37,155.27Zm-22.51,6.22c-.22-1.68.82-3.63,2.5-3.81a4.49,4.49,0,0,1,2.47.67c5.73,3,10.68,10.05,12.52,16.25l-.65.39c.09-.16.34.11.21.24s-.35.08-.53,0a38.14,38.14,0,0,1-14-9.43A8.27,8.27,0,0,1,433.86,161.49Zm-7.25,20.62c-1.07-1.32-.42-3.44.93-4.46a8.19,8.19,0,0,1,4.84-1.27A38.11,38.11,0,0,1,449,179.67c.17.07.36.19.36.37s-.37.21-.32,0l0,.61c-5.69,3.07-14,4.66-20.13,2.7A4.47,4.47,0,0,1,426.61,182.11Zm31.67,47.42a2.67,2.67,0,1,1-3.12-2.13A2.68,2.68,0,0,1,458.28,229.53Zm-21.07-28a4.46,4.46,0,0,1-2.54.29c-1.64-.43-2.37-2.51-1.9-4.14a8.28,8.28,0,0,1,3.14-3.9,38.19,38.19,0,0,1,15.27-7.2c.19,0,.41-.06.52.09s-.18.38-.24.21l.57.7C449.28,193.45,443.32,199.47,437.21,201.56Zm23.87,9.25a4.38,4.38,0,0,1-1.27,2.22c-1.32,1.06-3.43.42-4.46-.93a8.34,8.34,0,0,1-1.27-4.84,38.24,38.24,0,0,1,3.28-16.57c.08-.17.2-.37.38-.36s.18.19.13.27l.9-.35C461.83,195.93,463,204.65,461.08,210.81ZM459.19,185a4.23,4.23,0,1,1,3.85-4.57A4.22,4.22,0,0,1,459.19,185Zm18.31,39a2.68,2.68,0,1,1-3.12-2.14A2.67,2.67,0,0,1,477.5,224Zm5.76-24.64c.37,1.66-.5,3.69-2.16,4a4.55,4.55,0,0,1-2.52-.46c-6-2.48-11.52-8.86-13.89-14.88l.61-.66c-.07.18-.34-.08-.22-.22s.34-.11.52-.06a38.28,38.28,0,0,1,14.78,8.18A8.18,8.18,0,0,1,483.26,199.33Zm11.58,13a2.67,2.67,0,1,1-3.12-2.14A2.67,2.67,0,0,1,494.84,212.33Zm-4.42-28.17a4.5,4.5,0,0,1-2.3,1.13c-6.27,1.55-14.43-.56-19.91-4v-.61c0,.18-.33.14-.32-.05s.21-.29.39-.35A38.17,38.17,0,0,1,485,178.07a8.29,8.29,0,0,1,4.75,1.58C491.05,180.76,491.56,182.91,490.42,184.16ZM508.57,192a2.67,2.67,0,1,1-3.11-2.13A2.67,2.67,0,0,1,508.57,192Z"/><path class="cls-4" d="M368.6,182.73l-97.36,24.82a1.15,1.15,0,0,0-.83,1.4l18.71,73.4a8.79,8.79,0,0,0,10.69,6.35l2.24-.57c-.2.16-.39.33-.6.49,0,0,10.05,13,22.07,3.14,0,0,11.29,11.52,21.82-1.22,0,0,16,6.84,19.38-10.37l-.43-.52c11,1.18,14.8-6.81,16.08-11.48l2-.51A8.79,8.79,0,0,0,388.72,257L370,183.57A1.17,1.17,0,0,0,368.6,182.73ZM320.29,222a3.17,3.17,0,0,1,.4-1.75,2.33,2.33,0,0,1,3.19-.28,5.78,5.78,0,0,1,1.84,3,26.73,26.73,0,0,1,1.18,11.81c0,.13,0,.29-.18.32s-.21-.21-.08-.2l-.42.09C323,231.75,320.23,226.51,320.29,222Zm-11.23,7.71a2.33,2.33,0,0,1,2.4-2.12,5.83,5.83,0,0,1,3.26,1.31,26.77,26.77,0,0,1,8,8.8c.07.11.13.26.05.36s-.3,0-.19-.12l-.36.53c-4.49-.66-9.75-3.43-12.41-7.11A3.23,3.23,0,0,1,309.06,229.68ZM293.86,211a5.37,5.37,0,0,1,3.41.24,2.65,2.65,0,0,1,1.52,2.84c-.33,1.28-1.75,1.91-3,2.34-3.77,1.29-8,2.49-11.65,1l-.5-.06C286.66,214.62,289.88,211.81,293.86,211Zm.76,17.89a3.32,3.32,0,1,1,2.34-4.07A3.32,3.32,0,0,1,294.62,228.9Zm13.78,41.42a3.32,3.32,0,1,1-3.84-2.71A3.32,3.32,0,0,1,308.4,270.32ZM281,233.48c-.89-3.88-1.64-8.18.26-11.69l.11-.48c2.38,3.29,4.84,6.79,5.22,10.83a5.32,5.32,0,0,1-.59,3.36,2.64,2.64,0,0,1-3,1.22C281.75,236.26,281.28,234.78,281,233.48Zm15,46.22-.11.49c-2.42-3.26-4.92-6.73-5.34-10.77a5.28,5.28,0,0,1,.55-3.37,2.64,2.64,0,0,1,3-1.25c1.25.45,1.73,1.92,2,3.21C297,271.89,297.83,276.17,296,279.7Zm19.14,2.91c-.57,1.2-2.09,1.53-3.41,1.71-3.95.53-8.3.88-11.61-1.34l-.48-.15c3.5-2.07,7.21-4.19,11.27-4.2a5.36,5.36,0,0,1,3.3.91A2.63,2.63,0,0,1,315.11,282.61Zm-6.66-33.34a3.06,3.06,0,0,1-1.76-.4,2.33,2.33,0,0,1-.28-3.19,5.85,5.85,0,0,1,3-1.84,26.73,26.73,0,0,1,11.81-1.18c.13,0,.29.05.32.18s-.09.15-.16.14l.43.53C318.6,246.73,313,249.33,308.45,249.27Zm12.25,12.56a2.32,2.32,0,0,1-3.14-.63,3.08,3.08,0,0,1-.21-1.78c.45-4.52,3.61-9.56,7.16-12.39l.57.28c-.13,0,0-.25.11-.2s.14.21.14.34a26.73,26.73,0,0,1-2.47,11.61A5.75,5.75,0,0,1,320.7,261.83Zm15.87,23.42a2.67,2.67,0,1,1,.3-3.77A2.68,2.68,0,0,1,336.57,285.25Zm-1.21-26.58a5.83,5.83,0,0,1-.09,3.51,2.33,2.33,0,0,1-2.9,1.36,3.12,3.12,0,0,1-1.23-1.31c-2.33-3.9-2.58-9.82-1.4-14.2l.42-.13c-.12.07-.16-.19,0-.22s.24.08.32.18A26.93,26.93,0,0,1,335.36,258.67Zm-6.07-14.3a3,3,0,1,1,1.65-3.86A3,3,0,0,1,329.29,244.37Zm.88-9.57a26.89,26.89,0,0,1,3.47-11.35,5.81,5.81,0,0,1,2.4-2.57,2.32,2.32,0,0,1,3.07.9,3.14,3.14,0,0,1,.05,1.8c-.84,4.46-4.57,9.23-8.36,11.74l-.4-.36c.13,0,0,.25-.12.19S330.16,234.93,330.17,234.8Zm15.13,20.46a5.89,5.89,0,0,1-3.36-1,27.11,27.11,0,0,1-8.71-8.07c-.07-.11-.14-.25-.08-.36s.3,0,.21.1l.16-.5c4.53.26,10.16,2.51,13.13,6a3.21,3.21,0,0,1,.86,1.57A2.33,2.33,0,0,1,345.3,255.26Zm11.23,23.85a2.67,2.67,0,1,1,.3-3.76A2.68,2.68,0,0,1,356.53,279.11Zm-7.12-41a3,3,0,0,1-1.41,1.1c-4.09,2-10.34,1.89-14.61.33l.22-.53c-.07,0-.18,0-.2-.06s.11-.23.22-.3a26.83,26.83,0,0,1,11.19-3.95,5.75,5.75,0,0,1,3.49.4A2.31,2.31,0,0,1,349.41,238.15Zm-4.05-41.07a5.39,5.39,0,0,1,2.82-1.93c3.85-1.31,8.05-.5,12,.32l-.39.31c-2.42,3.17-6.65,4.25-10.56,5-1.3.26-2.85.44-3.78-.51A2.64,2.64,0,0,1,345.36,197.08ZM356.52,211a3.32,3.32,0,1,1,2.35-4.07A3.32,3.32,0,0,1,356.52,211Zm13.13,40.24a3.32,3.32,0,1,1-4.27-2A3.32,3.32,0,0,1,369.65,251.24Zm7.32,9.08c-1.75,3.59-5.69,5.47-9.37,7-1.23.51-2.71,1-3.8.24a2.63,2.63,0,0,1-.74-3.13,5.42,5.42,0,0,1,2.39-2.44c3.51-2,7.79-2.06,11.85-2Zm2.25-4.54-.34-.37c-3.38-2.11-4.85-6.22-6-10-.38-1.28-.7-2.8.16-3.81a2.63,2.63,0,0,1,3.19-.41,5.41,5.41,0,0,1,2.18,2.64C380.08,247.49,379.67,251.75,379.22,255.78Zm-8.72-43.86a2.65,2.65,0,0,1-3.19.45,5.4,5.4,0,0,1-2.21-2.61c-1.7-3.69-1.33-7.95-.93-12l.34.36c3.41,2.08,4.92,6.17,6.1,10C371,209.38,371.34,210.9,370.5,211.92Z"/><path class="cls-2" d="M612.41,81.38l-54.14-53a1.14,1.14,0,0,0-1.63,0l-7.73,7.89a.43.43,0,0,1-.11-.12s-5.18,5.38-9.36,9.8l-53.07,54.24a1.15,1.15,0,0,0,0,1.63l54.15,53a8.79,8.79,0,0,0,12.43-.13l1.44-1.48c4.68,1.23,13.51,2,18-8.16l.24.63c16.56,5.74,18.68-11.57,18.68-11.57,16.31-2.72,12-18.27,12-18.27,14.58-5.44,8.34-20.67,8.34-20.67s0-.11-.16-.3l1.06-1.08A8.79,8.79,0,0,0,612.41,81.38ZM546.76,52A5.17,5.17,0,0,1,548.33,49c2.72-2.85,6.7-4,10.49-5.12l-.21.44c-.65,3.82-3.81,6.64-6.83,9.06-1,.81-2.25,1.65-3.48,1.26A2.57,2.57,0,0,1,546.76,52Zm8.52,41.43c-.07-.1,0-.24.06-.35a25.84,25.84,0,0,1,7.86-8.42,5.62,5.62,0,0,1,3.18-1.23,2.27,2.27,0,0,1,2.3,2.1,3.08,3.08,0,0,1-.72,1.59c-2.63,3.53-8.06,6.26-12.43,6.83l0-.55C555.44,93.42,555.33,93.46,555.28,93.39Zm-6.77-13.47a5.66,5.66,0,0,1,.91-3.29,2.26,2.26,0,0,1,3.05-.6,3.14,3.14,0,0,1,.85,1.52c1.28,4.22.21,10-1.93,13.86l-.5-.13c.12,0,.11.22,0,.22s-.21-.14-.26-.26A26.16,26.16,0,0,1,548.51,79.92Zm-12.6,3a2.27,2.27,0,0,1,2.62-1.68A5.64,5.64,0,0,1,541.46,83a26.05,26.05,0,0,1,6.31,9.64c.05.12.09.27,0,.36s-.27-.09-.16-.15l-.32.28c-4.21-1.31-8.94-4.58-10.93-8.52A3.07,3.07,0,0,1,535.91,83Zm-27.22,4.11a5.24,5.24,0,0,1,3-1.33,2.56,2.56,0,0,1,2.58,1.77c.3,1.25-.65,2.42-1.54,3.36-2.66,2.81-5.74,5.72-9.6,6l-.45.17C504.11,93.39,505.63,89.53,508.69,87.06Zm4.2,24.61a2.56,2.56,0,0,1-2,2.39c-1.27.16-2.34-.91-3.18-1.89-2.52-2.94-5.09-6.3-5-10.17l-.12-.47c3.52,1.76,7.2,3.67,9.34,7A5.16,5.16,0,0,1,512.89,111.67Zm4.48-9.55a3.23,3.23,0,1,1,.19-4.56A3.23,3.23,0,0,1,517.37,102.12Zm24,43.11.12.47c-3.54-1.72-7.25-3.59-9.43-6.87a5.21,5.21,0,0,1-1-3.15,2.56,2.56,0,0,1,2-2.41c1.28-.18,2.36.88,3.21,1.84C538.73,138,541.34,141.36,541.32,145.23ZM531.26,93.4a5.69,5.69,0,0,1,3.4-.33,26,26,0,0,1,10.8,4c.11.07.23.17.21.3s-.28.09-.22,0l-.07.61c-4.16,1.45-9.93,1.43-13.87-.55a3,3,0,0,1-1.36-1.09A2.27,2.27,0,0,1,531.26,93.4Zm3.79,17.87a5.56,5.56,0,0,1,1.74-2.93,26.08,26.08,0,0,1,9.64-6.32c.12,0,.27-.08.36,0s0,.18-.08.2l.61.26c-1.31,4.21-5,9-8.91,11a3.1,3.1,0,0,1-1.69.44A2.26,2.26,0,0,1,535.05,111.27Zm8.24,19.7a3.23,3.23,0,1,1-.61,4.52A3.23,3.23,0,0,1,543.29,131Zm15.81,8.18c0,1.29-1.11,2.26-2.17,3-3.16,2.23-6.75,4.48-10.59,4.06l-.48.08c2.08-3.35,4.32-6.84,7.81-8.67a5.27,5.27,0,0,1,3.25-.7A2.57,2.57,0,0,1,559.1,139.15Zm-3.89-23.75a5.66,5.66,0,0,1-.62,3.36,2.26,2.26,0,0,1-3,.86,3,3,0,0,1-1-1.44c-1.65-4.09-1.19-9.84.6-13.87l.61,0c-.11,0-.12-.2,0-.21s.21.11.27.22A26.2,26.2,0,0,1,555.21,115.4Zm-1.07-15.53a2.88,2.88,0,1,1-.3-4.06A2.87,2.87,0,0,1,554.14,99.87Zm13.14,12.65A2.25,2.25,0,0,1,565.4,115a3.12,3.12,0,0,1-1.65-.57c-3.75-2.31-6.62-7.3-7.57-11.6l.3-.3c-.07.11-.23-.09-.13-.17s.24,0,.35,0a25.89,25.89,0,0,1,9.08,7.09A5.64,5.64,0,0,1,567.28,112.52ZM579,140.14a2.67,2.67,0,1,1,1.63-3.41A2.68,2.68,0,0,1,579,140.14Zm-6.19-38.08a5.67,5.67,0,0,1-3.36.63,25.89,25.89,0,0,1-11.11-3c-.11-.06-.24-.14-.23-.27s.27-.12.22,0l-.08-.51c4-1.81,9.87-2.4,14-.77a3.11,3.11,0,0,1,1.45,1A2.26,2.26,0,0,1,572.82,102.06Zm-10.2-43.12a3.23,3.23,0,1,1,.19-4.56A3.24,3.24,0,0,1,562.62,58.94ZM569.45,54c-3.12-2.41-4.72-6.25-6.18-9.9l.45.16c3.87.25,7,3.1,9.73,5.85.9.92,1.87,2.07,1.61,3.33a2.57,2.57,0,0,1-2.54,1.81A5.16,5.16,0,0,1,569.45,54Zm24.88,71.92a2.67,2.67,0,1,1,1.62-3.41A2.68,2.68,0,0,1,594.33,125.94Zm-6.69-33.47a3.23,3.23,0,1,1,4.56-.23A3.24,3.24,0,0,1,587.64,92.47Zm14.7-.25c.1,3.87-2.44,7.25-4.93,10.22-.83,1-1.88,2.06-3.16,1.91a2.55,2.55,0,0,1-2-2.36,5.16,5.16,0,0,1,1-3.18c2.11-3.32,5.78-5.27,9.29-7.06Zm-.55-5.09c-3.86-.3-7-3.18-9.66-6-.89-.93-1.85-2.09-1.57-3.35A2.55,2.55,0,0,1,593.12,76a5.18,5.18,0,0,1,3.06,1.29c3.09,2.44,4.64,6.29,6.06,10Z"/><path class="cls-3" d="M128.82,200.25,31.18,176.57a1.15,1.15,0,0,0-1.39.85L11.93,251a8.8,8.8,0,0,0,6.47,10.62l2.26.54-.76.15s2.77,16.22,18,13.11c0,0,4.58,15.47,19.85,9.14,0,0,11,13.56,22-.08l-.13-.66c9.15,6.2,16.26.91,19.58-2.61l2,.49a8.81,8.81,0,0,0,10.62-6.48l17.85-73.61A1.16,1.16,0,0,0,128.82,200.25ZM84.47,220.88a2.32,2.32,0,0,1,2.25,2.27,3.08,3.08,0,0,1-.82,1.6c-2.88,3.51-8.46,5.89-13,6.26l-.18-.5c.1.08-.12.21-.2.1s0-.25.07-.36A27,27,0,0,1,81.13,222,5.8,5.8,0,0,1,84.47,220.88Zm-11,14.6c0-.12.2-.15.33-.16a27,27,0,0,1,11.71,1.94,5.79,5.79,0,0,1,2.87,2,2.33,2.33,0,0,1-.49,3.17,3.13,3.13,0,0,1-1.77.29c-4.54-.24-10-3.33-13-6.76l.44-.36C73.5,235.63,73.41,235.57,73.44,235.48Zm-3.3-21.23a3.13,3.13,0,0,1,1.2-1.34,2.32,2.32,0,0,1,2.93,1.29,5.82,5.82,0,0,1,.17,3.51,26.84,26.84,0,0,1-4.66,10.91c-.08.11-.19.23-.31.2s-.09-.29,0-.22l-.42-.12C67.8,224.12,67.9,218.2,70.14,214.25ZM52.27,191.9a5.35,5.35,0,0,1,2.87,1.86,2.64,2.64,0,0,1,0,3.22c-.91,1-2.46.82-3.77.59-3.93-.68-8.18-1.66-10.67-4.77l-.4-.3C44.22,191.59,48.4,190.68,52.27,191.9Zm11.6,37.69c-3.62-2.74-6.89-7.7-7.44-12.21a3.11,3.11,0,0,1,.16-1.79,2.33,2.33,0,0,1,3.13-.7,5.86,5.86,0,0,1,2.22,2.72,26.9,26.9,0,0,1,2.74,11.55c0,.13,0,.28-.13.34s-.24-.18-.11-.2Zm-22-25.67a3.33,3.33,0,1,1,2.44,4A3.33,3.33,0,0,1,41.87,203.92Zm4.68,24.41a5.75,5.75,0,0,1,3.51-.17A26.8,26.8,0,0,1,61,232.81c.11.08.22.19.2.32s-.16.09-.21,0l.11.67c-4.35,1.29-10.52.85-14.48-1.38a3.19,3.19,0,0,1-1.34-1.2A2.33,2.33,0,0,1,46.55,228.33ZM20.67,253.47c-.54-4-1.06-8.26.51-12a5.33,5.33,0,0,1,2.12-2.68,2.63,2.63,0,0,1,3.2.33c.88,1,.59,2.52.24,3.8-1,3.85-2.4,8-5.74,10.19Zm15.7,11.41c-1.08.77-2.57.33-3.81-.15-3.72-1.44-7.7-3.23-9.53-6.77l-.34-.36c4.06-.13,8.34-.2,11.89,1.75A5.4,5.4,0,0,1,37,261.73,2.65,2.65,0,0,1,36.37,264.88Zm.05-14a3.33,3.33,0,1,1-2.06-4.23A3.33,3.33,0,0,1,36.42,250.88Zm14.45,28.37a2.67,2.67,0,1,1,2-3.18A2.67,2.67,0,0,1,50.87,279.25ZM33.56,209.56a2.64,2.64,0,0,1-3.2-.37c-.87-1-.57-2.53-.2-3.81,1.08-3.83,2.5-8,5.86-10.11l.33-.38c.5,4,1,8.29-.65,12A5.37,5.37,0,0,1,33.56,209.56Zm17.73,39.81a2.33,2.33,0,0,1-2.45-2.07,3.08,3.08,0,0,1,.68-1.66c2.57-3.75,7.76-6.64,12.24-7.4l.37.52c-.11-.08.1-.23.18-.13a.34.34,0,0,1,0,.37,26.71,26.71,0,0,1-7.76,9A5.79,5.79,0,0,1,51.29,249.37Zm20.1,33.81a2.67,2.67,0,1,1,2-3.18A2.68,2.68,0,0,1,71.39,283.18Zm-4.84-41.36a26.8,26.8,0,0,1-.9,11.84,5.83,5.83,0,0,1-1.77,3,2.33,2.33,0,0,1-3.2-.21,3.18,3.18,0,0,1-.44-1.74c-.16-4.54,2.48-9.85,5.62-13.12l.43.09c-.13,0-.05-.25.08-.21S66.53,241.7,66.55,241.82Zm.68-3.62a3,3,0,1,1,3.31-2.58A3,3,0,0,1,67.23,238.2Zm11.84,14.5a3,3,0,0,1,0,1.79,2.32,2.32,0,0,1-3,1A5.8,5.8,0,0,1,73.56,253a26.69,26.69,0,0,1-3.74-11.26c0-.13,0-.29.1-.36s.26.16.13.19l.39-.36C74.28,243.57,78.13,248.25,79.07,252.7Zm22.24,22.47c-3.26,2.3-7.61,2.05-11.58,1.61-1.32-.15-2.84-.44-3.45-1.62a2.64,2.64,0,0,1,.87-3.1,5.36,5.36,0,0,1,3.27-1c4.06-.09,7.82,1.95,11.36,3.93Zm-2-11.49a3.33,3.33,0,1,1-2.8-3.77A3.32,3.32,0,0,1,99.28,263.68Zm4.83-59.16a5.34,5.34,0,0,1,3.4-.32c4,.7,7.29,3.44,10.38,6.07l-.5.08c-3.65,1.61-7.87.52-11.67-.69-1.27-.4-2.7-1-3.06-2.27A2.63,2.63,0,0,1,104.11,204.52Zm6.45,56.87c-.33,4-2.75,7.57-5.09,10.89l-.12-.49c-1.94-3.48-1.24-7.79-.39-11.68.28-1.3.73-2.79,2-3.26a2.63,2.63,0,0,1,3,1.18A5.32,5.32,0,0,1,110.56,261.39Zm.63-41.73a3.32,3.32,0,1,1-2.43-4A3.31,3.31,0,0,1,111.19,219.66Zm9.72,6.7c-.27,1.3-.7,2.79-1.93,3.28a2.63,2.63,0,0,1-3-1.14,5.38,5.38,0,0,1-.68-3.35c.29-4.05,2.67-7.61,5-11l.12.48C122.37,218.14,121.72,222.46,120.91,226.36Z"/></g></g></svg>