<svg xmlns="http://www.w3.org/2000/svg" viewBox="0 0 615.08 309.83"><defs><style>.cls-1{fill:none;stroke:#fecd9a;stroke-miterlimit:10;stroke-width:2.9px;}.cls-2{fill:#ed1c24;}.cls-3{fill:#006838;}.cls-4{fill:#fff;}</style></defs><g id="Capa_2" data-name="Capa 2"><g id="Layer_1" data-name="Layer 1"><path class="cls-1" d="M614.37,168.91c-28,15.62-189.28,62.53-320.42,35.87C205.4,186.78,44,51.24,44.48,0"/><path class="cls-2" d="M364.86,212.39l6.16,75.5a8.8,8.8,0,0,0,9.48,8.05l2.05-.17c2.72,4,8.93,10.32,18.94,5.63l-.24.63c8.75,15.19,21.7,3.51,21.7,3.51,14.09,8.63,21-5.93,21-5.93,14.58,5.44,19.85-10.14,19.85-10.14l-.73-.27,2.31-.19a8.79,8.79,0,0,0,8-9.48L467.3,204a1.15,1.15,0,0,0-1.24-1.05l-100.14,8.17A1.15,1.15,0,0,0,364.86,212.39Zm86.66,75.49a2.67,2.67,0,1,1,1.51,3.46A2.66,2.66,0,0,1,451.52,287.88Zm-31.83-45.46c0,.18-.1.4-.28.44s-.28-.32-.1-.31l-.67.34c-4.3-4.82-7.7-12.75-7.22-19.19a4.51,4.51,0,0,1,.72-2.45c1-1.34,3.25-1.2,4.56-.12a8.24,8.24,0,0,1,2.36,4.41A38.33,38.33,0,0,1,419.69,242.42Zm5.38,1.64-.54-.28c.18,0,0,.35-.19.25s-.15-.32-.13-.51a38.21,38.21,0,0,1,5.93-15.81,8.25,8.25,0,0,1,3.62-3.45c1.59-.6,3.73,0,4.29,1.56a4.44,4.44,0,0,1-.09,2.55C436.38,234.64,430.68,240.84,425.07,244.06Zm25.52-1a4.42,4.42,0,0,1-1.59,2c-5,4.1-13.24,6-19.66,5.26l-.3-.86c.12.15-.23.27-.3.1s.07-.35.2-.49a38.19,38.19,0,0,1,14.17-9.19,8.22,8.22,0,0,1,5-.62C449.7,239.73,451.09,241.45,450.59,243.07Zm-21.51,54.8a2.67,2.67,0,1,1,1.51,3.46A2.66,2.66,0,0,1,429.08,297.87ZM428,257.44l.78-.57c-.1,0-.24-.14-.17-.26s.33-.15.51-.13A38.31,38.31,0,0,1,445,262.42a8.22,8.22,0,0,1,3.45,3.63c.6,1.58,0,3.72-1.56,4.28a4.36,4.36,0,0,1-2.55-.09C438,268.66,431.25,263.05,428,257.44Zm-7.13,21a38.32,38.32,0,0,1,.84-16.87c.05-.18.14-.39.32-.41s.26.34.07.31l.89-.18c3.86,5.19,6.36,13.27,5.33,19.65a4.5,4.5,0,0,1-.94,2.38c-1.15,1.24-3.34.91-4.55-.28A8.25,8.25,0,0,1,420.9,278.45Zm-12.69,20.1a2.67,2.67,0,1,1,1.51,3.46A2.67,2.67,0,0,1,408.21,298.55Zm9.21-42.66a4.23,4.23,0,1,1,5.91-.86A4.23,4.23,0,0,1,417.42,255.89Zm-13.56,17.46a38.27,38.27,0,0,1,10.7-13.07c.15-.11.34-.23.51-.14s0,.43-.13.29l.52.33c0,6.46-2.47,14.51-7.1,19a4.49,4.49,0,0,1-2.17,1.35c-1.66.32-3.22-1.25-3.49-2.92A8.23,8.23,0,0,1,403.86,273.35ZM389,293.09a2.67,2.67,0,1,1,1.51,3.47A2.67,2.67,0,0,1,389,293.09Zm.28-32.06a4.45,4.45,0,0,1,1.75-1.85c5.34-3.65,13.9-4.69,20.23-3.4l0,.75c-.1-.15.26-.24.31-.06s-.1.34-.24.46a38.28,38.28,0,0,1-14.91,7.93,8.23,8.23,0,0,1-5,.17C389.83,264.44,388.6,262.6,389.24,261Zm5.37-24.77a8.3,8.3,0,0,1,4.95.73,38.2,38.2,0,0,1,14,9.51c.12.14.26.32.18.49s-.21.09-.28,0l.1.81c-6.44.59-15.07-1.57-20-5.78a4.54,4.54,0,0,1-1.55-2C391.54,238.37,393,236.67,394.61,236.26Z"/><path class="cls-3" d="M99.37,186.55l1.86,1.38-.76-.15s-3.78,16,11.46,19.11c0,0-1.83,16,14.7,16.17,0,0,4.8,16.77,20.26,8.52l.14-.66c6,9.29,14.61,7.21,19,5.26l1.65,1.23A8.8,8.8,0,0,0,180,235.6l45.22-60.77a1.15,1.15,0,0,0-.24-1.61l-80.61-60a1.15,1.15,0,0,0-1.62.24L97.57,174.25A8.79,8.79,0,0,0,99.37,186.55Zm36-26.88c5.91,2.61,11.31,9.34,13.54,15.41l-.62.43c.08-.17.35.09.22.23s-.34.1-.52,0a38.17,38.17,0,0,1-14.59-8.51,8.23,8.23,0,0,1-2.78-4.15c-.34-1.67.58-3.68,2.25-4A4.51,4.51,0,0,1,135.33,159.67ZM158,172.14c-.05.18-.14.39-.32.42s-.19-.14-.17-.23l-.63.51c-3.89-5.16-6.6-13.64-5.6-20a4.47,4.47,0,0,1,.92-2.38c1.14-1.25,3.33-.93,4.55.25a8.29,8.29,0,0,1,2,4.59A38.3,38.3,0,0,1,158,172.14Zm20.74-6.33a38.1,38.1,0,0,1-14,9.43c-.17.07-.39.13-.52,0s.12-.4.21-.24l-.65-.39c1.84-6.2,6.79-13.26,12.52-16.25a4.47,4.47,0,0,1,2.47-.67c1.68.18,2.72,2.13,2.5,3.81A8.27,8.27,0,0,1,178.71,165.81Zm7.55,17.57c-6.16,2-14.44.37-20.13-2.7l0-.61c.06.18-.31.16-.31,0s.19-.3.36-.37a38.11,38.11,0,0,1,16.57-3.29,8.19,8.19,0,0,1,4.84,1.27c1.35,1,2,3.14.93,4.46A4.47,4.47,0,0,1,186.26,183.38Zm-26.34,44a2.67,2.67,0,1,1-3.12,2.13A2.66,2.66,0,0,1,159.92,227.4Zm3.13-39.79.57-.7c-.06.17-.35-.06-.24-.21s.33-.13.51-.09a38.17,38.17,0,0,1,15.28,7.2,8.28,8.28,0,0,1,3.14,3.9c.47,1.63-.26,3.71-1.9,4.14a4.46,4.46,0,0,1-2.54-.29C171.76,199.47,165.8,193.45,163.05,187.61Zm-6.74,2.64.9.35c-.05-.08,0-.27.13-.27s.3.19.37.36A38.11,38.11,0,0,1,161,207.26a8.34,8.34,0,0,1-1.27,4.84c-1,1.35-3.14,2-4.46.93a4.38,4.38,0,0,1-1.27-2.22C152,204.65,153.24,195.93,156.31,190.25ZM152,180.41a4.23,4.23,0,1,1,3.85,4.57A4.22,4.22,0,0,1,152,180.41ZM140.7,221.83a2.67,2.67,0,1,1-3.12,2.14A2.66,2.66,0,0,1,140.7,221.83Zm-6-26.58a38.28,38.28,0,0,1,14.78-8.18c.18,0,.4-.08.52.06s-.15.4-.22.22l.61.66c-2.37,6-7.93,12.4-13.9,14.88a4.51,4.51,0,0,1-2.51.46c-1.66-.33-2.53-2.36-2.16-4A8.18,8.18,0,0,1,134.7,195.25Zm-11.34,14.94a2.67,2.67,0,1,1-3.12,2.14A2.67,2.67,0,0,1,123.36,210.19Zm2-30.54a8.29,8.29,0,0,1,4.75-1.58,38.17,38.17,0,0,1,16.74,2.22c.18.06.38.17.39.35s-.36.23-.32.05v.61c-5.48,3.43-13.64,5.54-19.91,4a4.5,4.5,0,0,1-2.3-1.13C123.52,182.91,124,180.76,125.31,179.65Zm-15.69,10.19A2.67,2.67,0,1,1,106.5,192,2.67,2.67,0,0,1,109.62,189.84Z"/><path class="cls-4" d="M245.07,183.57,226.36,257a8.79,8.79,0,0,0,6.35,10.69l2,.51c1.28,4.67,5.09,12.66,16.08,11.48l-.43.52c3.34,17.21,19.38,10.37,19.38,10.37,10.53,12.74,21.82,1.22,21.82,1.22,12,9.89,22.07-3.14,22.07-3.14l-.61-.49,2.25.57A8.79,8.79,0,0,0,326,282.35L344.67,209a1.15,1.15,0,0,0-.83-1.4l-97.36-24.82A1.17,1.17,0,0,0,245.07,183.57ZM288.86,235l-.42-.09c.13,0,0,.24-.08.2s-.17-.19-.18-.32a26.73,26.73,0,0,1,1.18-11.81,5.72,5.72,0,0,1,1.84-3,2.33,2.33,0,0,1,3.19.28,3.17,3.17,0,0,1,.4,1.75C294.85,226.51,292.08,231.75,288.86,235Zm16.44-3.62c-2.66,3.68-7.92,6.45-12.42,7.11l-.35-.53c.11.08-.11.23-.19.12s0-.25.05-.36a26.77,26.77,0,0,1,8-8.8,5.83,5.83,0,0,1,3.26-1.31,2.31,2.31,0,0,1,2.39,2.12A3.13,3.13,0,0,1,305.3,231.33Zm26.15-14-.5.06c-3.68,1.53-7.88.33-11.65-1-1.26-.43-2.68-1.06-3-2.34a2.65,2.65,0,0,1,1.52-2.84,5.37,5.37,0,0,1,3.41-.24C325.2,211.81,328.42,214.62,331.45,217.33Zm-13.33,7.5a3.32,3.32,0,1,1,2.34,4.07A3.33,3.33,0,0,1,318.12,224.83Zm-7.6,42.78a3.32,3.32,0,1,1-3.84,2.71A3.32,3.32,0,0,1,310.52,267.61Zm21.56-30.89a2.63,2.63,0,0,1-3-1.22,5.32,5.32,0,0,1-.59-3.36c.38-4,2.84-7.54,5.22-10.83l.11.48c1.9,3.51,1.15,7.81.25,11.69C333.8,234.78,333.33,236.26,332.08,236.72ZM319,268c.31-1.29.8-2.76,2.05-3.21a2.65,2.65,0,0,1,3,1.25,5.35,5.35,0,0,1,.55,3.37c-.42,4-2.93,7.51-5.34,10.77l-.11-.49C317.25,276.17,318.05,271.89,319,268ZM300.9,279.54a5.36,5.36,0,0,1,3.3-.91c4.06,0,7.77,2.13,11.26,4.2L315,283c-3.31,2.22-7.66,1.87-11.61,1.34-1.32-.18-2.84-.51-3.41-1.71A2.63,2.63,0,0,1,300.9,279.54Zm-7.62-36,.42-.53c-.06,0-.18,0-.16-.14s.2-.17.33-.18a26.74,26.74,0,0,1,11.81,1.18,5.85,5.85,0,0,1,3,1.84,2.32,2.32,0,0,1-.29,3.19,3,3,0,0,1-1.75.4C302.09,249.33,296.48,246.73,293.28,243.51Zm-1.06,15.55a26.73,26.73,0,0,1-2.47-11.61c0-.13,0-.29.14-.34s.24.19.11.2l.57-.28c3.55,2.83,6.71,7.87,7.15,12.39a3.16,3.16,0,0,1-.2,1.78,2.32,2.32,0,0,1-3.14.63A5.75,5.75,0,0,1,292.22,259.06Zm-14,22.42a2.67,2.67,0,1,1,.3,3.77A2.66,2.66,0,0,1,278.21,281.48Zm6.43-33.62c.08-.1.19-.21.32-.18s.07.29,0,.22l.42.13c1.18,4.38.93,10.3-1.4,14.2a3.12,3.12,0,0,1-1.23,1.31,2.33,2.33,0,0,1-2.9-1.36,5.83,5.83,0,0,1-.09-3.51A26.93,26.93,0,0,1,284.64,247.86Zm-.5-7.35a3,3,0,1,1,1.65,3.86A3,3,0,0,1,284.14,240.51Zm.66-5.36c-.12.06-.25-.16-.13-.19l-.39.36c-3.79-2.51-7.52-7.28-8.36-11.74a3.14,3.14,0,0,1,.05-1.8,2.32,2.32,0,0,1,3.07-.9,5.81,5.81,0,0,1,2.4,2.57,26.89,26.89,0,0,1,3.47,11.35C284.92,234.93,284.91,235.09,284.8,235.15Zm-17.23,17.78a3.13,3.13,0,0,1,.86-1.57c3-3.44,8.59-5.69,13.13-6l.16.5c-.1-.08.13-.21.2-.1s0,.25-.08.36a27,27,0,0,1-8.7,8.07,5.89,5.89,0,0,1-3.36,1A2.33,2.33,0,0,1,267.57,252.93Zm-9.33,22.42a2.67,2.67,0,1,1,.31,3.76A2.68,2.68,0,0,1,258.24,275.35Zm8.52-40.21a5.79,5.79,0,0,1,3.5-.4,26.88,26.88,0,0,1,11.19,3.95c.11.07.23.17.21.3s-.13.1-.19.06l.22.53c-4.27,1.56-10.52,1.65-14.61-.33a3.12,3.12,0,0,1-1.42-1.1A2.33,2.33,0,0,1,266.76,235.14Zm2.85-34.85c-.93,1-2.48.77-3.78.51-3.91-.77-8.14-1.85-10.56-5l-.39-.31c4-.82,8.17-1.63,12-.32a5.38,5.38,0,0,1,2.83,1.93A2.64,2.64,0,0,1,269.61,200.29Zm-13.4,6.64a3.32,3.32,0,1,1,2.35,4.07A3.33,3.33,0,0,1,256.21,206.93Zm-6.51,42.35a3.32,3.32,0,1,1-4.27,2A3.32,3.32,0,0,1,249.7,249.28ZM237.78,260c4.06,0,8.34,0,11.85,2a5.42,5.42,0,0,1,2.39,2.44,2.63,2.63,0,0,1-.74,3.13c-1.09.75-2.57.27-3.8-.24-3.69-1.52-7.62-3.4-9.37-7Zm-1.13-16.16a5.41,5.41,0,0,1,2.18-2.64,2.63,2.63,0,0,1,3.19.41c.85,1,.53,2.53.16,3.81-1.14,3.82-2.6,7.93-6,10l-.34.37C235.41,251.75,235,247.49,236.65,243.79Zm7.82-35.68c1.17-3.81,2.69-7.9,6.09-10l.35-.36c.4,4,.77,8.3-.94,12a5.32,5.32,0,0,1-2.2,2.61,2.65,2.65,0,0,1-3.19-.45C243.74,210.9,244.08,209.38,244.47,208.11Z"/><path class="cls-2" d="M2.54,94.11,3.6,95.18c-.16.19-.22.3-.16.31s-6.16,15.25,8.44,20.62c0,0-4.23,15.57,12.09,18.21,0,0,2.2,17.3,18.74,11.49l.23-.64c4.53,10.09,13.36,9.33,18,8.08l1.45,1.47a8.79,8.79,0,0,0,12.43.07l53.89-53.24a1.15,1.15,0,0,0,0-1.63l-53.33-54C71.21,41.54,66,36.19,66,36.19s-.05.05-.11.12l-7.77-7.86a1.14,1.14,0,0,0-1.63,0L2.61,81.67A8.8,8.8,0,0,0,2.54,94.11ZM66.59,54.67c-1.22.4-2.47-.44-3.48-1.24-3-2.41-6.2-5.22-6.88-9L56,44C59.82,45,63.8,46.19,66.54,49a5.16,5.16,0,0,1,1.58,2.91A2.57,2.57,0,0,1,66.59,54.67Zm-7,38.72-.05.55c-4.37-.55-9.81-3.26-12.45-6.78a3,3,0,0,1-.73-1.58,2.26,2.26,0,0,1,2.28-2.11,5.55,5.55,0,0,1,3.19,1.21,25.93,25.93,0,0,1,7.9,8.38.35.35,0,0,1,.06.36C59.75,93.48,59.64,93.44,59.6,93.39Zm4.86-2.14c0,.11-.13.25-.26.25s-.14-.26,0-.22l-.5.13c-2.15-3.84-3.25-9.62-2-13.85A3,3,0,0,1,62.53,76a2.26,2.26,0,0,1,3,.58,5.67,5.67,0,0,1,.93,3.29A26.26,26.26,0,0,1,64.46,91.25Zm14.23-6.68c-2,3.94-6.69,7.23-10.89,8.56l-.32-.27c.11.06-.07.23-.16.14s-.06-.24,0-.35A26.19,26.19,0,0,1,73.57,83a5.6,5.6,0,0,1,2.92-1.76,2.25,2.25,0,0,1,2.63,1.66A3.11,3.11,0,0,1,78.69,84.57Zm33.69,12.28-.46-.17c-3.85-.31-6.94-3.21-9.62-6-.89-.93-1.85-2.1-1.56-3.36a2.55,2.55,0,0,1,2.57-1.77,5.2,5.2,0,0,1,3,1.3C109.44,89.31,111,93.17,112.38,96.85Zm-9.12,11.47c2.12-3.31,5.8-5.24,9.32-7l-.12.47c.08,3.87-2.48,7.24-5,10.2-.83,1-1.89,2-3.17,1.9a2.56,2.56,0,0,1-2-2.38A5.17,5.17,0,0,1,103.26,108.32ZM97.55,97.4a3.22,3.22,0,1,1,.21,4.56A3.21,3.21,0,0,1,97.55,97.4ZM79.11,135.05c.84-1,1.92-2,3.19-1.86a2.56,2.56,0,0,1,2,2.39,5.23,5.23,0,0,1-1,3.16c-2.17,3.29-5.87,5.18-9.4,6.92l.12-.47C74,141.32,76.57,138,79.11,135.05Zm5.83-38.84a3.06,3.06,0,0,1-1.35,1.1c-3.93,2-9.7,2-13.87.62l-.07-.61c.06.11-.19.14-.22,0s.1-.23.21-.3A26,26,0,0,1,80.42,93a5.69,5.69,0,0,1,3.4.32A2.26,2.26,0,0,1,84.94,96.21Zm-6.48,17.61a3.09,3.09,0,0,1-1.69-.43c-3.94-2-7.64-6.71-9-10.91l.6-.27c-.06,0-.13-.13-.07-.2s.24-.05.36,0a26.24,26.24,0,0,1,9.66,6.27,5.6,5.6,0,0,1,1.76,2.92A2.26,2.26,0,0,1,78.46,113.82ZM72.6,135.45a3.22,3.22,0,1,1-.63-4.51A3.21,3.21,0,0,1,72.6,135.45ZM58.38,137a5.18,5.18,0,0,1,3.24.69c3.5,1.8,5.76,5.29,7.86,8.62l-.48-.07c-3.85.44-7.44-1.79-10.62-4-1.05-.74-2.21-1.7-2.18-3A2.57,2.57,0,0,1,58.38,137ZM63,104.31c.06-.11.15-.24.28-.23s.12.27,0,.22h.61c1.82,4,2.3,9.77.68,13.87a3.06,3.06,0,0,1-1,1.45,2.26,2.26,0,0,1-3-.85,5.65,5.65,0,0,1-.63-3.35A26.21,26.21,0,0,1,63,104.31Zm-1.75-8.49A2.89,2.89,0,1,1,61,99.89,2.88,2.88,0,0,1,61.26,95.82ZM49.38,109.53a26,26,0,0,1,9-7.13c.11-.06.26-.11.36,0s-.06.29-.13.18l.3.3c-.93,4.3-3.78,9.3-7.52,11.63a3.12,3.12,0,0,1-1.64.59,2.27,2.27,0,0,1-1.9-2.47A5.65,5.65,0,0,1,49.38,109.53ZM34.65,136.87a2.67,2.67,0,1,1,1.64,3.4A2.68,2.68,0,0,1,34.65,136.87Zm6.79-37.69a3.08,3.08,0,0,1,1.44-1c4.09-1.65,9.95-1.09,14,.7l-.08.5c-.05-.11.21-.12.22,0s-.12.21-.23.27a26,26,0,0,1-11.1,3.09,5.57,5.57,0,0,1-3.35-.61A2.27,2.27,0,0,1,41.44,99.18ZM52.09,54.44A3.22,3.22,0,1,1,52.3,59,3.21,3.21,0,0,1,52.09,54.44Zm-9.71.94a2.56,2.56,0,0,1-2.55-1.8c-.27-1.26.7-2.42,1.6-3.34,2.71-2.76,5.83-5.62,9.69-5.9l.46-.16c-1.45,3.66-3,7.51-6.13,9.93A5.24,5.24,0,0,1,42.38,55.38ZM19.27,122.74a2.67,2.67,0,1,1,1.64,3.41A2.68,2.68,0,0,1,19.27,122.74Zm3.61-30.3a3.23,3.23,0,1,1,4.56.21A3.23,3.23,0,0,1,22.88,92.44ZM12.62,92c3.51,1.78,7.19,3.7,9.32,7a5.22,5.22,0,0,1,1,3.17,2.56,2.56,0,0,1-2,2.37c-1.28.15-2.34-.91-3.18-1.9-2.5-3-5.06-6.32-5-10.2Zm.19-4.45c1.41-3.68,2.94-7.54,6-10a5.15,5.15,0,0,1,3.05-1.31A2.57,2.57,0,0,1,24.45,78c.29,1.26-.67,2.43-1.56,3.36-2.67,2.79-5.76,5.69-9.62,6Z"/><path class="cls-3" d="M485.41,201.65l17.85,73.61a8.81,8.81,0,0,0,10.62,6.48l2-.49c3.32,3.52,10.43,8.81,19.58,2.61l-.13.66c11,13.64,22,.08,22,.08,15.27,6.33,19.85-9.14,19.85-9.14,15.25,3.11,18-13.11,18-13.11-.26,0-.5-.1-.76-.15l2.25-.54A8.81,8.81,0,0,0,603.15,251l-17.86-73.62a1.15,1.15,0,0,0-1.39-.85l-97.64,23.68A1.15,1.15,0,0,0,485.41,201.65ZM534,222a26.88,26.88,0,0,1,8.51,8.27c.08.11.15.25.08.36s-.3,0-.2-.1l-.18.5c-4.53-.37-10.1-2.75-13-6.26a3.08,3.08,0,0,1-.82-1.6,2.32,2.32,0,0,1,2.25-2.27A5.8,5.8,0,0,1,534,222Zm7.55,13.65.45.36c-3,3.43-8.43,6.52-13,6.76a3.13,3.13,0,0,1-1.77-.29,2.33,2.33,0,0,1-.49-3.17,5.75,5.75,0,0,1,2.87-2,27,27,0,0,1,11.71-1.94c.13,0,.29,0,.33.16S541.57,235.63,541.5,235.63Zm4.5-7.15-.42.12c.12-.07.16.19,0,.22s-.23-.09-.31-.2a26.84,26.84,0,0,1-4.66-10.91,5.74,5.74,0,0,1,.17-3.51,2.32,2.32,0,0,1,2.93-1.29,3.13,3.13,0,0,1,1.2,1.34C547.17,218.2,547.28,224.12,546,228.48Zm28.81-36-.4.3c-2.49,3.11-6.74,4.09-10.67,4.77-1.31.23-2.86.37-3.77-.59a2.64,2.64,0,0,1,0-3.22,5.35,5.35,0,0,1,2.87-1.86C566.68,190.68,570.86,191.59,574.81,192.5Zm-24.17,36.8c.13,0,0,.25-.11.2s-.13-.21-.13-.34a26.9,26.9,0,0,1,2.74-11.55,5.74,5.74,0,0,1,2.22-2.72,2.33,2.33,0,0,1,3.13.7,3.11,3.11,0,0,1,.16,1.79c-.55,4.51-3.82,9.47-7.44,12.21Zm20.13-21.36a3.33,3.33,0,1,1,2.44-4A3.33,3.33,0,0,1,570.77,207.94Zm-.95,23.32a3.21,3.21,0,0,1-1.35,1.2c-4,2.23-10.12,2.67-14.47,1.38l.11-.67c-.05.05-.19.05-.21,0s.09-.24.2-.32A26.8,26.8,0,0,1,565,228.16a5.75,5.75,0,0,1,3.51.17A2.33,2.33,0,0,1,569.82,231.26Zm24.26,21.84c-3.34-2.19-4.7-6.34-5.75-10.19-.34-1.28-.63-2.8.25-3.8a2.63,2.63,0,0,1,3.2-.33,5.33,5.33,0,0,1,2.12,2.68c1.57,3.75,1.05,8,.51,12Zm-16,8.63a5.4,5.4,0,0,1,2.46-2.38c3.55-2,7.83-1.88,11.89-1.75l-.34.36c-1.83,3.54-5.81,5.33-9.53,6.77-1.24.48-2.73.92-3.81.15A2.64,2.64,0,0,1,578,261.73Zm2.68-15.08a3.32,3.32,0,1,1-2.06,4.23A3.31,3.31,0,0,1,580.72,246.65Zm-18.55,29.42a2.67,2.67,0,1,1,2,3.18A2.68,2.68,0,0,1,562.17,276.07Zm17.21-69.17c-1.62-3.72-1.15-8-.65-12l.33.38c3.36,2.15,4.77,6.28,5.86,10.11.36,1.28.67,2.8-.2,3.81a2.64,2.64,0,0,1-3.2.37A5.37,5.37,0,0,1,579.38,206.9ZM560.56,248a26.94,26.94,0,0,1-7.76-9c-.06-.12-.12-.26,0-.37s.29.05.18.13l.37-.52c4.48.76,9.67,3.65,12.24,7.4a3.16,3.16,0,0,1,.68,1.66,2.34,2.34,0,0,1-2.45,2.07A5.82,5.82,0,0,1,560.56,248Zm-18.9,32a2.67,2.67,0,1,1,2,3.18A2.67,2.67,0,0,1,541.66,280Zm7.05-38.49c.13,0,.21.21.08.21l.42-.09c3.15,3.27,5.79,8.58,5.63,13.12a3.18,3.18,0,0,1-.44,1.74,2.33,2.33,0,0,1-3.2.21,5.83,5.83,0,0,1-1.77-3,26.8,26.8,0,0,1-.9-11.84C548.55,241.7,548.59,241.54,548.71,241.51Zm-4.17-5.89a3,3,0,1,1,3.31,2.58A3,3,0,0,1,544.54,235.62Zm.1,5.54.39.36c-.13,0,0-.25.13-.19s.11.23.1.36A26.83,26.83,0,0,1,541.52,253a5.85,5.85,0,0,1-2.45,2.52,2.32,2.32,0,0,1-3.05-1,3,3,0,0,1,0-1.79C537,248.25,540.8,243.57,544.64,241.16ZM513.3,275c3.54-2,7.3-4,11.36-3.93a5.36,5.36,0,0,1,3.27,1,2.62,2.62,0,0,1,.86,3.1c-.6,1.18-2.12,1.47-3.44,1.62-4,.44-8.32.69-11.58-1.61Zm5.3-15.09a3.32,3.32,0,1,1-2.8,3.77A3.32,3.32,0,0,1,518.6,259.91Zm-6.18-52.52c-.36,1.28-1.8,1.87-3.06,2.27-3.8,1.21-8,2.3-11.67.69l-.5-.08c3.09-2.63,6.38-5.37,10.38-6.07a5.34,5.34,0,0,1,3.4.32A2.63,2.63,0,0,1,512.42,207.39ZM505.15,258a2.63,2.63,0,0,1,3-1.18c1.23.47,1.69,2,2,3.26.85,3.89,1.55,8.2-.4,11.68l-.11.49c-2.34-3.32-4.76-6.85-5.09-10.89A5.32,5.32,0,0,1,505.15,258Zm1.17-42.38a3.32,3.32,0,1,1-2.44,4A3.31,3.31,0,0,1,506.32,215.65Zm-11.62-1,.12-.48c2.3,3.34,4.68,6.9,5,11a5.31,5.31,0,0,1-.67,3.35,2.63,2.63,0,0,1-3,1.14c-1.23-.49-1.67-2-1.93-3.28C493.36,222.46,492.71,218.14,494.7,214.68Z"/></g></g></svg>