<svg xmlns="http://www.w3.org/2000/svg" viewBox="0 0 440.86 764.14"><defs><style>.cls-1{isolation:isolate;}.cls-2{fill:#006838;}.cls-3{fill:#028745;}.cls-4{fill:#006163;mix-blend-mode:multiply;}</style></defs><g class="cls-1"><g id="Capa_2" data-name="Capa 2"><g id="Layer_1" data-name="Layer 1"><path class="cls-2" d="M345.46.33s30.87-2.13,30.39,67.83,19.43,206-2.62,251.93-34.51,64.26-97.94,65.3c0,0-3.41-9.71-.53-32.53,0,0,53,2.39,51.5-62.65S283.63-.29,345.46.33Z"/><path class="cls-3" d="M321.27,50.19a3.77,3.77,0,0,1,4.6,0c1.82,1.35,4.09,4.37,4.08,11,0,7.93-5.73,43.66-9,63.22a1.36,1.36,0,0,1-2.7-.18l-1.93-46.94S314.55,55.43,321.27,50.19Z"/><path class="cls-4" d="M375.85,68.16C376.33-1.8,345.46.33,345.46.33c-7.9-.08-8.74-2-13.57,4.48,14.39,1.82,29.85,17,29.44,70.84-.52,67.86,19.34,199.83-2.74,244.37-19.28,38.89-39.1,57.53-84,62.29a22.81,22.81,0,0,0,.73,3.08c63.43-1,75.88-19.39,97.94-65.3S375.36,138.11,375.85,68.16Z"/><path class="cls-2" d="M136.58,80.67s-30.92-1.13-28.15,68.78S95.73,356,119.27,401.16s36.59,63.11,100,62.07c0,0,3.09-9.81-.53-32.53,0,0-52.92,4.12-53.52-60.94S198.36,78,136.58,80.67Z"/><path class="cls-2" d="M227.23,53.47a23.66,23.66,0,0,1,29.17-1.09c11.5,8.17,26.11,26.71,26.79,68.22,1.12,68.88-11.93,474.58-11.93,474.58l-49.2.8L200.21,222.35S186.83,87.78,227.23,53.47Z"/><path class="cls-2" d="M256.4,52.38a23.66,23.66,0,0,0-29.17,1.09c-7.69,6.53-13.42,16.71-17.68,28.89,6.64-9.54,19.84-10.1,26.08-7,15.3,7.51,19,37.67,19.67,79.19.93,56.79,7.95,342.31,4.87,440.84l11.09-.18s13.05-405.7,11.93-474.58C282.51,79.09,267.9,60.55,256.4,52.38Z"/><path class="cls-4" d="M225.38,55.18l-.15.14C251.08,49.15,265.17,77.64,266,127c1,63.89,5.63,417.32,4,468.17l1.28,0s13.05-405.7,11.93-474.58c-.65-39.58-14-58.28-25.16-67A25.12,25.12,0,0,0,225.38,55.18Z"/><path class="cls-3" d="M215.41,96.89a8,8,0,0,1,9.7-.13c3.89,2.79,8.79,9.07,9,23.07.27,16.74-10.5,92.33-16.61,133.73a2.87,2.87,0,0,1-5.71-.28l-5.79-99S201.43,108.18,215.41,96.89Z"/><path class="cls-4" d="M119.09,100.81c61.77-2.63,28.06,224,28.66,289.1.58,63.25,67.88,45.95,71.62,44.95-.18-1.34-.38-2.72-.61-4.16,0,0-52.92,4.12-53.52-60.94S198.36,78,136.58,80.67c0,0-14.3-.5-22.58,21.18A15.11,15.11,0,0,1,119.09,100.81Z"/><path class="cls-3" d="M254,84.61c4.22-4.54,8.73-8.76,13.3-12.9s9.28-8.14,14.25-11.84c-4.21,4.54-8.72,8.76-13.29,12.9S258.92,80.9,254,84.61Z"/><path class="cls-3" d="M237.68,128.83c4.21-4.54,8.72-8.76,13.29-12.9s9.29-8.14,14.25-11.84c-4.21,4.55-8.71,8.76-13.29,12.9S242.64,125.13,237.68,128.83Z"/><path class="cls-3" d="M266.72,130.47c4.21-4.54,8.72-8.76,13.29-12.9s9.28-8.13,14.25-11.83c-4.21,4.54-8.72,8.76-13.29,12.9S271.68,126.77,266.72,130.47Z"/><path class="cls-3" d="M198.31,64.74c4.35,4.41,8.37,9.09,12.31,13.85s7.72,9.62,11.2,14.75c-4.35-4.41-8.37-9.09-12.3-13.85S201.8,69.86,198.31,64.74Z"/><path class="cls-3" d="M186.14,103c4.35,4.41,8.37,9.09,12.31,13.84s7.72,9.63,11.2,14.76c-4.35-4.41-8.37-9.1-12.3-13.85S189.63,108.16,186.14,103Z"/><path class="cls-3" d="M216.31,35.39c4.35,4.41,8.37,9.09,12.31,13.85s7.72,9.62,11.2,14.75c-4.35-4.41-8.37-9.09-12.3-13.85S219.8,40.51,216.31,35.39Z"/><path class="cls-3" d="M250.05,176.82c4.21-4.54,8.72-8.76,13.29-12.9s9.29-8.13,14.25-11.84c-4.21,4.55-8.71,8.76-13.29,12.9S255,173.12,250.05,176.82Z"/><path class="cls-3" d="M233.77,221c4.22-4.54,8.72-8.76,13.3-12.9s9.28-8.13,14.25-11.83c-4.22,4.54-8.72,8.76-13.3,12.9S238.74,217.34,233.77,221Z"/><path class="cls-3" d="M273.71,219.44c2.22-5.78,4.82-11.38,7.52-16.93s5.58-11,8.8-16.3c-2.21,5.79-4.81,11.39-7.52,16.93S276.94,214.15,273.71,219.44Z"/><path class="cls-3" d="M194.4,157c4.36,4.41,8.38,9.1,12.31,13.85s7.72,9.63,11.21,14.75c-4.36-4.4-8.38-9.09-12.31-13.84S197.89,162.08,194.4,157Z"/><path class="cls-3" d="M182.23,195.25c4.36,4.41,8.38,9.09,12.31,13.85s7.72,9.62,11.21,14.75c-4.36-4.41-8.38-9.09-12.31-13.85S185.72,200.37,182.23,195.25Z"/><path class="cls-3" d="M212.4,127.6c4.36,4.41,8.38,9.1,12.31,13.85s7.72,9.63,11.21,14.75c-4.36-4.4-8.38-9.09-12.31-13.84S215.89,132.73,212.4,127.6Z"/><path class="cls-3" d="M266,271.6c2.76-5.54,5.88-10.87,9.1-16.13s6.59-10.44,10.31-15.39c-2.75,5.55-5.88,10.87-9.1,16.13S269.71,266.64,266,271.6Z"/><path class="cls-3" d="M237.79,319.49c4.21-4.54,8.72-8.76,13.3-12.9s9.28-8.14,14.25-11.84c-4.22,4.55-8.72,8.76-13.3,12.9S242.76,315.78,237.79,319.49Z"/><path class="cls-3" d="M272.12,313.64c4.21-4.54,8.72-8.76,13.29-12.9s9.29-8.13,14.25-11.84c-4.21,4.55-8.71,8.77-13.29,12.9S277.08,309.94,272.12,313.64Z"/><path class="cls-3" d="M194.81,271c4.35,4.41,8.37,9.1,12.31,13.85s7.72,9.63,11.2,14.75c-4.35-4.41-8.37-9.09-12.3-13.85S198.3,276.15,194.81,271Z"/><path class="cls-3" d="M190.3,314.79c4.35,4.41,8.37,9.09,12.31,13.85s7.72,9.62,11.2,14.75c-4.35-4.41-8.37-9.09-12.3-13.85S193.79,319.91,190.3,314.79Z"/><path class="cls-3" d="M240.77,245.59c-1.12,6.09-2.65,12.07-4.28,18s-3.45,11.85-5.65,17.64c1.11-6.09,2.64-12.07,4.27-18S238.57,251.38,240.77,245.59Z"/><path class="cls-3" d="M253.56,371.63c4.22-4.54,8.72-8.76,13.3-12.9s9.28-8.13,14.25-11.84c-4.21,4.55-8.72,8.77-13.3,12.9S258.53,367.93,253.56,371.63Z"/><path class="cls-3" d="M237.29,415.86c4.21-4.54,8.72-8.76,13.29-12.9s9.28-8.14,14.25-11.84c-4.21,4.54-8.72,8.76-13.29,12.9S242.25,412.15,237.29,415.86Z"/><path class="cls-3" d="M271.62,410c4.21-4.54,8.72-8.76,13.29-12.9s9.28-8.14,14.25-11.84c-4.21,4.54-8.72,8.76-13.29,12.9S276.58,406.3,271.62,410Z"/><path class="cls-3" d="M224.48,360.65c2,5.88,3.53,11.85,5,17.85s2.71,12,3.59,18.17c-2-5.87-3.53-11.84-5-17.84S225.36,366.79,224.48,360.65Z"/><path class="cls-3" d="M198.21,389.86c4.35,4.41,8.37,9.09,12.31,13.85s7.72,9.62,11.2,14.75c-4.35-4.41-8.37-9.09-12.31-13.85S201.69,395,198.21,389.86Z"/><path class="cls-3" d="M215.92,322.41c4.35,4.41,8.37,9.1,12.31,13.85s7.72,9.63,11.2,14.76c-4.35-4.41-8.37-9.1-12.31-13.85S219.4,327.54,215.92,322.41Z"/><path class="cls-3" d="M241.07,456.46c1.78-2,3.65-3.88,5.56-5.73s3.85-3.66,5.82-5.44,4-3.52,6-5.21,4.12-3.35,6.3-4.9c-1.78,2-3.65,3.88-5.56,5.73s-3.85,3.66-5.82,5.44-4,3.52-6,5.21S243.24,454.91,241.07,456.46Z"/><path class="cls-3" d="M270.61,451.43c1.78-2,3.65-3.88,5.56-5.73S280,442,282,440.26s4-3.52,6-5.21,4.12-3.35,6.3-4.91c-1.78,2-3.65,3.89-5.56,5.74s-3.85,3.66-5.82,5.44-4,3.51-6,5.2S272.78,449.88,270.61,451.43Z"/><path class="cls-3" d="M200.2,452.42c1.92,1.86,3.72,3.82,5.49,5.8s3.48,4,5.18,6,3.34,4.13,4.94,6.25,3.17,4.27,4.63,6.51c-1.92-1.86-3.73-3.81-5.49-5.8s-3.49-4-5.18-6.05-3.34-4.13-4.94-6.25S201.66,454.66,200.2,452.42Z"/><path class="cls-3" d="M254.64,501.34c1.78-2,3.65-3.89,5.56-5.74s3.85-3.65,5.82-5.44,4-3.51,6-5.2,4.13-3.36,6.3-4.91c-1.78,2-3.65,3.88-5.55,5.74s-3.86,3.65-5.83,5.43-4,3.52-6,5.21S256.82,499.78,254.64,501.34Z"/><path class="cls-3" d="M240.64,539.4c1.78-2,3.65-3.89,5.55-5.74s3.86-3.66,5.82-5.44,4-3.52,6-5.21,4.13-3.35,6.3-4.9c-1.77,2-3.65,3.88-5.55,5.73s-3.86,3.66-5.82,5.44-4,3.52-6,5.21S242.81,537.84,240.64,539.4Z"/><path class="cls-3" d="M270.18,534.36c1.78-2,3.65-3.88,5.56-5.73s3.85-3.66,5.82-5.44,4-3.52,6-5.21,4.12-3.35,6.3-4.91c-1.78,2-3.65,3.89-5.56,5.74s-3.85,3.66-5.82,5.44-4,3.52-6,5.2S272.35,532.81,270.18,534.36Z"/><path class="cls-3" d="M229.62,491.89c.9,2.51,1.67,5.06,2.38,7.62s1.37,5.13,2,7.71,1.19,5.18,1.69,7.79,1,5.23,1.3,7.88c-.9-2.52-1.67-5.06-2.38-7.62s-1.37-5.14-2-7.72-1.18-5.17-1.69-7.78S230,494.54,229.62,491.89Z"/><path class="cls-3" d="M207,517c1.91,1.87,3.72,3.82,5.49,5.8s3.48,4,5.18,6.06,3.34,4.13,4.93,6.25,3.17,4.27,4.63,6.51c-1.91-1.87-3.72-3.82-5.49-5.8s-3.48-4-5.18-6.06-3.33-4.13-4.93-6.25S208.47,519.26,207,517Z"/><path class="cls-3" d="M222.25,459c1.91,1.86,3.72,3.82,5.49,5.8s3.48,4,5.18,6.05,3.34,4.13,4.94,6.26,3.17,4.26,4.62,6.5c-1.91-1.86-3.72-3.81-5.49-5.79s-3.48-4-5.18-6.06-3.33-4.13-4.93-6.25S223.71,461.22,222.25,459Z"/><path class="cls-3" d="M342,183.06c1.78-2,3.65-3.88,5.56-5.73s3.85-3.66,5.82-5.44,4-3.52,6-5.21,4.13-3.36,6.3-4.91c-1.78,2-3.65,3.89-5.55,5.74s-3.86,3.65-5.83,5.44-4,3.51-6,5.2S344.22,181.51,342,183.06Z"/><path class="cls-3" d="M371.59,178c1.77-2,3.65-3.88,5.55-5.74s3.86-3.65,5.82-5.44,4-3.51,6-5.2,4.13-3.36,6.3-4.91c-1.77,2-3.65,3.88-5.55,5.74s-3.86,3.65-5.82,5.44-4,3.51-6,5.2S373.76,176.47,371.59,178Z"/><path class="cls-3" d="M301.18,179c1.91,1.86,3.72,3.81,5.48,5.8s3.49,4,5.18,6.05,3.34,4.13,4.94,6.25,3.17,4.27,4.63,6.51c-1.92-1.86-3.72-3.82-5.49-5.8s-3.48-4-5.18-6.05-3.34-4.13-4.93-6.26S302.63,181.25,301.18,179Z"/><path class="cls-3" d="M355.62,227.93c1.78-2,3.65-3.88,5.55-5.73s3.86-3.66,5.82-5.44,4-3.52,6-5.21,4.12-3.35,6.29-4.91c-1.77,2-3.64,3.89-5.55,5.74s-3.85,3.66-5.82,5.44-4,3.52-6,5.21S357.79,226.38,355.62,227.93Z"/><path class="cls-3" d="M341.61,266c1.78-2,3.65-3.88,5.56-5.73s3.85-3.66,5.82-5.44,4-3.52,6-5.21,4.12-3.35,6.3-4.91c-1.78,2-3.65,3.89-5.56,5.74s-3.85,3.66-5.82,5.44-4,3.51-6,5.2S343.78,264.44,341.61,266Z"/><path class="cls-3" d="M371.15,261c1.78-2,3.65-3.88,5.56-5.74s3.85-3.65,5.82-5.44,4-3.51,6-5.2,4.13-3.36,6.3-4.91c-1.78,2-3.65,3.89-5.55,5.74s-3.86,3.65-5.83,5.44-4,3.51-6,5.2S373.33,259.41,371.15,261Z"/><path class="cls-3" d="M330.59,218.49c.9,2.51,1.67,5.06,2.39,7.62s1.37,5.13,2,7.71,1.19,5.18,1.69,7.79,1,5.22,1.31,7.87c-.91-2.51-1.67-5.06-2.39-7.62s-1.37-5.13-2-7.71-1.18-5.18-1.68-7.79S330.92,221.14,330.59,218.49Z"/><path class="cls-3" d="M308,243.62c1.92,1.86,3.72,3.82,5.49,5.8s3.48,4,5.18,6.05,3.34,4.13,4.94,6.25,3.17,4.27,4.63,6.51c-1.92-1.86-3.73-3.81-5.49-5.8s-3.49-4-5.18-6.05-3.34-4.13-4.94-6.26S309.44,245.86,308,243.62Z"/><path class="cls-3" d="M323.22,185.58c1.92,1.86,3.72,3.81,5.49,5.8s3.48,4,5.18,6.05,3.34,4.13,4.94,6.25,3.17,4.27,4.63,6.51c-1.92-1.86-3.73-3.81-5.49-5.8s-3.49-4-5.18-6-3.34-4.13-4.94-6.26S324.68,187.82,323.22,185.58Z"/><path class="cls-3" d="M340.13,76.51c1.78-2,3.65-3.89,5.55-5.74s3.86-3.65,5.83-5.44,4-3.51,6-5.2,4.12-3.36,6.3-4.91c-1.78,2-3.65,3.88-5.56,5.74s-3.85,3.65-5.82,5.43-4,3.52-6,5.21S342.3,75,340.13,76.51Z"/><path class="cls-3" d="M369.67,71.47c1.78-2,3.65-3.88,5.56-5.73s3.85-3.66,5.82-5.44,4-3.52,6-5.21,4.12-3.35,6.3-4.9c-1.78,2-3.65,3.88-5.56,5.73S384,59.58,382,61.36s-4,3.52-6,5.21S371.84,69.92,369.67,71.47Z"/><path class="cls-3" d="M299.26,72.46c1.92,1.87,3.72,3.82,5.49,5.8s3.48,4,5.18,6,3.34,4.13,4.94,6.26,3.17,4.26,4.63,6.5c-1.92-1.86-3.73-3.81-5.49-5.79s-3.49-4-5.18-6.06-3.34-4.13-4.94-6.25S300.72,74.7,299.26,72.46Z"/><path class="cls-3" d="M353.7,121.38c1.78-2,3.65-3.88,5.56-5.74s3.85-3.65,5.82-5.44,4-3.51,6-5.2,4.13-3.36,6.3-4.91c-1.78,2-3.65,3.89-5.55,5.74s-3.86,3.65-5.83,5.44-4,3.51-6,5.2S355.88,119.83,353.7,121.38Z"/><path class="cls-3" d="M339.7,159.44c1.78-2,3.65-3.88,5.55-5.74s3.86-3.65,5.82-5.44,4-3.51,6-5.2,4.13-3.36,6.3-4.91c-1.77,2-3.65,3.88-5.55,5.74s-3.86,3.65-5.82,5.44-4,3.51-6,5.2S341.87,157.88,339.7,159.44Z"/><path class="cls-3" d="M369.24,154.41c1.78-2,3.65-3.89,5.56-5.74s3.85-3.65,5.82-5.44,4-3.52,6-5.21,4.12-3.35,6.3-4.9c-1.78,2-3.65,3.88-5.56,5.73s-3.85,3.66-5.82,5.44-4,3.52-6,5.21S371.41,152.85,369.24,154.41Z"/><path class="cls-3" d="M328.68,111.93c.9,2.52,1.67,5.06,2.38,7.62s1.37,5.14,2,7.72,1.19,5.17,1.69,7.78,1,5.23,1.3,7.88c-.9-2.51-1.67-5.06-2.38-7.62s-1.37-5.13-2-7.71-1.18-5.18-1.69-7.79S329,114.58,328.68,111.93Z"/><path class="cls-3" d="M306.07,137.07c1.91,1.86,3.72,3.81,5.49,5.8s3.48,4,5.18,6,3.34,4.13,4.93,6.25,3.17,4.27,4.63,6.51c-1.91-1.86-3.72-3.82-5.49-5.8s-3.48-4-5.18-6-3.33-4.14-4.93-6.26S307.53,139.3,306.07,137.07Z"/><path class="cls-3" d="M321.31,79c1.91,1.87,3.72,3.82,5.49,5.8s3.48,4,5.18,6.06,3.34,4.13,4.93,6.25,3.18,4.27,4.63,6.51c-1.91-1.86-3.72-3.82-5.49-5.8s-3.48-4-5.18-6.06-3.33-4.13-4.93-6.25S322.77,81.26,321.31,79Z"/><path class="cls-3" d="M134.3,108.86c1.78-2,3.65-3.89,5.55-5.74s3.86-3.65,5.82-5.44,4-3.51,6-5.2,4.13-3.36,6.3-4.91c-1.77,2-3.65,3.88-5.55,5.74s-3.86,3.65-5.82,5.43-4,3.52-6,5.21S136.47,107.3,134.3,108.86Z"/><path class="cls-3" d="M163.84,103.82c1.78-2,3.65-3.88,5.56-5.73s3.85-3.66,5.82-5.44,4-3.52,6-5.21,4.12-3.35,6.3-4.9c-1.78,2-3.65,3.88-5.56,5.73s-3.85,3.66-5.82,5.44-4,3.52-6,5.21S166,102.27,163.84,103.82Z"/><path class="cls-3" d="M93.43,104.81c1.91,1.87,3.72,3.82,5.49,5.8s3.48,4,5.18,6.06,3.34,4.12,4.94,6.25,3.17,4.27,4.62,6.51c-1.91-1.87-3.72-3.82-5.49-5.8s-3.48-4-5.17-6.06-3.34-4.13-4.94-6.25S94.89,107.05,93.43,104.81Z"/><path class="cls-3" d="M147.87,153.73c1.78-2,3.65-3.88,5.56-5.73s3.85-3.66,5.82-5.45,4-3.51,6-5.2,4.12-3.36,6.3-4.91c-1.78,2-3.65,3.89-5.56,5.74s-3.85,3.65-5.82,5.44-4,3.51-6,5.2S150.05,152.18,147.87,153.73Z"/><path class="cls-3" d="M133.87,191.79c1.77-2,3.65-3.88,5.55-5.74s3.86-3.65,5.82-5.44,4-3.51,6-5.2,4.13-3.36,6.3-4.91c-1.78,2-3.65,3.88-5.55,5.74s-3.86,3.65-5.82,5.44-4,3.51-6,5.2S136,190.23,133.87,191.79Z"/><path class="cls-3" d="M163.41,186.76c1.78-2,3.65-3.89,5.55-5.74s3.86-3.65,5.82-5.44,4-3.52,6-5.21,4.13-3.35,6.3-4.9c-1.77,2-3.64,3.88-5.55,5.73s-3.86,3.66-5.82,5.44-4,3.52-6,5.21S165.58,185.2,163.41,186.76Z"/><path class="cls-3" d="M122.85,144.28c.9,2.52,1.66,5.06,2.38,7.62s1.37,5.14,2,7.72,1.18,5.17,1.69,7.78,1,5.23,1.3,7.88c-.9-2.51-1.67-5.06-2.39-7.62s-1.37-5.13-2-7.71-1.19-5.18-1.69-7.79S123.17,146.93,122.85,144.28Z"/><path class="cls-3" d="M100.24,169.42c1.91,1.86,3.72,3.81,5.48,5.8s3.49,4,5.18,6.05,3.34,4.13,4.94,6.25,3.17,4.27,4.63,6.51c-1.92-1.86-3.72-3.82-5.49-5.8s-3.48-4-5.18-6-3.34-4.14-4.93-6.26S101.69,171.65,100.24,169.42Z"/><path class="cls-3" d="M115.48,111.37c1.91,1.87,3.72,3.82,5.48,5.8s3.49,4,5.19,6.06,3.33,4.13,4.93,6.25,3.17,4.27,4.63,6.51c-1.92-1.86-3.72-3.82-5.49-5.8s-3.48-4-5.18-6.06-3.34-4.13-4.93-6.25S116.93,113.61,115.48,111.37Z"/><path class="cls-3" d="M130.08,225.4c1.78-2,3.65-3.88,5.55-5.73s3.86-3.66,5.82-5.45,4-3.51,6-5.2,4.12-3.36,6.29-4.91c-1.77,2-3.64,3.89-5.55,5.74s-3.85,3.65-5.82,5.44-4,3.51-6,5.2S132.25,223.85,130.08,225.4Z"/><path class="cls-3" d="M159.62,220.37c1.78-2,3.65-3.88,5.56-5.74S169,211,171,209.19s4-3.51,6-5.2,4.12-3.36,6.3-4.91c-1.78,2-3.65,3.88-5.56,5.74s-3.85,3.65-5.82,5.43-4,3.52-6,5.21S161.79,218.81,159.62,220.37Z"/><path class="cls-3" d="M89.21,221.36c1.92,1.86,3.72,3.81,5.49,5.8s3.48,4,5.18,6.05,3.34,4.13,4.94,6.25,3.17,4.27,4.62,6.51c-1.91-1.86-3.72-3.82-5.48-5.8s-3.49-4-5.18-6.06-3.34-4.13-4.94-6.25S90.67,223.59,89.21,221.36Z"/><path class="cls-3" d="M143.65,270.27c1.78-2,3.65-3.88,5.56-5.73s3.85-3.66,5.82-5.44,4-3.52,6-5.21,4.12-3.35,6.3-4.91c-1.78,2-3.65,3.89-5.56,5.74s-3.85,3.66-5.82,5.44-4,3.52-6,5.2S145.83,268.72,143.65,270.27Z"/><path class="cls-3" d="M129.65,308.33c1.77-2,3.65-3.88,5.55-5.73s3.86-3.66,5.82-5.44,4-3.52,6-5.21,4.13-3.35,6.3-4.91c-1.77,2-3.65,3.89-5.55,5.74s-3.86,3.66-5.82,5.44-4,3.51-6,5.2S131.82,306.78,129.65,308.33Z"/><path class="cls-3" d="M159.19,303.3c1.78-2,3.65-3.88,5.55-5.74s3.86-3.65,5.82-5.44,4-3.51,6-5.2,4.12-3.36,6.29-4.91c-1.77,2-3.64,3.89-5.55,5.74s-3.85,3.65-5.82,5.44-4,3.51-6,5.2S161.36,301.75,159.19,303.3Z"/><path class="cls-3" d="M118.63,260.83c.9,2.51,1.66,5.06,2.38,7.62s1.37,5.13,2,7.71,1.19,5.18,1.69,7.78,1,5.23,1.3,7.88c-.9-2.51-1.67-5.06-2.39-7.62s-1.36-5.13-2-7.71-1.19-5.18-1.69-7.79S119,263.48,118.63,260.83Z"/><path class="cls-3" d="M96,286c1.91,1.86,3.72,3.81,5.48,5.8s3.49,4,5.18,6.05,3.34,4.13,4.94,6.25,3.17,4.27,4.63,6.51c-1.92-1.86-3.72-3.81-5.49-5.8s-3.48-4-5.18-6-3.34-4.13-4.93-6.26S97.47,288.2,96,286Z"/><path class="cls-3" d="M111.26,227.92c1.91,1.86,3.72,3.81,5.48,5.8s3.49,4,5.19,6.05,3.34,4.13,4.93,6.25,3.17,4.27,4.63,6.51c-1.91-1.86-3.72-3.81-5.49-5.8s-3.48-4-5.18-6-3.33-4.13-4.93-6.26S112.72,230.16,111.26,227.92Z"/><path class="cls-3" d="M135.72,338.27c1.78-2,3.65-3.89,5.56-5.74s3.85-3.65,5.82-5.44,4-3.52,6-5.21,4.12-3.35,6.3-4.9c-1.78,2-3.65,3.88-5.56,5.73s-3.85,3.66-5.82,5.44-4,3.52-6,5.21S137.9,336.71,135.72,338.27Z"/><path class="cls-3" d="M165.27,333.23c1.77-2,3.65-3.88,5.55-5.73s3.86-3.66,5.82-5.44,4-3.52,6-5.21,4.13-3.35,6.3-4.91c-1.78,2-3.65,3.89-5.55,5.74s-3.86,3.66-5.82,5.44-4,3.52-6,5.2S167.44,331.68,165.27,333.23Z"/><path class="cls-3" d="M94.86,334.22c1.91,1.86,3.72,3.82,5.48,5.8s3.49,4,5.18,6.05,3.34,4.13,4.94,6.26,3.17,4.26,4.63,6.5c-1.92-1.86-3.72-3.81-5.49-5.8s-3.48-4-5.18-6-3.34-4.13-4.93-6.25S96.31,336.46,94.86,334.22Z"/><path class="cls-3" d="M149.3,383.14c1.78-2,3.65-3.88,5.55-5.74s3.86-3.65,5.82-5.44,4-3.51,6-5.2,4.13-3.36,6.3-4.91c-1.77,2-3.64,3.89-5.55,5.74s-3.85,3.65-5.82,5.44-4,3.51-6,5.2S151.47,381.59,149.3,383.14Z"/><path class="cls-3" d="M109.3,412.41c2.64.45,5.23,1,7.81,1.67s5.14,1.33,7.7,2.06,5.09,1.51,7.61,2.35,5,1.73,7.5,2.75c-2.64-.45-5.23-1-7.81-1.67s-5.14-1.34-7.7-2.06-5.09-1.52-7.61-2.36S111.77,413.43,109.3,412.41Z"/><path class="cls-3" d="M164.83,416.17c1.78-2,3.65-3.89,5.56-5.74s3.85-3.66,5.82-5.44,4-3.52,6-5.21,4.13-3.35,6.3-4.9c-1.78,2-3.65,3.88-5.55,5.73s-3.86,3.66-5.83,5.44-4,3.52-6,5.21S167,414.61,164.83,416.17Z"/><path class="cls-3" d="M124.27,373.69c.9,2.52,1.67,5.06,2.39,7.62s1.37,5.14,2,7.72,1.19,5.17,1.69,7.78,1,5.23,1.31,7.88c-.91-2.52-1.67-5.06-2.39-7.62s-1.37-5.13-2-7.71-1.18-5.18-1.68-7.79S124.6,376.34,124.27,373.69Z"/><path class="cls-3" d="M128.17,441.71c2.55-.81,5.12-1.47,7.71-2.09s5.18-1.16,7.78-1.69,5.22-1,7.85-1.39,5.26-.77,7.92-1c-2.55.81-5.12,1.47-7.71,2.09s-5.18,1.16-7.78,1.69-5.22,1-7.85,1.38S130.83,441.48,128.17,441.71Z"/><path class="cls-3" d="M116.9,340.78c1.92,1.87,3.72,3.82,5.49,5.8s3.48,4,5.18,6.06,3.34,4.13,4.94,6.25,3.17,4.27,4.63,6.51c-1.92-1.87-3.73-3.82-5.49-5.8s-3.49-4-5.18-6.06-3.34-4.13-4.94-6.25S118.36,343,116.9,340.78Z"/><path class="cls-2" d="M417.71,364s14.35-1,14.12,31.51,9,95.72-1.22,117-16,29.86-45.5,30.34c0,0-1.58-4.51-.25-15.11,0,0,24.64,1.11,23.93-29.11S389,363.71,417.71,364Z"/><path class="cls-3" d="M406.47,387.17a1.76,1.76,0,0,1,2.14,0c.84.62,1.9,2,1.9,5.11,0,3.69-2.67,20.29-4.17,29.38a.63.63,0,0,1-1.25-.09l-.9-21.81S403.35,389.6,406.47,387.17Z"/><path class="cls-4" d="M431.83,395.51C432.06,363,417.71,364,417.71,364c-3.67,0-4.06-.93-6.3,2.08,6.69.85,13.87,7.89,13.68,32.92-.24,31.52,9,92.84-1.28,113.53-8.95,18.07-18.16,26.73-39,28.94a10.94,10.94,0,0,0,.34,1.43c29.47-.48,35.26-9,45.5-30.34S431.61,428,431.83,395.51Z"/><path class="cls-2" d="M320.67,416.68s-14.37-.52-13.09,32-5.89,96,5,116.94,17,29.32,46.47,28.84c0,0,1.44-4.56-.24-15.11,0,0-24.59,1.91-24.87-28.31S349.37,415.46,320.67,416.68Z"/><path class="cls-2" d="M362.78,379.4a11,11,0,0,1,13.56-.51c5.34,3.8,12.13,12.41,12.44,31.7.52,32-5.54,220.49-5.54,220.49l-22.86.37L350.23,457.86S344,395.34,362.78,379.4Z"/><path class="cls-2" d="M376.34,378.89a11,11,0,0,0-13.56.51c-3.57,3-6.24,7.76-8.21,13.42,3.08-4.43,9.21-4.69,12.12-3.27,7.1,3.49,8.82,17.51,9.13,36.8.43,26.38,3.7,159,2.27,204.81l5.15-.08s6.06-188.49,5.54-220.49C388.47,391.3,381.68,382.69,376.34,378.89Z"/><path class="cls-4" d="M361.92,380.19l-.07.07c12-2.87,18.56,10.37,18.93,33.32.49,29.68,2.62,193.89,1.86,217.51h.6s6.06-188.49,5.54-220.49c-.3-18.39-6.48-27.08-11.69-31.14A11.67,11.67,0,0,0,361.92,380.19Z"/><path class="cls-3" d="M357.29,399.57a3.71,3.71,0,0,1,4.51-.06c1.8,1.3,4.08,4.22,4.19,10.72.12,7.78-4.88,42.9-7.72,62.13a1.33,1.33,0,0,1-2.65-.13l-2.69-46S350.8,404.82,357.29,399.57Z"/><path class="cls-4" d="M312.54,426c28.7-1.22,13,104.09,13.31,134.32.27,29.39,31.54,21.35,33.28,20.88-.08-.62-.18-1.26-.28-1.93,0,0-24.59,1.91-24.87-28.31s15.39-135.54-13.31-134.32c0,0-6.65-.23-10.5,9.84A7,7,0,0,1,312.54,426Z"/><path class="cls-3" d="M375.2,393.87a32,32,0,0,1,2.83-3.29c1-1,2-2,3.09-3s2.16-1.89,3.3-2.76a33.31,33.31,0,0,1,3.58-2.46,33.1,33.1,0,0,1-2.83,3.29c-1,1-2,2-3.1,3s-2.16,1.88-3.3,2.76A35.81,35.81,0,0,1,375.2,393.87Z"/><path class="cls-3" d="M367.64,414.41a33.07,33.07,0,0,1,2.82-3.28c1-1.05,2-2,3.1-3s2.16-1.88,3.3-2.75a34.2,34.2,0,0,1,3.57-2.46,33,33,0,0,1-2.82,3.29c-1,1-2,2-3.1,3s-2.16,1.88-3.3,2.75A34.2,34.2,0,0,1,367.64,414.41Z"/><path class="cls-3" d="M381.13,415.18a32,32,0,0,1,2.83-3.29c1-1,2-2,3.09-3s2.16-1.89,3.3-2.76a33.31,33.31,0,0,1,3.58-2.46A33.1,33.1,0,0,1,391.1,407c-1,1-2,2-3.1,3s-2.16,1.88-3.3,2.76A35.81,35.81,0,0,1,381.13,415.18Z"/><path class="cls-3" d="M349.35,384.63a35.56,35.56,0,0,1,3.16,3c1,1,1.93,2.13,2.85,3.23s1.79,2.24,2.61,3.42a32.8,32.8,0,0,1,2.3,3.67,31.78,31.78,0,0,1-3.16-3c-1-1-1.93-2.12-2.85-3.22s-1.79-2.24-2.61-3.42A32,32,0,0,1,349.35,384.63Z"/><path class="cls-3" d="M343.69,402.43a33,33,0,0,1,3.16,3c1,1,1.93,2.12,2.86,3.22s1.78,2.24,2.61,3.42a35.07,35.07,0,0,1,2.3,3.68,34.35,34.35,0,0,1-3.17-3c-1-1-1.93-2.13-2.85-3.22s-1.78-2.25-2.61-3.43A32.8,32.8,0,0,1,343.69,402.43Z"/><path class="cls-3" d="M357.71,371a33,33,0,0,1,3.16,3c1,1,1.93,2.12,2.85,3.22s1.79,2.24,2.61,3.42a32,32,0,0,1,2.3,3.68,33,33,0,0,1-3.16-3c-1-1-1.93-2.12-2.85-3.22s-1.79-2.25-2.61-3.43A32.8,32.8,0,0,1,357.71,371Z"/><path class="cls-3" d="M373.38,436.71a34.47,34.47,0,0,1,2.83-3.29c1-1,2-2,3.1-3s2.16-1.88,3.3-2.76a32.65,32.65,0,0,1,3.57-2.45,33,33,0,0,1-2.83,3.28c-1,1.05-2,2-3.09,3s-2.16,1.89-3.31,2.76A32.21,32.21,0,0,1,373.38,436.71Z"/><path class="cls-3" d="M365.82,457.26a32,32,0,0,1,2.83-3.29c1-1,2-2,3.09-3s2.17-1.89,3.31-2.76a32.21,32.21,0,0,1,3.57-2.46,33.1,33.1,0,0,1-2.83,3.29c-1,1-2,2-3.09,3s-2.17,1.88-3.31,2.76A33.63,33.63,0,0,1,365.82,457.26Z"/><path class="cls-3" d="M384.38,456.51a31.41,31.41,0,0,1,1.4-4.1c.53-1.34,1.13-2.64,1.75-3.93s1.3-2.56,2-3.79a32.32,32.32,0,0,1,2.39-3.62,33.65,33.65,0,0,1-1.39,4.11c-.53,1.33-1.14,2.63-1.76,3.93s-1.3,2.55-2,3.79A31.31,31.31,0,0,1,384.38,456.51Z"/><path class="cls-3" d="M347.53,427.48a33,33,0,0,1,3.16,3c1,1,1.93,2.12,2.85,3.22s1.79,2.24,2.61,3.42a32,32,0,0,1,2.3,3.68,33,33,0,0,1-3.16-3c-1-1-1.93-2.13-2.85-3.22s-1.78-2.25-2.61-3.43A32.8,32.8,0,0,1,347.53,427.48Z"/><path class="cls-3" d="M341.88,445.27a33,33,0,0,1,3.16,3c1,1,1.93,2.12,2.85,3.22s1.79,2.24,2.61,3.42a32.94,32.94,0,0,1,2.3,3.68,33,33,0,0,1-3.16-3c-1-1-1.93-2.12-2.85-3.22s-1.79-2.24-2.61-3.42A32.94,32.94,0,0,1,341.88,445.27Z"/><path class="cls-3" d="M355.89,413.84a33,33,0,0,1,3.16,3c1,1,1.94,2.12,2.86,3.22s1.78,2.24,2.61,3.42a32.94,32.94,0,0,1,2.3,3.68,33,33,0,0,1-3.16-3c-1-1-1.94-2.12-2.86-3.22s-1.78-2.24-2.6-3.42A34.54,34.54,0,0,1,355.89,413.84Z"/><path class="cls-3" d="M380.79,480.75a33.65,33.65,0,0,1,1.78-4c.66-1.28,1.38-2.51,2.12-3.74s1.54-2.42,2.39-3.58a31.18,31.18,0,0,1,2.73-3.37,33.5,33.5,0,0,1-1.78,3.95c-.66,1.28-1.38,2.52-2.12,3.75s-1.54,2.41-2.39,3.58A34.68,34.68,0,0,1,380.79,480.75Z"/><path class="cls-3" d="M367.69,503a33,33,0,0,1,2.83-3.28c1-1,2-2,3.09-3s2.16-1.89,3.3-2.76a33.31,33.31,0,0,1,3.58-2.46,33.1,33.1,0,0,1-2.83,3.29c-1,1-2,2-3.1,3s-2.16,1.88-3.3,2.75A32.74,32.74,0,0,1,367.69,503Z"/><path class="cls-3" d="M383.64,500.28a33.1,33.1,0,0,1,2.83-3.29c1-1,2-2,3.09-3s2.16-1.88,3.3-2.76a33.31,33.31,0,0,1,3.58-2.46,33.29,33.29,0,0,1-2.83,3.29c-1,1-2,2-3.1,3s-2.16,1.88-3.3,2.76A34.2,34.2,0,0,1,383.64,500.28Z"/><path class="cls-3" d="M347.72,480.48a33,33,0,0,1,3.16,3c1,1,1.93,2.12,2.85,3.22s1.79,2.24,2.61,3.42a32.94,32.94,0,0,1,2.3,3.68,33,33,0,0,1-3.16-3c-1-1-1.93-2.12-2.85-3.22s-1.79-2.25-2.61-3.43A32.8,32.8,0,0,1,347.72,480.48Z"/><path class="cls-3" d="M345.62,500.81a33,33,0,0,1,3.16,3c1,1,1.94,2.12,2.86,3.22s1.79,2.24,2.61,3.42a32.94,32.94,0,0,1,2.3,3.68,33,33,0,0,1-3.16-3c-1-1-1.93-2.12-2.85-3.22s-1.79-2.25-2.61-3.43A33.42,33.42,0,0,1,345.62,500.81Z"/><path class="cls-3" d="M369.07,468.66a32.12,32.12,0,0,1-.62,4.29c-.27,1.41-.63,2.8-1,4.19s-.81,2.75-1.3,4.1a33.82,33.82,0,0,1-1.69,4,33.82,33.82,0,0,1,.61-4.29c.28-1.41.63-2.8,1-4.19s.81-2.75,1.3-4.1A33.82,33.82,0,0,1,369.07,468.66Z"/><path class="cls-3" d="M375,527.22a33.1,33.1,0,0,1,2.83-3.29c1-1,2-2,3.09-3s2.16-1.88,3.3-2.75a32.74,32.74,0,0,1,3.57-2.46A31.8,31.8,0,0,1,385,519c-1,1-2,2-3.1,3s-2.16,1.89-3.3,2.76A34.2,34.2,0,0,1,375,527.22Z"/><path class="cls-3" d="M367.45,547.77a34.47,34.47,0,0,1,2.83-3.29c1-1,2-2,3.1-3s2.16-1.88,3.3-2.76a34.2,34.2,0,0,1,3.57-2.46,33.2,33.2,0,0,1-2.82,3.29c-1,1-2,2-3.1,3s-2.16,1.88-3.3,2.76A33.31,33.31,0,0,1,367.45,547.77Z"/><path class="cls-3" d="M383.4,545.05a34.47,34.47,0,0,1,2.83-3.29c1-1,2-2,3.1-3s2.16-1.88,3.3-2.76a32.65,32.65,0,0,1,3.57-2.45,31.89,31.89,0,0,1-2.83,3.28c-1,1-2,2-3.09,3s-2.16,1.89-3.31,2.76A32.21,32.21,0,0,1,383.4,545.05Z"/><path class="cls-3" d="M361.51,522.12a32.6,32.6,0,0,1,1.53,4c.44,1.37.81,2.76,1.15,4.15s.62,2.8.84,4.22a34.21,34.21,0,0,1,.46,4.31A32.07,32.07,0,0,1,364,534.8c-.44-1.37-.8-2.76-1.15-4.15s-.62-2.8-.84-4.22A32.45,32.45,0,0,1,361.51,522.12Z"/><path class="cls-3" d="M349.3,535.69a33,33,0,0,1,3.16,3c1,1,1.93,2.12,2.85,3.22s1.79,2.24,2.61,3.42a32,32,0,0,1,2.3,3.68,33,33,0,0,1-3.16-3c-1-1-1.93-2.13-2.85-3.22s-1.79-2.25-2.61-3.43A32.8,32.8,0,0,1,349.3,535.69Z"/><path class="cls-3" d="M357.53,504.35a33,33,0,0,1,3.16,3c1,1,1.93,2.13,2.85,3.22s1.79,2.25,2.61,3.42a32.94,32.94,0,0,1,2.3,3.68,33,33,0,0,1-3.16-3c-1-1-1.93-2.12-2.85-3.22s-1.79-2.24-2.61-3.42A32.94,32.94,0,0,1,357.53,504.35Z"/><path class="cls-3" d="M369.21,566.63a25.64,25.64,0,0,1,2.38-2.88c.85-.9,1.73-1.77,2.65-2.59s1.87-1.61,2.86-2.36a24.87,24.87,0,0,1,3.13-2.06,24.89,24.89,0,0,1-2.38,2.89c-.85.9-1.73,1.77-2.65,2.59s-1.88,1.61-2.86,2.35A23.82,23.82,0,0,1,369.21,566.63Z"/><path class="cls-3" d="M382.94,564.3a23.91,23.91,0,0,1,2.38-2.89c.85-.9,1.73-1.77,2.65-2.59s1.87-1.61,2.86-2.36A25.9,25.9,0,0,1,394,554.4a23.91,23.91,0,0,1-2.38,2.89c-.85.9-1.73,1.77-2.65,2.59s-1.87,1.61-2.86,2.36A26.72,26.72,0,0,1,382.94,564.3Z"/><path class="cls-3" d="M350.22,564.75a23.86,23.86,0,0,1,2.78,2.51c.87.89,1.69,1.8,2.48,2.76s1.52,1.94,2.23,3a25.69,25.69,0,0,1,1.92,3.21,23.87,23.87,0,0,1-2.79-2.51c-.86-.88-1.69-1.8-2.47-2.75s-1.52-1.95-2.22-3A24.71,24.71,0,0,1,350.22,564.75Z"/><path class="cls-3" d="M375.52,587.48a24.6,24.6,0,0,1,2.38-2.88c.85-.91,1.73-1.77,2.65-2.6s1.87-1.6,2.86-2.35a23.71,23.71,0,0,1,3.12-2.06,23.91,23.91,0,0,1-2.38,2.89c-.85.9-1.73,1.77-2.65,2.59s-1.87,1.61-2.86,2.35A23.71,23.71,0,0,1,375.52,587.48Z"/><path class="cls-3" d="M369,605.16a25.64,25.64,0,0,1,2.38-2.88c.85-.9,1.73-1.77,2.65-2.59s1.87-1.61,2.86-2.36a24.87,24.87,0,0,1,3.13-2.06,24,24,0,0,1-2.39,2.89c-.84.9-1.72,1.77-2.64,2.59s-1.88,1.61-2.86,2.35A23.82,23.82,0,0,1,369,605.16Z"/><path class="cls-3" d="M382.74,602.83a23.91,23.91,0,0,1,2.38-2.89c.85-.9,1.73-1.77,2.65-2.59s1.87-1.61,2.85-2.36a26,26,0,0,1,3.13-2.06,23.91,23.91,0,0,1-2.38,2.89c-.85.9-1.73,1.77-2.65,2.59s-1.87,1.61-2.86,2.36A26.72,26.72,0,0,1,382.74,602.83Z"/><path class="cls-3" d="M363.89,583.09a25.69,25.69,0,0,1,1.4,3.47c.39,1.18.73,2.37,1,3.57s.52,2.41.7,3.63a24.28,24.28,0,0,1,.32,3.73,24,24,0,0,1-1.4-3.47c-.39-1.17-.73-2.36-1-3.56s-.52-2.41-.7-3.64A24.17,24.17,0,0,1,363.89,583.09Z"/><path class="cls-3" d="M353.39,594.77a24.61,24.61,0,0,1,2.78,2.51c.86.88,1.69,1.8,2.47,2.75s1.52,1.94,2.23,3a25.69,25.69,0,0,1,1.92,3.21,22.92,22.92,0,0,1-2.78-2.5c-.87-.89-1.69-1.8-2.47-2.76s-1.53-1.94-2.23-3A24.54,24.54,0,0,1,353.39,594.77Z"/><path class="cls-3" d="M360.47,567.8a25.6,25.6,0,0,1,2.78,2.51c.86.89,1.69,1.8,2.47,2.76s1.53,1.94,2.23,3a25,25,0,0,1,1.92,3.21,24.7,24.7,0,0,1-2.78-2.51c-.87-.88-1.69-1.8-2.47-2.76s-1.53-1.94-2.23-3A24.54,24.54,0,0,1,360.47,567.8Z"/><path class="cls-3" d="M416.13,448.9a25.57,25.57,0,0,1,2.38-2.89c.85-.9,1.73-1.76,2.64-2.59s1.88-1.61,2.86-2.35a23.82,23.82,0,0,1,3.13-2.06,25.57,25.57,0,0,1-2.38,2.89c-.85.9-1.73,1.76-2.65,2.59s-1.87,1.6-2.86,2.35A24.39,24.39,0,0,1,416.13,448.9Z"/><path class="cls-3" d="M429.85,446.56a25.64,25.64,0,0,1,2.38-2.88c.85-.91,1.73-1.77,2.65-2.59s1.87-1.61,2.86-2.36a24.39,24.39,0,0,1,3.12-2.06,23,23,0,0,1-2.38,2.89c-.84.9-1.72,1.77-2.65,2.59S434,443.76,433,444.5A23.82,23.82,0,0,1,429.85,446.56Z"/><path class="cls-3" d="M397.14,447a25.6,25.6,0,0,1,2.78,2.51c.86.88,1.69,1.8,2.47,2.75s1.53,1.94,2.23,3a24,24,0,0,1,1.92,3.22,24.7,24.7,0,0,1-2.78-2.51c-.87-.89-1.69-1.8-2.47-2.76s-1.53-1.94-2.23-3A24.54,24.54,0,0,1,397.14,447Z"/><path class="cls-3" d="M422.43,469.75a25.76,25.76,0,0,1,2.38-2.89c.85-.9,1.73-1.76,2.65-2.59s1.87-1.61,2.86-2.35a23.82,23.82,0,0,1,3.13-2.06,25.64,25.64,0,0,1-2.38,2.88c-.85.91-1.73,1.77-2.65,2.59s-1.88,1.61-2.86,2.36A24.87,24.87,0,0,1,422.43,469.75Z"/><path class="cls-3" d="M415.92,487.43a25.65,25.65,0,0,1,2.39-2.89c.84-.9,1.73-1.76,2.64-2.59s1.88-1.61,2.86-2.35a23.82,23.82,0,0,1,3.13-2.06,23.91,23.91,0,0,1-2.38,2.89c-.85.9-1.73,1.77-2.65,2.59s-1.87,1.6-2.86,2.35A23.82,23.82,0,0,1,415.92,487.43Z"/><path class="cls-3" d="M429.65,485.09a24.6,24.6,0,0,1,2.38-2.88c.85-.91,1.73-1.77,2.65-2.59s1.87-1.61,2.86-2.36a24.39,24.39,0,0,1,3.12-2.06,23.91,23.91,0,0,1-2.38,2.89c-.85.9-1.73,1.77-2.65,2.59s-1.87,1.61-2.86,2.35A23.07,23.07,0,0,1,429.65,485.09Z"/><path class="cls-3" d="M410.81,465.36a25.63,25.63,0,0,1,1.39,3.47c.39,1.18.73,2.36,1,3.56s.52,2.42.71,3.64a25.59,25.59,0,0,1,.31,3.73,25.18,25.18,0,0,1-1.4-3.47c-.38-1.18-.73-2.36-1-3.56s-.51-2.42-.7-3.64A24.27,24.27,0,0,1,410.81,465.36Z"/><path class="cls-3" d="M400.3,477a25.52,25.52,0,0,1,2.78,2.5c.86.89,1.69,1.81,2.47,2.76s1.53,1.94,2.23,3a24.54,24.54,0,0,1,1.92,3.21,24.62,24.62,0,0,1-2.78-2.5c-.86-.89-1.69-1.81-2.47-2.76s-1.53-1.94-2.23-3A24.54,24.54,0,0,1,400.3,477Z"/><path class="cls-3" d="M407.38,450.07a23.77,23.77,0,0,1,2.78,2.51c.86.88,1.69,1.8,2.47,2.75s1.53,1.94,2.23,3a24,24,0,0,1,1.92,3.22A25.6,25.6,0,0,1,414,459c-.86-.89-1.69-1.8-2.47-2.76s-1.53-1.94-2.23-3A25.69,25.69,0,0,1,407.38,450.07Z"/><path class="cls-3" d="M415.24,399.39a24.6,24.6,0,0,1,2.38-2.88c.85-.9,1.73-1.77,2.65-2.59s1.87-1.61,2.85-2.36a26,26,0,0,1,3.13-2.06,23.91,23.91,0,0,1-2.38,2.89c-.85.9-1.73,1.77-2.65,2.59s-1.87,1.61-2.86,2.35A24.39,24.39,0,0,1,415.24,399.39Z"/><path class="cls-3" d="M429,397.06a24.89,24.89,0,0,1,2.38-2.89c.85-.9,1.73-1.77,2.65-2.59s1.87-1.61,2.86-2.36a24.81,24.81,0,0,1,3.13-2.05,24.68,24.68,0,0,1-2.39,2.88c-.84.9-1.72,1.77-2.64,2.59s-1.88,1.61-2.86,2.36A26,26,0,0,1,429,397.06Z"/><path class="cls-3" d="M396.25,397.51A25.6,25.6,0,0,1,399,400c.86.89,1.69,1.81,2.47,2.76s1.53,1.94,2.23,3a24.54,24.54,0,0,1,1.92,3.21,24.62,24.62,0,0,1-2.78-2.5c-.86-.89-1.69-1.81-2.47-2.76s-1.53-1.94-2.23-3A24,24,0,0,1,396.25,397.51Z"/><path class="cls-3" d="M421.54,420.24a24.68,24.68,0,0,1,2.39-2.88c.84-.91,1.72-1.77,2.64-2.59s1.87-1.61,2.86-2.36a23.82,23.82,0,0,1,3.13-2.06,24.89,24.89,0,0,1-2.38,2.89c-.85.9-1.73,1.77-2.65,2.59s-1.87,1.61-2.86,2.35A23.82,23.82,0,0,1,421.54,420.24Z"/><path class="cls-3" d="M415,437.93a23.91,23.91,0,0,1,2.38-2.89c.85-.9,1.73-1.77,2.64-2.59s1.88-1.61,2.86-2.36a26,26,0,0,1,3.13-2.06,23.91,23.91,0,0,1-2.38,2.89c-.85.9-1.73,1.77-2.65,2.59s-1.87,1.61-2.86,2.36A26.72,26.72,0,0,1,415,437.93Z"/><path class="cls-3" d="M428.76,435.59a24.89,24.89,0,0,1,2.38-2.89c.85-.9,1.73-1.77,2.65-2.59s1.87-1.61,2.86-2.36a25.43,25.43,0,0,1,3.12-2.05,23.64,23.64,0,0,1-2.38,2.88c-.84.9-1.72,1.77-2.65,2.59s-1.87,1.61-2.85,2.36A26,26,0,0,1,428.76,435.59Z"/><path class="cls-3" d="M409.92,415.85a25.24,25.24,0,0,1,1.39,3.48c.39,1.17.73,2.36,1,3.56s.52,2.41.71,3.64a24.14,24.14,0,0,1,.31,3.72,25.18,25.18,0,0,1-1.4-3.47c-.38-1.17-.72-2.36-1-3.56s-.51-2.41-.7-3.64A24.17,24.17,0,0,1,409.92,415.85Z"/><path class="cls-3" d="M399.41,427.53a24.7,24.7,0,0,1,2.78,2.51c.86.88,1.69,1.8,2.47,2.75s1.53,1.94,2.23,3a24,24,0,0,1,1.92,3.22,24.7,24.7,0,0,1-2.78-2.51c-.86-.89-1.69-1.8-2.47-2.76s-1.53-1.94-2.23-3A25.69,25.69,0,0,1,399.41,427.53Z"/><path class="cls-3" d="M406.49,400.56a24.7,24.7,0,0,1,2.78,2.51c.87.89,1.69,1.8,2.47,2.76s1.53,1.94,2.23,3a23.48,23.48,0,0,1,1.92,3.21,24.61,24.61,0,0,1-2.78-2.51c-.86-.88-1.69-1.8-2.47-2.75s-1.52-1.95-2.23-3A25.82,25.82,0,0,1,406.49,400.56Z"/><path class="cls-3" d="M319.6,429.78a25.83,25.83,0,0,1,2.39-2.89c.85-.9,1.73-1.76,2.64-2.59s1.88-1.61,2.86-2.35a23.82,23.82,0,0,1,3.13-2.06,25.57,25.57,0,0,1-2.38,2.89c-.85.9-1.73,1.76-2.65,2.58s-1.87,1.61-2.86,2.36A24.87,24.87,0,0,1,319.6,429.78Z"/><path class="cls-3" d="M333.33,427.44a26.69,26.69,0,0,1,2.38-2.89c.85-.9,1.73-1.76,2.65-2.59s1.87-1.61,2.86-2.35a24.39,24.39,0,0,1,3.12-2.06,24.53,24.53,0,0,1-2.38,2.89c-.85.9-1.73,1.76-2.65,2.59s-1.87,1.6-2.86,2.35A23.07,23.07,0,0,1,333.33,427.44Z"/><path class="cls-3" d="M300.62,427.9a24.61,24.61,0,0,1,2.78,2.51c.86.88,1.69,1.8,2.47,2.75s1.53,1.94,2.23,3a25.69,25.69,0,0,1,1.92,3.21,23.69,23.69,0,0,1-2.78-2.5c-.87-.89-1.69-1.8-2.47-2.76s-1.53-1.94-2.23-3A24.54,24.54,0,0,1,300.62,427.9Z"/><path class="cls-3" d="M325.91,450.63a24.89,24.89,0,0,1,2.38-2.89c.85-.9,1.73-1.77,2.65-2.59s1.87-1.61,2.86-2.36a24.81,24.81,0,0,1,3.13-2.05,24.68,24.68,0,0,1-2.39,2.88c-.84.9-1.72,1.77-2.64,2.59s-1.88,1.61-2.86,2.36A26,26,0,0,1,325.91,450.63Z"/><path class="cls-3" d="M319.4,468.31a24.79,24.79,0,0,1,2.39-2.89c.84-.9,1.73-1.76,2.64-2.59s1.87-1.61,2.86-2.35a23.82,23.82,0,0,1,3.13-2.06,26.69,26.69,0,0,1-2.38,2.89c-.85.9-1.73,1.76-2.65,2.58s-1.87,1.61-2.86,2.36A24.87,24.87,0,0,1,319.4,468.31Z"/><path class="cls-3" d="M333.13,466a24.6,24.6,0,0,1,2.38-2.88c.85-.91,1.73-1.77,2.65-2.6s1.87-1.6,2.86-2.35a24.39,24.39,0,0,1,3.12-2.06,23.91,23.91,0,0,1-2.38,2.89c-.85.9-1.73,1.77-2.65,2.59s-1.87,1.6-2.86,2.35A23.71,23.71,0,0,1,333.13,466Z"/><path class="cls-3" d="M314.28,446.24a24,24,0,0,1,1.4,3.47c.39,1.18.73,2.36,1,3.56s.52,2.42.71,3.64a25.48,25.48,0,0,1,.31,3.73,25.69,25.69,0,0,1-1.4-3.47c-.38-1.18-.73-2.37-1-3.57s-.52-2.41-.7-3.63A25.6,25.6,0,0,1,314.28,446.24Z"/><path class="cls-3" d="M303.78,457.91a25.6,25.6,0,0,1,2.78,2.51c.86.89,1.69,1.8,2.47,2.76s1.53,1.94,2.23,3a24.54,24.54,0,0,1,1.92,3.21,23.77,23.77,0,0,1-2.78-2.51c-.86-.88-1.69-1.8-2.47-2.75s-1.53-1.94-2.23-3A24.65,24.65,0,0,1,303.78,457.91Z"/><path class="cls-3" d="M310.86,431a24.62,24.62,0,0,1,2.78,2.5c.86.89,1.69,1.81,2.47,2.76s1.53,1.94,2.23,3a24.54,24.54,0,0,1,1.92,3.21,23.69,23.69,0,0,1-2.78-2.5c-.86-.89-1.69-1.81-2.47-2.76s-1.53-1.94-2.23-3A25.69,25.69,0,0,1,310.86,431Z"/><path class="cls-3" d="M317.64,483.93A24,24,0,0,1,320,481c.84-.9,1.73-1.77,2.64-2.59s1.88-1.61,2.86-2.36a26,26,0,0,1,3.13-2.06,23.91,23.91,0,0,1-2.38,2.89c-.85.9-1.73,1.77-2.65,2.59s-1.87,1.61-2.86,2.36A26,26,0,0,1,317.64,483.93Z"/><path class="cls-3" d="M331.37,481.59a23.91,23.91,0,0,1,2.38-2.89c.85-.9,1.73-1.77,2.65-2.59s1.87-1.61,2.86-2.36a25.43,25.43,0,0,1,3.12-2.05,23.64,23.64,0,0,1-2.38,2.88c-.85.9-1.73,1.77-2.65,2.59s-1.87,1.61-2.86,2.36A25.13,25.13,0,0,1,331.37,481.59Z"/><path class="cls-3" d="M298.66,482.05a25.52,25.52,0,0,1,2.78,2.5c.86.89,1.69,1.81,2.47,2.76s1.53,1.94,2.23,3a25.69,25.69,0,0,1,1.92,3.21,24.62,24.62,0,0,1-2.78-2.5c-.87-.89-1.69-1.81-2.47-2.76s-1.53-1.94-2.23-3A24.54,24.54,0,0,1,298.66,482.05Z"/><path class="cls-3" d="M324,504.77a25.64,25.64,0,0,1,2.38-2.88c.85-.9,1.73-1.77,2.65-2.59s1.87-1.61,2.86-2.36a24.87,24.87,0,0,1,3.13-2.06,24,24,0,0,1-2.39,2.89c-.84.9-1.72,1.77-2.64,2.59s-1.88,1.61-2.86,2.35A23.82,23.82,0,0,1,324,504.77Z"/><path class="cls-3" d="M317.44,522.46a24,24,0,0,1,2.39-2.89c.84-.9,1.72-1.77,2.64-2.59s1.87-1.61,2.86-2.36a26,26,0,0,1,3.13-2.06,24.89,24.89,0,0,1-2.38,2.89c-.85.9-1.73,1.77-2.65,2.59s-1.87,1.61-2.86,2.36A26,26,0,0,1,317.44,522.46Z"/><path class="cls-3" d="M331.17,520.12a23.91,23.91,0,0,1,2.38-2.89c.85-.9,1.73-1.77,2.65-2.59s1.87-1.61,2.86-2.36a25.43,25.43,0,0,1,3.12-2,24.6,24.6,0,0,1-2.38,2.88c-.85.91-1.73,1.77-2.65,2.59s-1.87,1.61-2.86,2.36A25.9,25.9,0,0,1,331.17,520.12Z"/><path class="cls-3" d="M312.32,500.38a24.56,24.56,0,0,1,1.4,3.48c.39,1.17.73,2.36,1,3.56s.52,2.41.71,3.64a25.48,25.48,0,0,1,.31,3.73,25.81,25.81,0,0,1-1.4-3.48c-.39-1.17-.73-2.36-1-3.56s-.52-2.41-.7-3.64A25.48,25.48,0,0,1,312.32,500.38Z"/><path class="cls-3" d="M301.82,512.06a25.6,25.6,0,0,1,2.78,2.51c.86.88,1.69,1.8,2.47,2.76s1.53,1.93,2.23,2.95a24,24,0,0,1,1.92,3.22,24.7,24.7,0,0,1-2.78-2.51c-.86-.89-1.69-1.8-2.47-2.76s-1.53-1.94-2.23-3A24.54,24.54,0,0,1,301.82,512.06Z"/><path class="cls-3" d="M308.9,485.09a25.6,25.6,0,0,1,2.78,2.51c.86.89,1.69,1.81,2.47,2.76s1.53,1.94,2.23,3a24.54,24.54,0,0,1,1.92,3.21,24.62,24.62,0,0,1-2.78-2.5c-.86-.89-1.69-1.81-2.47-2.76s-1.53-1.94-2.23-3A25.11,25.11,0,0,1,308.9,485.09Z"/><path class="cls-3" d="M320.27,536.36a24.6,24.6,0,0,1,2.38-2.88c.85-.9,1.73-1.77,2.65-2.59s1.87-1.61,2.86-2.36a24.06,24.06,0,0,1,3.12-2.06,23.91,23.91,0,0,1-2.38,2.89c-.85.9-1.73,1.77-2.65,2.59s-1.87,1.61-2.86,2.35A24.39,24.39,0,0,1,320.27,536.36Z"/><path class="cls-3" d="M334,534a24,24,0,0,1,2.39-2.89c.84-.9,1.72-1.77,2.64-2.59s1.87-1.61,2.86-2.36a26,26,0,0,1,3.13-2.06,24.89,24.89,0,0,1-2.38,2.89c-.85.9-1.73,1.77-2.65,2.59s-1.87,1.61-2.86,2.36A26,26,0,0,1,334,534Z"/><path class="cls-3" d="M301.28,534.48a25.6,25.6,0,0,1,2.78,2.51c.86.89,1.69,1.8,2.47,2.76s1.53,1.94,2.23,3a24.54,24.54,0,0,1,1.92,3.21,23.77,23.77,0,0,1-2.78-2.51c-.86-.88-1.69-1.8-2.47-2.75s-1.53-1.95-2.23-3A25.82,25.82,0,0,1,301.28,534.48Z"/><path class="cls-3" d="M326.57,557.21a24.68,24.68,0,0,1,2.39-2.88c.84-.91,1.73-1.77,2.64-2.59s1.88-1.61,2.86-2.36a23.82,23.82,0,0,1,3.13-2.06,24.89,24.89,0,0,1-2.38,2.89c-.85.9-1.73,1.77-2.65,2.59s-1.87,1.61-2.86,2.35A23.82,23.82,0,0,1,326.57,557.21Z"/><path class="cls-3" d="M308,570.81a25.09,25.09,0,0,1,3.71.49c1.22.24,2.42.53,3.6.88s2.36.73,3.51,1.17a25.44,25.44,0,0,1,3.41,1.56,24.11,24.11,0,0,1-3.72-.49c-1.21-.24-2.41-.53-3.59-.87s-2.36-.74-3.52-1.18A24.67,24.67,0,0,1,308,570.81Z"/><path class="cls-3" d="M333.79,572.56a24.89,24.89,0,0,1,2.38-2.89c.85-.9,1.73-1.77,2.65-2.59s1.87-1.61,2.86-2.36a24.81,24.81,0,0,1,3.13-2.05,25.64,25.64,0,0,1-2.38,2.88c-.85.9-1.73,1.77-2.65,2.59s-1.88,1.61-2.86,2.36A26,26,0,0,1,333.79,572.56Z"/><path class="cls-3" d="M315,552.82a24.39,24.39,0,0,1,1.39,3.47c.39,1.18.73,2.37,1,3.57s.52,2.41.71,3.63a24.38,24.38,0,0,1,.31,3.73,25.18,25.18,0,0,1-1.4-3.47c-.38-1.17-.72-2.36-1-3.56s-.52-2.41-.71-3.64A24.17,24.17,0,0,1,315,552.82Z"/><path class="cls-3" d="M316.76,584.42a24.26,24.26,0,0,1,3.52-1.26q1.79-.51,3.6-.87c1.21-.24,2.43-.42,3.66-.56a25.76,25.76,0,0,1,3.74-.17,24.26,24.26,0,0,1-3.52,1.26c-1.19.34-2.39.64-3.6.87s-2.43.43-3.66.56A24.42,24.42,0,0,1,316.76,584.42Z"/><path class="cls-3" d="M311.52,537.53A24.7,24.7,0,0,1,314.3,540c.87.89,1.69,1.8,2.48,2.76s1.52,1.94,2.22,3a23.48,23.48,0,0,1,1.92,3.21,25.6,25.6,0,0,1-2.78-2.51c-.86-.88-1.69-1.8-2.47-2.76s-1.52-1.94-2.23-3A25.69,25.69,0,0,1,311.52,537.53Z"/><path class="cls-2" d="M30.57,401s-18.94-1.3-18.64,41.61S0,569,13.54,597.16s21.17,39.42,60.08,40.06c0,0,2.09-6,.32-20,0,0-32.53,1.46-31.59-38.44S68.5,400.63,30.57,401Z"/><path class="cls-3" d="M45.41,431.59a2.31,2.31,0,0,0-2.82,0c-1.12.83-2.51,2.69-2.51,6.76,0,4.86,3.52,26.78,5.5,38.78a.84.84,0,0,0,1.66-.11l1.19-28.8S49.53,434.8,45.41,431.59Z"/><path class="cls-4" d="M11.93,442.61C11.63,399.7,30.57,401,30.57,401c4.85,0,5.36-1.23,8.33,2.76-8.84,1.11-18.32,10.41-18.07,43.45C21.15,488.84,9,569.79,22.52,597.12c11.82,23.85,24,35.29,51.54,38.21a14.2,14.2,0,0,1-.44,1.89c-38.91-.64-46.55-11.9-60.08-40.06S12.23,485.53,11.93,442.61Z"/><path class="cls-2" d="M158.7,484.15s19-.69,17.28,42.2,7.79,126.7-6.66,154.41S146.88,719.47,108,718.84c0,0-1.9-6,.32-20,0,0,32.47,2.53,32.83-37.38S120.81,482.54,158.7,484.15Z"/><path class="cls-2" d="M103.1,431.34a14.53,14.53,0,0,0-17.9-.68c-7,5-16,16.39-16.43,41.86-.69,42.25,7.32,291.12,7.32,291.12l30.18.5,13.4-229.21S127.88,452.38,103.1,431.34Z"/><path class="cls-2" d="M85.2,430.66a14.53,14.53,0,0,1,17.9.68c4.72,4,8.23,10.25,10.84,17.72-4.07-5.85-12.17-6.2-16-4.32-9.38,4.61-11.64,23.12-12.06,48.58-.57,34.84-4.88,210-3,270.44l-6.8-.12s-8-248.87-7.32-291.12C69.19,447.05,78.15,435.68,85.2,430.66Z"/><path class="cls-4" d="M104.23,432.38l.09.09c-15.85-3.79-24.49,13.69-25,44-.64,39.2-3.45,256-2.46,287.2l-.78,0s-8-248.87-7.32-291.12c.4-24.29,8.56-35.75,15.43-41.11A15.4,15.4,0,0,1,104.23,432.38Z"/><path class="cls-3" d="M110.35,458a4.88,4.88,0,0,0-5.95-.08C102,459.6,99,463.46,98.86,472c-.16,10.27,6.45,56.64,10.2,82a1.76,1.76,0,0,0,3.5-.17l3.55-60.72S118.92,464.9,110.35,458Z"/><path class="cls-4" d="M169.44,496.51c-37.9-1.61-17.22,137.44-17.58,177.35-.36,38.8-41.65,28.19-43.94,27.57.11-.82.23-1.67.37-2.55,0,0,32.47,2.53,32.83-37.38s-20.31-179,17.58-177.35c0,0,8.78-.3,13.86,13A9.15,9.15,0,0,0,169.44,496.51Z"/><path class="cls-3" d="M86.7,450.44c-1.6-1.05-3.11-2.2-4.59-3.39s-2.92-2.42-4.33-3.67-2.79-2.56-4.12-3.91a55.18,55.18,0,0,1-3.86-4.21,54.93,54.93,0,0,1,4.6,3.38c1.49,1.18,2.91,2.42,4.33,3.68s2.79,2.56,4.12,3.91A55.06,55.06,0,0,1,86.7,450.44Z"/><path class="cls-3" d="M96.69,477.56a54.93,54.93,0,0,1-4.6-3.38c-1.48-1.18-2.91-2.42-4.33-3.67S85,468,83.64,466.6a57,57,0,0,1-3.85-4.21,54.93,54.93,0,0,1,4.6,3.38c1.48,1.18,2.91,2.42,4.33,3.68s2.78,2.56,4.11,3.91A57,57,0,0,1,96.69,477.56Z"/><path class="cls-3" d="M78.87,478.57a56.46,56.46,0,0,1-4.59-3.38c-1.49-1.18-2.91-2.42-4.33-3.67s-2.79-2.57-4.12-3.91-2.64-2.73-3.85-4.21a54.77,54.77,0,0,1,4.59,3.38c1.49,1.18,2.92,2.42,4.33,3.67S73.69,473,75,474.37A56.86,56.86,0,0,1,78.87,478.57Z"/><path class="cls-3" d="M120.84,438.25c-1,1.65-2.06,3.21-3.18,4.74s-2.29,3-3.48,4.48-2.44,2.9-3.73,4.29a53,53,0,0,1-4,4c1-1.65,2.06-3.21,3.18-4.74s2.29-3,3.48-4.48,2.44-2.9,3.73-4.29S119.41,439.52,120.84,438.25Z"/><path class="cls-3" d="M128.3,461.74a56.67,56.67,0,0,1-3.17,4.74c-1.12,1.53-2.3,3-3.49,4.49s-2.43,2.89-3.72,4.28-2.61,2.76-4,4a52.94,52.94,0,0,1,3.18-4.74c1.11-1.54,2.29-3,3.48-4.49s2.44-2.9,3.73-4.29S126.87,463,128.3,461.74Z"/><path class="cls-3" d="M109.8,420.24c-1,1.65-2.06,3.21-3.18,4.74s-2.29,3-3.48,4.49-2.44,2.9-3.73,4.29-2.61,2.75-4,4a56.77,56.77,0,0,1,3.18-4.74c1.11-1.54,2.29-3,3.48-4.49s2.44-2.89,3.73-4.28A57,57,0,0,1,109.8,420.24Z"/><path class="cls-3" d="M89.1,507a54.93,54.93,0,0,1-4.6-3.38c-1.48-1.18-2.91-2.42-4.33-3.67s-2.78-2.56-4.12-3.91-2.64-2.73-3.85-4.21a54.93,54.93,0,0,1,4.6,3.38c1.48,1.18,2.91,2.42,4.33,3.68s2.78,2.56,4.12,3.91S87.89,505.52,89.1,507Z"/><path class="cls-3" d="M99.08,534.13a56.46,56.46,0,0,1-4.59-3.38c-1.49-1.18-2.91-2.42-4.33-3.67s-2.79-2.56-4.12-3.91-2.64-2.73-3.85-4.21a56.46,56.46,0,0,1,4.59,3.38c1.49,1.18,2.92,2.42,4.33,3.67s2.79,2.57,4.12,3.92A56.86,56.86,0,0,1,99.08,534.13Z"/><path class="cls-3" d="M74.58,533.15c-1.1-1.57-2.07-3.2-3-4.85s-1.8-3.33-2.64-5-1.63-3.41-2.37-5.16-1.43-3.52-2-5.34a52.74,52.74,0,0,1,3,4.85c.94,1.64,1.8,3.33,2.65,5s1.63,3.42,2.36,5.17A56.85,56.85,0,0,1,74.58,533.15Z"/><path class="cls-3" d="M123.23,494.82a54.9,54.9,0,0,1-3.17,4.73c-1.12,1.54-2.3,3-3.49,4.49s-2.43,2.9-3.72,4.29-2.61,2.76-4,4a54.41,54.41,0,0,1,3.18-4.74c1.11-1.53,2.29-3,3.48-4.49s2.44-2.89,3.73-4.28A54.72,54.72,0,0,1,123.23,494.82Z"/><path class="cls-3" d="M130.7,518.31a56.77,56.77,0,0,1-3.18,4.74c-1.11,1.53-2.29,3-3.48,4.49s-2.44,2.89-3.73,4.28a54.72,54.72,0,0,1-4,4,56.67,56.67,0,0,1,3.17-4.74c1.12-1.53,2.29-3,3.49-4.48s2.43-2.9,3.72-4.29S129.27,519.58,130.7,518.31Z"/><path class="cls-3" d="M112.19,476.81a56.67,56.67,0,0,1-3.17,4.74c-1.12,1.53-2.3,3-3.49,4.49s-2.44,2.89-3.72,4.28-2.61,2.76-4,4a55.07,55.07,0,0,1,3.17-4.74c1.12-1.54,2.3-3,3.49-4.49s2.44-2.9,3.73-4.29S110.76,478.09,112.19,476.81Z"/><path class="cls-3" d="M79.32,565.15c-1.25-1.46-2.37-3-3.45-4.54s-2.11-3.15-3.11-4.76-2-3.24-2.85-4.91-1.76-3.36-2.5-5.13a53.72,53.72,0,0,1,3.45,4.54C72,551.9,73,553.5,74,555.1s2,3.25,2.85,4.92S78.58,563.38,79.32,565.15Z"/><path class="cls-3" d="M96.62,594.52a54.93,54.93,0,0,1-4.6-3.38c-1.48-1.18-2.91-2.42-4.33-3.67s-2.78-2.56-4.12-3.91-2.64-2.73-3.85-4.21a54.93,54.93,0,0,1,4.6,3.38c1.48,1.18,2.91,2.42,4.33,3.68s2.78,2.56,4.12,3.91S95.41,593,96.62,594.52Z"/><path class="cls-3" d="M75.56,590.94c-1.6-1.05-3.12-2.2-4.59-3.38s-2.92-2.43-4.34-3.68-2.78-2.56-4.12-3.91-2.64-2.72-3.85-4.21a54.93,54.93,0,0,1,4.6,3.38c1.48,1.18,2.91,2.42,4.33,3.68s2.79,2.56,4.12,3.91A55.06,55.06,0,0,1,75.56,590.94Z"/><path class="cls-3" d="M123,564.8a56.67,56.67,0,0,1-3.17,4.74c-1.12,1.53-2.29,3-3.49,4.48s-2.43,2.9-3.72,4.29a54.86,54.86,0,0,1-4,4,56.77,56.77,0,0,1,3.18-4.74c1.11-1.53,2.29-3,3.48-4.48s2.44-2.9,3.73-4.29A56.75,56.75,0,0,1,123,564.8Z"/><path class="cls-3" d="M125.75,591.64a54.41,54.41,0,0,1-3.18,4.74c-1.11,1.53-2.29,3-3.48,4.49s-2.44,2.89-3.73,4.28a56.88,56.88,0,0,1-4,4,53.56,53.56,0,0,1,3.17-4.74c1.12-1.54,2.3-3,3.49-4.49s2.44-2.9,3.73-4.29S124.32,592.92,125.75,591.64Z"/><path class="cls-3" d="M94.79,549.19a54.6,54.6,0,0,1,2.06,5.32c.62,1.79,1.16,3.61,1.68,5.43s1,3.66,1.37,5.51.76,3.72,1,5.62a54,54,0,0,1-2.06-5.32c-.62-1.79-1.16-3.61-1.68-5.43s-1-3.66-1.37-5.51S95,551.09,94.79,549.19Z"/><path class="cls-3" d="M86.94,626.51a56.46,56.46,0,0,1-4.59-3.38c-1.49-1.18-2.92-2.42-4.33-3.68s-2.79-2.56-4.12-3.91a57,57,0,0,1-3.86-4.2,54.93,54.93,0,0,1,4.6,3.38c1.49,1.18,2.91,2.42,4.33,3.67s2.79,2.56,4.12,3.91S85.73,625,86.94,626.51Z"/><path class="cls-3" d="M96.93,653.64a54.93,54.93,0,0,1-4.6-3.38c-1.48-1.18-2.91-2.42-4.33-3.68s-2.79-2.56-4.12-3.91A55.06,55.06,0,0,1,80,638.46c1.61,1,3.12,2.2,4.6,3.38s2.91,2.43,4.33,3.68,2.78,2.56,4.11,3.91S95.72,652.16,96.93,653.64Z"/><path class="cls-3" d="M75.87,650.05a54.93,54.93,0,0,1-4.6-3.38c-1.48-1.18-2.91-2.42-4.33-3.67s-2.78-2.56-4.12-3.91-2.64-2.73-3.85-4.21a54.93,54.93,0,0,1,4.6,3.38c1.48,1.18,2.91,2.42,4.33,3.67s2.78,2.57,4.12,3.92S74.66,648.57,75.87,650.05Z"/><path class="cls-3" d="M104.78,619.78c-.15,1.91-.44,3.78-.77,5.65s-.74,3.72-1.16,5.56-.92,3.67-1.47,5.49-1.13,3.62-1.85,5.39a56,56,0,0,1,.77-5.65c.33-1.87.73-3.72,1.16-5.56s.92-3.67,1.47-5.49S104.06,621.55,104.78,619.78Z"/><path class="cls-3" d="M120.9,637.69a56.77,56.77,0,0,1-3.18,4.74c-1.11,1.54-2.29,3-3.48,4.49s-2.44,2.89-3.73,4.28a56.88,56.88,0,0,1-4,4,56.67,56.67,0,0,1,3.17-4.74c1.12-1.54,2.29-3,3.49-4.49s2.44-2.89,3.73-4.28A56.88,56.88,0,0,1,120.9,637.69Z"/><path class="cls-3" d="M110,596.32c-1,1.65-2.06,3.21-3.18,4.74s-2.29,3-3.48,4.48-2.44,2.9-3.73,4.29a54.86,54.86,0,0,1-4,4,56.77,56.77,0,0,1,3.18-4.74c1.11-1.53,2.29-3,3.48-4.48s2.44-2.9,3.73-4.29A56.9,56.9,0,0,1,110,596.32Z"/><path class="cls-3" d="M94.61,678.55a42.62,42.62,0,0,1-4-2.85c-1.29-1-2.52-2.07-3.74-3.15s-2.4-2.21-3.53-3.38a42.41,42.41,0,0,1-3.26-3.68,42.48,42.48,0,0,1,4,2.85c1.29,1,2.52,2.07,3.74,3.15s2.4,2.21,3.53,3.38A44.25,44.25,0,0,1,94.61,678.55Z"/><path class="cls-3" d="M76.48,675.46a42,42,0,0,1-4-2.85c-1.29-1-2.52-2.07-3.74-3.14s-2.4-2.21-3.53-3.39a41.08,41.08,0,0,1-3.27-3.68,42.62,42.62,0,0,1,4,2.85c1.29,1,2.52,2.07,3.74,3.15s2.39,2.21,3.53,3.39A42.27,42.27,0,0,1,76.48,675.46Z"/><path class="cls-3" d="M119.68,676.07A42.3,42.3,0,0,1,117,680.2c-.94,1.33-2,2.61-3,3.87s-2.1,2.49-3.22,3.68a43.89,43.89,0,0,1-3.53,3.42,39.38,39.38,0,0,1,2.67-4.13c.94-1.33,2-2.61,3-3.87s2.1-2.49,3.23-3.68A40.8,40.8,0,0,1,119.68,676.07Z"/><path class="cls-3" d="M86.28,706.08a44,44,0,0,1-4-2.85c-1.28-1-2.52-2.07-3.74-3.15s-2.39-2.21-3.53-3.38A42.41,42.41,0,0,1,71.74,693a44,44,0,0,1,4,2.85c1.28,1,2.52,2.07,3.74,3.15s2.39,2.21,3.53,3.38A42.41,42.41,0,0,1,86.28,706.08Z"/><path class="cls-3" d="M94.87,729.43a42.57,42.57,0,0,1-4-2.86c-1.29-1-2.52-2.07-3.75-3.14s-2.39-2.21-3.53-3.38a42.41,42.41,0,0,1-3.26-3.68,40.87,40.87,0,0,1,4,2.85c1.29,1,2.52,2.07,3.74,3.14s2.39,2.21,3.53,3.39A41,41,0,0,1,94.87,729.43Z"/><path class="cls-3" d="M76.75,726.34a44,44,0,0,1-4-2.85c-1.28-1-2.52-2.07-3.74-3.15s-2.39-2.21-3.53-3.38a42.41,42.41,0,0,1-3.26-3.68,44,44,0,0,1,4,2.85c1.28,1,2.52,2.07,3.74,3.15s2.39,2.21,3.53,3.38A42.41,42.41,0,0,1,76.75,726.34Z"/><path class="cls-3" d="M101.63,700.28a41.59,41.59,0,0,1-.59,4.89c-.26,1.61-.61,3.2-1,4.79s-.8,3.16-1.29,4.71a42,42,0,0,1-1.67,4.63,41.16,41.16,0,0,1,.59-4.88c.26-1.62.61-3.21,1-4.79s.79-3.16,1.28-4.72A44.19,44.19,0,0,1,101.63,700.28Z"/><path class="cls-3" d="M115.5,715.7a42.22,42.22,0,0,1-2.67,4.13c-1,1.33-2,2.61-3,3.87s-2.1,2.49-3.23,3.68a42.29,42.29,0,0,1-3.53,3.42,44.16,44.16,0,0,1,2.67-4.13c.95-1.33,2-2.61,3-3.87s2.1-2.49,3.22-3.68A43.89,43.89,0,0,1,115.5,715.7Z"/><path class="cls-3" d="M106.15,680.1a42.07,42.07,0,0,1-2.67,4.12c-1,1.33-2,2.61-3,3.88s-2.1,2.49-3.23,3.67a40.76,40.76,0,0,1-3.53,3.42,44,44,0,0,1,2.67-4.12c1-1.33,2-2.61,3-3.88s2.1-2.49,3.22-3.67A43.89,43.89,0,0,1,106.15,680.1Z"/><path class="cls-3" d="M32.67,513.1a42.62,42.62,0,0,1-4-2.85c-1.29-1-2.52-2.07-3.74-3.15s-2.4-2.21-3.53-3.38A42.52,42.52,0,0,1,18.12,500a42.62,42.62,0,0,1,4,2.85c1.29,1,2.52,2.07,3.74,3.15s2.39,2.21,3.53,3.38A44.25,44.25,0,0,1,32.67,513.1Z"/><path class="cls-3" d="M14.54,510a40.73,40.73,0,0,1-4-2.85c-1.29-1-2.52-2.07-3.75-3.14s-2.39-2.21-3.53-3.39A41,41,0,0,1,0,497a42.62,42.62,0,0,1,4,2.85c1.29,1,2.52,2.07,3.74,3.15s2.39,2.21,3.53,3.39A42.27,42.27,0,0,1,14.54,510Z"/><path class="cls-3" d="M57.73,510.62a42.22,42.22,0,0,1-2.67,4.13c-1,1.33-2,2.61-3,3.87s-2.1,2.49-3.22,3.68a42.42,42.42,0,0,1-3.54,3.42A41.13,41.13,0,0,1,48,521.59c.94-1.33,2-2.61,3-3.87s2.1-2.49,3.22-3.68A43.89,43.89,0,0,1,57.73,510.62Z"/><path class="cls-3" d="M24.34,540.63a42.62,42.62,0,0,1-4-2.85c-1.29-1-2.52-2.07-3.74-3.15s-2.4-2.21-3.53-3.38a42.41,42.41,0,0,1-3.26-3.68,42.48,42.48,0,0,1,4,2.85c1.29,1,2.52,2.07,3.74,3.15s2.4,2.21,3.53,3.38A44.25,44.25,0,0,1,24.34,540.63Z"/><path class="cls-3" d="M32.93,564a44.06,44.06,0,0,1-4-2.86c-1.28-1-2.52-2.07-3.74-3.14s-2.39-2.21-3.53-3.38a42.41,42.41,0,0,1-3.26-3.68,42.1,42.1,0,0,1,4,2.85c1.28,1,2.52,2.07,3.74,3.14s2.39,2.21,3.53,3.39A41,41,0,0,1,32.93,564Z"/><path class="cls-3" d="M14.81,560.89a42.62,42.62,0,0,1-4-2.85c-1.29-1-2.52-2.07-3.74-3.15s-2.4-2.21-3.53-3.38a42.41,42.41,0,0,1-3.26-3.68,42.48,42.48,0,0,1,4,2.85c1.29,1,2.52,2.07,3.74,3.15s2.4,2.21,3.53,3.38A44.25,44.25,0,0,1,14.81,560.89Z"/><path class="cls-3" d="M39.69,534.83a43.82,43.82,0,0,1-.59,4.89c-.27,1.61-.61,3.2-1,4.79s-.79,3.15-1.28,4.71a44.19,44.19,0,0,1-1.67,4.63,39.18,39.18,0,0,1,.59-4.88c.26-1.62.61-3.21,1-4.79s.8-3.16,1.29-4.72A44.19,44.19,0,0,1,39.69,534.83Z"/><path class="cls-3" d="M53.56,550.25a44.16,44.16,0,0,1-2.67,4.13c-1,1.33-2,2.61-3,3.87s-2.11,2.49-3.23,3.68a42.29,42.29,0,0,1-3.53,3.42,42.22,42.22,0,0,1,2.67-4.13c1-1.33,2-2.61,3-3.87s2.11-2.49,3.23-3.68A42.29,42.29,0,0,1,53.56,550.25Z"/><path class="cls-3" d="M44.21,514.65a44,44,0,0,1-2.67,4.12c-.95,1.33-2,2.61-3,3.88s-2.11,2.49-3.23,3.67a40.76,40.76,0,0,1-3.53,3.42,42.07,42.07,0,0,1,2.67-4.12c1-1.33,2-2.61,3-3.88s2.11-2.49,3.23-3.67A42.29,42.29,0,0,1,44.21,514.65Z"/><path class="cls-3" d="M33.84,447.74a42.72,42.72,0,0,1-4-2.86c-1.29-1-2.52-2.07-3.74-3.14s-2.39-2.21-3.53-3.38a42.41,42.41,0,0,1-3.26-3.68,40.73,40.73,0,0,1,4,2.85c1.29,1,2.53,2.07,3.75,3.14s2.39,2.21,3.52,3.39A39.58,39.58,0,0,1,33.84,447.74Z"/><path class="cls-3" d="M15.72,444.65a42.62,42.62,0,0,1-4-2.85c-1.29-1-2.52-2.07-3.74-3.15s-2.4-2.21-3.53-3.38a44.25,44.25,0,0,1-3.27-3.68,42.62,42.62,0,0,1,4,2.85c1.29,1,2.52,2.07,3.74,3.15s2.4,2.21,3.53,3.38A44.25,44.25,0,0,1,15.72,444.65Z"/><path class="cls-3" d="M58.91,445.25a42.88,42.88,0,0,1-2.67,4.13c-1,1.33-2,2.61-3,3.88s-2.1,2.49-3.22,3.67a42.29,42.29,0,0,1-3.53,3.42,43.45,43.45,0,0,1,2.67-4.13c.95-1.33,2-2.6,3-3.87s2.1-2.49,3.23-3.67A40.87,40.87,0,0,1,58.91,445.25Z"/><path class="cls-3" d="M25.51,475.26a42.48,42.48,0,0,1-4-2.85c-1.29-1-2.53-2.07-3.75-3.15s-2.39-2.2-3.53-3.38A41,41,0,0,1,11,462.2a42.62,42.62,0,0,1,4,2.85c1.29,1,2.52,2.07,3.74,3.15s2.39,2.21,3.53,3.39A40.85,40.85,0,0,1,25.51,475.26Z"/><path class="cls-3" d="M34.1,498.61a43.82,43.82,0,0,1-4-2.85c-1.29-1-2.52-2.07-3.74-3.15s-2.4-2.21-3.53-3.38a42.52,42.52,0,0,1-3.27-3.68,42.62,42.62,0,0,1,4,2.85c1.29,1,2.52,2.07,3.74,3.15s2.39,2.21,3.53,3.38A42.41,42.41,0,0,1,34.1,498.61Z"/><path class="cls-3" d="M16,495.52a42.48,42.48,0,0,1-4-2.85c-1.29-1-2.53-2.07-3.75-3.15s-2.39-2.2-3.53-3.38a41,41,0,0,1-3.26-3.68,42.62,42.62,0,0,1,4,2.85c1.29,1,2.52,2.07,3.74,3.15s2.39,2.21,3.53,3.38A42.41,42.41,0,0,1,16,495.52Z"/><path class="cls-3" d="M40.86,469.47a41.68,41.68,0,0,1-.59,4.88c-.26,1.61-.61,3.2-1,4.79s-.8,3.16-1.29,4.72a39.26,39.26,0,0,1-1.67,4.62,41.68,41.68,0,0,1,.59-4.88c.27-1.61.61-3.2,1-4.79s.8-3.16,1.28-4.72A43.22,43.22,0,0,1,40.86,469.47Z"/><path class="cls-3" d="M54.73,484.89A42.07,42.07,0,0,1,52.06,489c-1,1.33-2,2.61-3,3.88s-2.1,2.49-3.22,3.67A40.88,40.88,0,0,1,42.32,500,44,44,0,0,1,45,495.86c.95-1.34,2-2.61,3-3.88s2.1-2.49,3.22-3.67A43.89,43.89,0,0,1,54.73,484.89Z"/><path class="cls-3" d="M45.38,449.28a42.22,42.22,0,0,1-2.67,4.13c-1,1.33-2,2.61-3,3.87s-2.1,2.49-3.22,3.68A42.42,42.42,0,0,1,33,464.38a42.88,42.88,0,0,1,2.67-4.13c1-1.33,2-2.61,3-3.87s2.1-2.49,3.22-3.68A43.89,43.89,0,0,1,45.38,449.28Z"/><path class="cls-3" d="M160.11,501.45a41,41,0,0,1-4-2.86c-1.29-1-2.52-2.06-3.74-3.14s-2.4-2.21-3.53-3.38a44.25,44.25,0,0,1-3.27-3.68,39.71,39.71,0,0,1,4,2.85c1.29,1,2.52,2.07,3.74,3.15s2.4,2.21,3.53,3.38A44.25,44.25,0,0,1,160.11,501.45Z"/><path class="cls-3" d="M142,498.36a42.48,42.48,0,0,1-4-2.85c-1.29-1-2.52-2.07-3.74-3.15s-2.4-2.21-3.54-3.38a42.41,42.41,0,0,1-3.26-3.68,42.62,42.62,0,0,1,4,2.85c1.29,1,2.52,2.07,3.74,3.15s2.39,2.21,3.53,3.38A42.41,42.41,0,0,1,142,498.36Z"/><path class="cls-3" d="M185.18,499a41.13,41.13,0,0,1-2.68,4.13c-.94,1.33-1.95,2.61-3,3.88s-2.1,2.49-3.22,3.67a42.42,42.42,0,0,1-3.54,3.42,42.16,42.16,0,0,1,2.68-4.12c.94-1.34,1.95-2.61,3-3.88s2.1-2.49,3.22-3.67A44.2,44.2,0,0,1,185.18,499Z"/><path class="cls-3" d="M151.78,529a40.87,40.87,0,0,1-4-2.85c-1.29-1-2.52-2.07-3.74-3.14s-2.39-2.21-3.53-3.39a41,41,0,0,1-3.26-3.68,42.48,42.48,0,0,1,4,2.85c1.29,1,2.52,2.07,3.75,3.15s2.39,2.21,3.52,3.39A40.78,40.78,0,0,1,151.78,529Z"/><path class="cls-3" d="M160.37,552.32a42.48,42.48,0,0,1-4-2.85c-1.29-1-2.52-2.07-3.75-3.15s-2.39-2.21-3.53-3.38a42.41,42.41,0,0,1-3.26-3.68,42.62,42.62,0,0,1,4,2.85c1.29,1,2.52,2.07,3.74,3.15s2.39,2.21,3.53,3.38A42.41,42.41,0,0,1,160.37,552.32Z"/><path class="cls-3" d="M142.25,549.23a40.87,40.87,0,0,1-4-2.85c-1.29-1-2.52-2.07-3.74-3.15s-2.39-2.2-3.53-3.38a41,41,0,0,1-3.26-3.68,42.48,42.48,0,0,1,4,2.85c1.29,1,2.52,2.07,3.75,3.15s2.39,2.21,3.52,3.39A42.38,42.38,0,0,1,142.25,549.23Z"/><path class="cls-3" d="M167.13,523.18a41.68,41.68,0,0,1-.59,4.88c-.27,1.61-.61,3.2-1,4.79s-.79,3.16-1.28,4.72a43.22,43.22,0,0,1-1.67,4.62,41.68,41.68,0,0,1,.59-4.88c.26-1.61.61-3.2,1-4.79s.79-3.16,1.28-4.72A43.22,43.22,0,0,1,167.13,523.18Z"/><path class="cls-3" d="M181,538.6a42.07,42.07,0,0,1-2.67,4.12c-1,1.33-2,2.61-3,3.88s-2.1,2.49-3.23,3.67a39.33,39.33,0,0,1-3.53,3.42,42.07,42.07,0,0,1,2.67-4.12c1-1.33,2-2.61,3-3.88s2.11-2.49,3.23-3.67A43.89,43.89,0,0,1,181,538.6Z"/><path class="cls-3" d="M171.65,503a42.22,42.22,0,0,1-2.67,4.13c-.95,1.33-2,2.61-3,3.87s-2.1,2.49-3.23,3.68a42.29,42.29,0,0,1-3.53,3.42,42.22,42.22,0,0,1,2.67-4.13c1-1.33,2-2.61,3-3.87s2.11-2.49,3.23-3.68A43.89,43.89,0,0,1,171.65,503Z"/><path class="cls-3" d="M162.7,572.94a42.62,42.62,0,0,1-4-2.85c-1.29-1-2.52-2.07-3.74-3.15s-2.4-2.21-3.53-3.38a42.52,42.52,0,0,1-3.27-3.68,42.62,42.62,0,0,1,4,2.85c1.29,1,2.52,2.07,3.74,3.15s2.39,2.21,3.53,3.38A44.25,44.25,0,0,1,162.7,572.94Z"/><path class="cls-3" d="M144.57,569.85a42.48,42.48,0,0,1-4-2.85c-1.29-1-2.52-2.07-3.75-3.15s-2.39-2.2-3.53-3.38a41,41,0,0,1-3.26-3.68,42.62,42.62,0,0,1,4,2.85c1.29,1,2.52,2.07,3.74,3.15s2.39,2.21,3.53,3.38A42.41,42.41,0,0,1,144.57,569.85Z"/><path class="cls-3" d="M187.76,570.46a43.45,43.45,0,0,1-2.67,4.13c-1,1.33-2,2.6-3,3.87s-2.1,2.49-3.22,3.68a42.42,42.42,0,0,1-3.54,3.42,41.13,41.13,0,0,1,2.68-4.13c.94-1.33,1.95-2.61,3-3.88s2.1-2.48,3.22-3.67A43.89,43.89,0,0,1,187.76,570.46Z"/><path class="cls-3" d="M154.37,600.47a42.62,42.62,0,0,1-4-2.85c-1.29-1-2.52-2.07-3.74-3.15s-2.4-2.21-3.53-3.38a42.41,42.41,0,0,1-3.26-3.68,40.73,40.73,0,0,1,4,2.85c1.29,1,2.52,2.07,3.74,3.15s2.4,2.21,3.53,3.38A44.25,44.25,0,0,1,154.37,600.47Z"/><path class="cls-3" d="M163,623.81a42.1,42.1,0,0,1-4-2.85c-1.28-1-2.52-2.07-3.74-3.14s-2.39-2.21-3.53-3.39a41,41,0,0,1-3.26-3.68,44,44,0,0,1,4,2.85c1.28,1,2.52,2.07,3.74,3.15s2.39,2.21,3.53,3.39A42.27,42.27,0,0,1,163,623.81Z"/><path class="cls-3" d="M144.84,620.73a42.62,42.62,0,0,1-4-2.85c-1.29-1-2.52-2.07-3.74-3.15s-2.4-2.21-3.53-3.38a44.25,44.25,0,0,1-3.27-3.68,39.71,39.71,0,0,1,4,2.85c1.29,1,2.52,2.07,3.74,3.15s2.4,2.21,3.53,3.38A44.25,44.25,0,0,1,144.84,620.73Z"/><path class="cls-3" d="M169.72,594.67a43.93,43.93,0,0,1-.59,4.88c-.27,1.61-.61,3.21-1,4.79s-.79,3.16-1.28,4.72a44.19,44.19,0,0,1-1.67,4.63,39.57,39.57,0,0,1,.59-4.89c.26-1.61.61-3.2,1-4.79s.8-3.16,1.29-4.71A44.19,44.19,0,0,1,169.72,594.67Z"/><path class="cls-3" d="M183.59,610.09a45.51,45.51,0,0,1-2.67,4.13c-.95,1.33-2,2.6-3,3.87s-2.11,2.49-3.23,3.68a42.29,42.29,0,0,1-3.53,3.42,41.05,41.05,0,0,1,2.67-4.13c1-1.33,2-2.61,3-3.87s2.11-2.49,3.23-3.68A42.29,42.29,0,0,1,183.59,610.09Z"/><path class="cls-3" d="M174.24,574.48a42.88,42.88,0,0,1-2.67,4.13c-.95,1.33-2,2.61-3,3.88s-2.11,2.49-3.23,3.67a42.29,42.29,0,0,1-3.53,3.42,43.45,43.45,0,0,1,2.67-4.13c.95-1.33,2-2.6,3-3.87s2.11-2.49,3.23-3.67A40.87,40.87,0,0,1,174.24,574.48Z"/><path class="cls-3" d="M159.23,642.18a42.48,42.48,0,0,1-4-2.85c-1.29-1-2.52-2.07-3.75-3.15S149.09,634,148,632.8a42.41,42.41,0,0,1-3.26-3.68,40.87,40.87,0,0,1,4,2.85c1.29,1,2.52,2.07,3.74,3.15s2.39,2.21,3.53,3.38A42.41,42.41,0,0,1,159.23,642.18Z"/><path class="cls-3" d="M141.11,639.09a42.62,42.62,0,0,1-4-2.85c-1.29-1-2.52-2.07-3.74-3.15s-2.39-2.21-3.53-3.38a42.41,42.41,0,0,1-3.26-3.68,44,44,0,0,1,4,2.85c1.28,1,2.52,2.07,3.74,3.15s2.39,2.21,3.52,3.38A40.91,40.91,0,0,1,141.11,639.09Z"/><path class="cls-3" d="M184.3,639.7a42.07,42.07,0,0,1-2.67,4.12c-.95,1.33-2,2.61-3,3.88s-2.1,2.49-3.23,3.67a39.33,39.33,0,0,1-3.53,3.42,42.07,42.07,0,0,1,2.67-4.12c.95-1.33,2-2.61,3-3.88s2.11-2.49,3.23-3.67A43.89,43.89,0,0,1,184.3,639.7Z"/><path class="cls-3" d="M150.9,669.7a42,42,0,0,1-4-2.85c-1.29-1-2.52-2.07-3.74-3.14s-2.4-2.21-3.53-3.39a41.08,41.08,0,0,1-3.27-3.68,41,41,0,0,1,4,2.86c1.29,1,2.52,2.06,3.74,3.14s2.39,2.21,3.53,3.39A42.27,42.27,0,0,1,150.9,669.7Z"/><path class="cls-3" d="M175.44,687.66a45.79,45.79,0,0,1-4.54,1.89c-1.53.56-3.09,1-4.65,1.5s-3.14.87-4.74,1.21a43.05,43.05,0,0,1-4.85.82,40.65,40.65,0,0,1,4.54-1.89c1.53-.56,3.09-1,4.65-1.51s3.14-.86,4.74-1.2A43.44,43.44,0,0,1,175.44,687.66Z"/><path class="cls-3" d="M141.37,690a42,42,0,0,1-4-2.85c-1.29-1-2.52-2.07-3.74-3.14s-2.4-2.21-3.53-3.39a41.08,41.08,0,0,1-3.27-3.68,42.62,42.62,0,0,1,4,2.85c1.29,1,2.52,2.07,3.74,3.15s2.39,2.21,3.53,3.39A42.27,42.27,0,0,1,141.37,690Z"/><path class="cls-3" d="M166.26,663.91a43.93,43.93,0,0,1-.59,4.88c-.27,1.61-.62,3.2-1,4.79s-.8,3.16-1.28,4.72a41.21,41.21,0,0,1-1.68,4.62,43.93,43.93,0,0,1,.59-4.88c.27-1.61.62-3.2,1-4.79s.8-3.16,1.29-4.72A39.92,39.92,0,0,1,166.26,663.91Z"/><path class="cls-3" d="M163.87,705.63a40,40,0,0,1-4.91-.4c-1.62-.2-3.22-.48-4.82-.78s-3.19-.68-4.77-1.1a44.55,44.55,0,0,1-4.68-1.49,42,42,0,0,1,4.9.39c1.62.21,3.22.49,4.82.79s3.19.68,4.77,1.1A44.72,44.72,0,0,1,163.87,705.63Z"/><path class="cls-3" d="M170.78,643.72a42.3,42.3,0,0,1-2.68,4.13c-.94,1.33-1.95,2.61-3,3.87s-2.1,2.49-3.22,3.68a43.89,43.89,0,0,1-3.53,3.42,40.44,40.44,0,0,1,2.67-4.13c.94-1.33,2-2.61,3-3.87s2.1-2.49,3.23-3.68A40.8,40.8,0,0,1,170.78,643.72Z"/></g></g></g></svg>