<svg xmlns="http://www.w3.org/2000/svg" viewBox="0 0 440.86 764.14"><defs><style>.cls-1{isolation:isolate;}.cls-2{fill:#006838;}.cls-3{fill:#028745;}.cls-4{fill:#006163;mix-blend-mode:multiply;}</style></defs><g class="cls-1"><g id="Capa_2" data-name="Capa 2"><g id="Layer_1" data-name="Layer 1"><path class="cls-2" d="M95.41.33S64.53-1.8,65,68.16s-19.44,206,2.62,251.93,34.51,64.26,97.94,65.3c0,0,3.41-9.71.53-32.53,0,0-53,2.39-51.5-62.65S157.23-.29,95.41.33Z"/><path class="cls-3" d="M119.59,50.19a3.75,3.75,0,0,0-4.59,0c-1.82,1.35-4.09,4.37-4.09,11,0,7.93,5.74,43.66,9,63.22a1.36,1.36,0,0,0,2.7-.18l1.94-46.94S126.31,55.43,119.59,50.19Z"/><path class="cls-4" d="M65,68.16C64.53-1.8,95.41.33,95.41.33c7.9-.08,8.73-2,13.57,4.48-14.4,1.82-29.86,17-29.45,70.84C80.05,143.51,60.2,275.48,82.28,320c19.27,38.89,39.1,57.53,84,62.29a24.19,24.19,0,0,1-.72,3.08c-63.43-1-75.88-19.39-97.94-65.3S65.5,138.11,65,68.16Z"/><path class="cls-2" d="M304.28,80.67s30.93-1.13,28.16,68.78S345.14,356,321.59,401.16s-36.59,63.11-100,62.07c0,0-3.1-9.81.53-32.53,0,0,52.91,4.12,53.51-60.94S242.51,78,304.28,80.67Z"/><path class="cls-2" d="M213.64,53.47a23.68,23.68,0,0,0-29.18-1.09c-11.5,8.17-26.1,26.71-26.78,68.22-1.13,68.88,11.93,474.58,11.93,474.58l49.2.8,21.85-373.63S254,87.78,213.64,53.47Z"/><path class="cls-2" d="M184.46,52.38a23.68,23.68,0,0,1,29.18,1.09c7.69,6.53,13.42,16.71,17.68,28.89-6.64-9.54-19.84-10.1-26.09-7-15.29,7.51-19,37.67-19.66,79.19-.93,56.79-8,342.31-4.87,440.84l-11.09-.18s-13.06-405.7-11.93-474.58C158.36,79.09,173,60.55,184.46,52.38Z"/><path class="cls-4" d="M215.48,55.18l.15.14C189.79,49.15,175.7,77.64,174.89,127c-1,63.89-5.62,417.32-4,468.17l-1.28,0s-13.06-405.7-11.93-474.58c.64-39.58,13.95-58.28,25.16-67A25.1,25.1,0,0,1,215.48,55.18Z"/><path class="cls-3" d="M225.45,96.89a8,8,0,0,0-9.7-.13c-3.88,2.79-8.79,9.07-9,23.07-.28,16.74,10.5,92.33,16.61,133.73a2.87,2.87,0,0,0,5.71-.28l5.79-99S239.43,108.18,225.45,96.89Z"/><path class="cls-4" d="M321.78,100.81c-61.78-2.63-28.06,224-28.66,289.1-.58,63.25-67.88,45.95-71.62,44.95.18-1.34.38-2.72.61-4.16,0,0,52.91,4.12,53.51-60.94S242.51,78,304.28,80.67c0,0,14.31-.5,22.59,21.18A15.14,15.14,0,0,0,321.78,100.81Z"/><path class="cls-3" d="M186.91,84.61c-5-3.71-9.64-7.74-14.25-11.84s-9.08-8.36-13.3-12.9c5,3.7,9.65,7.73,14.25,11.84S182.69,80.07,186.91,84.61Z"/><path class="cls-3" d="M203.19,128.83c-5-3.7-9.65-7.73-14.25-11.84s-9.09-8.35-13.3-12.9c5,3.7,9.65,7.73,14.25,11.84S199,124.29,203.19,128.83Z"/><path class="cls-3" d="M174.15,130.47c-5-3.7-9.65-7.73-14.25-11.83s-9.08-8.36-13.3-12.9c5,3.7,9.65,7.73,14.25,11.83S169.93,125.93,174.15,130.47Z"/><path class="cls-3" d="M242.55,64.74c-3.48,5.12-7.3,10-11.2,14.75S223.4,88.93,219,93.34c3.48-5.13,7.3-10,11.21-14.75S238.2,69.15,242.55,64.74Z"/><path class="cls-3" d="M254.72,103c-3.48,5.12-7.3,10-11.2,14.75s-8,9.44-12.31,13.85c3.48-5.13,7.3-10,11.21-14.76S250.37,107.45,254.72,103Z"/><path class="cls-3" d="M224.55,35.39c-3.48,5.12-7.3,10-11.2,14.75S205.4,59.58,201,64c3.48-5.13,7.3-10,11.21-14.75S220.2,39.8,224.55,35.39Z"/><path class="cls-3" d="M190.82,176.82c-5-3.7-9.65-7.73-14.25-11.84s-9.09-8.35-13.3-12.9c5,3.71,9.65,7.73,14.25,11.84S186.6,172.28,190.82,176.82Z"/><path class="cls-3" d="M207.09,221c-5-3.7-9.64-7.73-14.25-11.83s-9.08-8.36-13.29-12.9c5,3.7,9.64,7.73,14.25,11.83S202.88,216.5,207.09,221Z"/><path class="cls-3" d="M167.15,219.44c-3.22-5.29-6.06-10.77-8.8-16.3S153,192,150.83,186.21c3.23,5.29,6.06,10.77,8.8,16.3S164.94,213.66,167.15,219.44Z"/><path class="cls-3" d="M246.46,157c-3.48,5.13-7.3,10-11.2,14.76s-8,9.44-12.31,13.84c3.48-5.12,7.3-10,11.2-14.75S242.11,161.36,246.46,157Z"/><path class="cls-3" d="M258.63,195.25c-3.48,5.12-7.3,10-11.2,14.75s-8,9.44-12.31,13.85c3.48-5.13,7.3-10,11.2-14.75S254.28,199.66,258.63,195.25Z"/><path class="cls-3" d="M228.46,127.6c-3.48,5.13-7.3,10-11.2,14.76s-8,9.44-12.31,13.84c3.48-5.12,7.3-10,11.2-14.75S224.11,132,228.46,127.6Z"/><path class="cls-3" d="M174.87,271.6c-3.71-5-7.06-10.14-10.31-15.39s-6.34-10.58-9.1-16.13c3.72,4.95,7.06,10.14,10.32,15.39S172.12,266.06,174.87,271.6Z"/><path class="cls-3" d="M203.08,319.49c-5-3.71-9.65-7.73-14.25-11.84s-9.09-8.35-13.3-12.9c5,3.7,9.65,7.73,14.25,11.84S198.86,315,203.08,319.49Z"/><path class="cls-3" d="M168.75,313.64c-5-3.7-9.65-7.73-14.25-11.84s-9.09-8.35-13.3-12.9c5,3.71,9.65,7.73,14.25,11.84S164.53,309.1,168.75,313.64Z"/><path class="cls-3" d="M246.05,271c-3.48,5.12-7.3,10-11.2,14.75s-7.95,9.44-12.31,13.85c3.48-5.12,7.3-10,11.21-14.75S241.7,275.44,246.05,271Z"/><path class="cls-3" d="M250.56,314.79c-3.48,5.12-7.3,10-11.2,14.75s-8,9.44-12.31,13.85c3.48-5.13,7.3-10,11.21-14.75S246.21,319.2,250.56,314.79Z"/><path class="cls-3" d="M200.1,245.59c2.19,5.79,4,11.7,5.65,17.64s3.17,11.93,4.28,18c-2.2-5.79-4-11.7-5.65-17.64S201.21,251.68,200.1,245.59Z"/><path class="cls-3" d="M187.3,371.63c-5-3.7-9.64-7.73-14.25-11.84s-9.08-8.35-13.29-12.9c5,3.71,9.64,7.73,14.25,11.84S183.09,367.09,187.3,371.63Z"/><path class="cls-3" d="M203.58,415.86c-5-3.71-9.65-7.74-14.25-11.84s-9.09-8.36-13.3-12.9c5,3.7,9.65,7.73,14.25,11.84S199.36,411.32,203.58,415.86Z"/><path class="cls-3" d="M169.25,410c-5-3.71-9.64-7.73-14.25-11.84s-9.08-8.36-13.3-12.9c5,3.7,9.65,7.73,14.25,11.84S165,405.47,169.25,410Z"/><path class="cls-3" d="M216.38,360.65c-.88,6.14-2.18,12.17-3.59,18.18s-3,12-5,17.84c.88-6.13,2.18-12.16,3.59-18.17S214.41,366.53,216.38,360.65Z"/><path class="cls-3" d="M242.66,389.86c-3.49,5.12-7.31,10-11.21,14.75s-7.95,9.44-12.31,13.85c3.49-5.13,7.31-10,11.21-14.75S238.3,394.27,242.66,389.86Z"/><path class="cls-3" d="M224.94,322.41c-3.48,5.13-7.3,10-11.2,14.76s-8,9.44-12.31,13.85c3.49-5.13,7.3-10,11.21-14.76S220.59,326.82,224.94,322.41Z"/><path class="cls-3" d="M199.8,456.46c-2.18-1.55-4.26-3.21-6.3-4.9s-4.05-3.45-6-5.21-3.93-3.58-5.83-5.44-3.77-3.74-5.55-5.73c2.17,1.55,4.25,3.21,6.3,4.9s4.05,3.44,6,5.21,3.92,3.58,5.82,5.44S198,454.47,199.8,456.46Z"/><path class="cls-3" d="M170.25,451.43c-2.17-1.55-4.25-3.21-6.29-4.91s-4.05-3.44-6-5.2-3.92-3.58-5.82-5.44-3.78-3.74-5.55-5.74c2.17,1.56,4.25,3.21,6.3,4.91s4,3.44,6,5.21,3.92,3.58,5.82,5.44S168.47,449.44,170.25,451.43Z"/><path class="cls-3" d="M240.66,452.42c-1.46,2.24-3,4.39-4.63,6.51s-3.26,4.19-4.93,6.25-3.41,4.07-5.18,6.05-3.58,3.94-5.49,5.8c1.46-2.24,3-4.39,4.63-6.51s3.26-4.19,4.93-6.25,3.41-4.07,5.18-6S238.75,454.28,240.66,452.42Z"/><path class="cls-3" d="M186.22,501.34c-2.17-1.56-4.25-3.22-6.3-4.91s-4-3.44-6-5.21-3.92-3.58-5.82-5.43-3.78-3.75-5.56-5.74c2.18,1.55,4.26,3.21,6.3,4.91s4.05,3.44,6,5.2,3.93,3.58,5.82,5.44S184.44,499.34,186.22,501.34Z"/><path class="cls-3" d="M200.23,539.4c-2.18-1.56-4.25-3.22-6.3-4.91s-4.05-3.44-6-5.21-3.93-3.58-5.82-5.44-3.78-3.74-5.56-5.73c2.18,1.55,4.25,3.21,6.3,4.9s4.05,3.45,6,5.21,3.92,3.58,5.82,5.44S198.45,537.4,200.23,539.4Z"/><path class="cls-3" d="M170.69,534.36c-2.18-1.55-4.26-3.21-6.3-4.91s-4-3.44-6-5.2-3.92-3.58-5.82-5.44-3.77-3.74-5.55-5.74c2.17,1.56,4.25,3.22,6.3,4.91s4.05,3.44,6,5.21,3.92,3.58,5.82,5.44S168.91,532.37,170.69,534.36Z"/><path class="cls-3" d="M211.25,491.89c-.33,2.65-.79,5.27-1.31,7.88s-1.09,5.2-1.69,7.78-1.27,5.16-2,7.72-1.48,5.1-2.39,7.62c.33-2.65.79-5.27,1.3-7.88s1.09-5.2,1.69-7.79,1.28-5.15,2-7.71S210.34,494.4,211.25,491.89Z"/><path class="cls-3" d="M233.86,517c-1.46,2.24-3,4.39-4.63,6.51s-3.26,4.19-4.94,6.25-3.4,4.08-5.18,6.06-3.57,3.93-5.49,5.8c1.46-2.24,3-4.39,4.63-6.51s3.26-4.2,4.94-6.25,3.41-4.08,5.18-6.06S231.94,518.89,233.86,517Z"/><path class="cls-3" d="M218.62,459c-1.46,2.24-3,4.39-4.63,6.51s-3.26,4.19-4.94,6.25-3.41,4.08-5.18,6.06-3.57,3.93-5.49,5.79c1.46-2.24,3-4.39,4.63-6.5s3.26-4.2,4.94-6.26,3.4-4.07,5.18-6.05S216.7,460.84,218.62,459Z"/><path class="cls-3" d="M98.82,183.06c-2.17-1.55-4.25-3.21-6.3-4.91s-4-3.44-6-5.2-3.92-3.58-5.82-5.44-3.78-3.74-5.55-5.74c2.17,1.55,4.25,3.21,6.29,4.91s4,3.44,6,5.21,3.92,3.58,5.82,5.44S97,181.07,98.82,183.06Z"/><path class="cls-3" d="M69.28,178c-2.17-1.56-4.25-3.21-6.3-4.91s-4-3.44-6-5.2-3.92-3.58-5.82-5.44-3.78-3.75-5.56-5.74c2.18,1.55,4.26,3.21,6.3,4.91s4.05,3.44,6,5.2,3.92,3.58,5.82,5.44S67.5,176,69.28,178Z"/><path class="cls-3" d="M139.69,179c-1.46,2.23-3,4.38-4.63,6.5s-3.26,4.2-4.94,6.26-3.4,4.07-5.18,6.05-3.57,3.94-5.49,5.8c1.46-2.24,3-4.39,4.63-6.51s3.26-4.19,4.94-6.25,3.41-4.07,5.18-6.05S137.77,180.88,139.69,179Z"/><path class="cls-3" d="M85.25,227.93c-2.18-1.55-4.26-3.21-6.3-4.9s-4-3.45-6-5.21-3.93-3.58-5.83-5.44-3.77-3.74-5.55-5.74c2.17,1.56,4.25,3.22,6.3,4.91s4,3.44,6,5.21,3.92,3.58,5.82,5.44S83.47,225.94,85.25,227.93Z"/><path class="cls-3" d="M99.25,266c-2.17-1.55-4.25-3.21-6.29-4.91s-4-3.44-6-5.2S83,252.3,81.1,250.44s-3.78-3.74-5.55-5.74c2.17,1.56,4.25,3.21,6.3,4.91s4,3.44,6,5.21,3.92,3.58,5.82,5.44S97.48,264,99.25,266Z"/><path class="cls-3" d="M69.71,261c-2.17-1.55-4.25-3.21-6.3-4.91s-4-3.44-6-5.2-3.92-3.58-5.82-5.44-3.78-3.74-5.55-5.74c2.17,1.55,4.25,3.21,6.29,4.91s4.05,3.44,6,5.2,3.92,3.59,5.82,5.44S67.93,259,69.71,261Z"/><path class="cls-3" d="M110.27,218.49c-.32,2.65-.79,5.27-1.3,7.87s-1.09,5.2-1.69,7.79-1.27,5.16-2,7.71-1.48,5.11-2.38,7.62c.32-2.65.79-5.27,1.3-7.87s1.09-5.2,1.69-7.79,1.27-5.16,2-7.71S109.37,221,110.27,218.49Z"/><path class="cls-3" d="M132.88,243.62c-1.45,2.24-3,4.39-4.63,6.5s-3.26,4.2-4.93,6.26-3.41,4.07-5.18,6.05-3.57,3.94-5.49,5.8c1.46-2.24,3-4.39,4.63-6.51s3.26-4.19,4.93-6.25,3.41-4.07,5.19-6.05S131,245.48,132.88,243.62Z"/><path class="cls-3" d="M117.64,185.58c-1.46,2.24-3,4.39-4.63,6.5s-3.26,4.2-4.93,6.26-3.41,4.07-5.18,6-3.58,3.94-5.49,5.8c1.45-2.24,3-4.39,4.63-6.51s3.26-4.19,4.93-6.25,3.41-4.07,5.18-6.05S115.73,187.44,117.64,185.58Z"/><path class="cls-3" d="M100.74,76.51c-2.18-1.56-4.26-3.22-6.3-4.91s-4-3.44-6-5.21S84.48,62.81,82.58,61,78.81,57.21,77,55.22c2.17,1.55,4.25,3.21,6.3,4.91s4,3.44,6,5.2,3.92,3.58,5.82,5.44S99,74.51,100.74,76.51Z"/><path class="cls-3" d="M71.19,71.47c-2.17-1.55-4.25-3.21-6.29-4.9s-4.05-3.45-6-5.21S54.94,57.78,53,55.92s-3.78-3.74-5.55-5.73c2.17,1.55,4.25,3.21,6.3,4.9s4,3.44,6,5.21,3.92,3.58,5.82,5.44S69.42,69.48,71.19,71.47Z"/><path class="cls-3" d="M141.6,72.46c-1.46,2.24-3,4.39-4.63,6.51s-3.26,4.19-4.93,6.25-3.41,4.08-5.18,6.06-3.58,3.93-5.49,5.79c1.46-2.24,3-4.38,4.63-6.5s3.26-4.2,4.93-6.26,3.41-4.07,5.19-6S139.69,74.33,141.6,72.46Z"/><path class="cls-3" d="M87.16,121.38c-2.17-1.55-4.25-3.21-6.3-4.91s-4-3.44-6-5.2-3.92-3.58-5.82-5.44-3.78-3.74-5.56-5.74c2.18,1.55,4.26,3.21,6.3,4.91s4,3.44,6,5.2,3.93,3.59,5.82,5.44S85.38,119.39,87.16,121.38Z"/><path class="cls-3" d="M101.17,159.44c-2.18-1.56-4.25-3.21-6.3-4.91s-4.05-3.44-6-5.2-3.92-3.58-5.82-5.44-3.78-3.75-5.56-5.74c2.18,1.55,4.26,3.21,6.3,4.91s4,3.44,6,5.2,3.92,3.58,5.82,5.44S99.39,157.44,101.17,159.44Z"/><path class="cls-3" d="M71.63,154.41c-2.18-1.56-4.26-3.22-6.3-4.91s-4-3.44-6-5.21-3.93-3.58-5.83-5.44-3.77-3.74-5.55-5.73c2.17,1.55,4.25,3.21,6.3,4.9s4.05,3.45,6,5.21,3.92,3.58,5.82,5.44S69.85,152.41,71.63,154.41Z"/><path class="cls-3" d="M112.19,111.93c-.33,2.65-.79,5.27-1.31,7.88s-1.09,5.2-1.69,7.79-1.27,5.15-2,7.71-1.48,5.11-2.39,7.62c.33-2.65.79-5.27,1.3-7.88s1.09-5.2,1.7-7.78,1.27-5.16,2-7.72S111.28,114.45,112.19,111.93Z"/><path class="cls-3" d="M134.8,137.07c-1.46,2.23-3,4.38-4.63,6.5s-3.26,4.19-4.94,6.26-3.4,4.07-5.18,6-3.57,3.94-5.49,5.8c1.46-2.24,3-4.39,4.63-6.51s3.26-4.19,4.94-6.25,3.41-4.08,5.18-6S132.88,138.93,134.8,137.07Z"/><path class="cls-3" d="M119.56,79c-1.46,2.24-3,4.39-4.63,6.51s-3.26,4.19-4.94,6.25-3.4,4.08-5.18,6.06-3.57,3.94-5.49,5.8c1.46-2.24,3-4.39,4.63-6.51s3.26-4.19,4.94-6.25,3.4-4.08,5.18-6.06S117.64,80.89,119.56,79Z"/><path class="cls-3" d="M306.57,108.86c-2.18-1.56-4.25-3.22-6.3-4.91s-4-3.44-6-5.21-3.92-3.58-5.82-5.43-3.78-3.75-5.56-5.74c2.18,1.55,4.26,3.21,6.3,4.91s4,3.44,6,5.2,3.92,3.58,5.82,5.44S304.79,106.86,306.57,108.86Z"/><path class="cls-3" d="M277,103.82c-2.18-1.55-4.26-3.21-6.3-4.9s-4.05-3.45-6-5.21-3.93-3.58-5.83-5.44-3.77-3.74-5.55-5.73c2.17,1.55,4.25,3.21,6.3,4.9s4.05,3.44,6,5.21,3.92,3.58,5.82,5.44S275.25,101.83,277,103.82Z"/><path class="cls-3" d="M347.43,104.81c-1.45,2.24-3,4.39-4.62,6.51s-3.27,4.19-4.94,6.25-3.41,4.08-5.18,6.06-3.57,3.93-5.49,5.8c1.46-2.24,3-4.39,4.63-6.51s3.26-4.2,4.94-6.25,3.4-4.08,5.18-6.06S345.52,106.68,347.43,104.81Z"/><path class="cls-3" d="M293,153.73c-2.17-1.55-4.25-3.21-6.29-4.91s-4.05-3.44-6-5.2-3.92-3.58-5.82-5.44-3.78-3.74-5.55-5.74c2.17,1.55,4.25,3.21,6.3,4.91s4,3.44,6,5.2,3.92,3.59,5.82,5.45S291.21,151.74,293,153.73Z"/><path class="cls-3" d="M307,191.79c-2.17-1.56-4.25-3.21-6.3-4.91s-4.05-3.44-6-5.2-3.92-3.58-5.82-5.44-3.78-3.74-5.56-5.74c2.18,1.55,4.26,3.21,6.3,4.91s4.05,3.44,6,5.2,3.92,3.58,5.82,5.44S305.22,189.79,307,191.79Z"/><path class="cls-3" d="M277.46,186.76c-2.18-1.56-4.25-3.22-6.3-4.91s-4.05-3.44-6-5.21-3.93-3.58-5.82-5.44-3.78-3.74-5.56-5.73c2.18,1.55,4.25,3.21,6.3,4.9s4.05,3.45,6,5.21,3.92,3.58,5.82,5.44S275.68,184.76,277.46,186.76Z"/><path class="cls-3" d="M318,144.28c-.33,2.65-.79,5.27-1.3,7.88s-1.09,5.2-1.69,7.79-1.27,5.15-2,7.71-1.48,5.11-2.38,7.62c.32-2.65.78-5.27,1.3-7.88s1.09-5.2,1.69-7.78,1.27-5.16,2-7.72S317.12,146.8,318,144.28Z"/><path class="cls-3" d="M340.63,169.42c-1.46,2.23-3,4.38-4.63,6.5s-3.26,4.2-4.94,6.26-3.4,4.07-5.18,6-3.57,3.94-5.48,5.8c1.45-2.24,3-4.39,4.62-6.51s3.26-4.19,4.94-6.25,3.41-4.08,5.18-6.05S338.71,171.28,340.63,169.42Z"/><path class="cls-3" d="M325.39,111.37c-1.46,2.24-3,4.39-4.63,6.51s-3.26,4.19-4.94,6.25-3.4,4.08-5.18,6.06-3.57,3.94-5.49,5.8c1.46-2.24,3-4.39,4.63-6.51s3.26-4.19,4.94-6.25,3.41-4.08,5.18-6.06S323.47,113.24,325.39,111.37Z"/><path class="cls-3" d="M310.79,225.4c-2.18-1.55-4.26-3.21-6.3-4.91s-4.05-3.44-6-5.2-3.93-3.58-5.83-5.44-3.77-3.74-5.55-5.74c2.18,1.55,4.25,3.21,6.3,4.91s4.05,3.44,6,5.2,3.92,3.59,5.82,5.45S309,223.41,310.79,225.4Z"/><path class="cls-3" d="M281.24,220.37c-2.17-1.56-4.25-3.21-6.29-4.91s-4.05-3.44-6-5.21-3.92-3.58-5.82-5.43-3.78-3.75-5.55-5.74c2.17,1.55,4.25,3.21,6.3,4.91s4,3.44,6,5.2,3.92,3.58,5.82,5.44S279.47,218.37,281.24,220.37Z"/><path class="cls-3" d="M351.65,221.36c-1.45,2.23-3,4.38-4.63,6.5s-3.26,4.19-4.93,6.25-3.41,4.08-5.18,6.06-3.57,3.94-5.49,5.8c1.46-2.24,3-4.39,4.63-6.51s3.26-4.19,4.94-6.25,3.4-4.08,5.18-6.05S349.74,223.22,351.65,221.36Z"/><path class="cls-3" d="M297.21,270.27c-2.17-1.55-4.25-3.21-6.3-4.91s-4-3.44-6-5.2-3.92-3.58-5.82-5.44-3.78-3.74-5.55-5.74c2.17,1.56,4.25,3.22,6.29,4.91s4.05,3.44,6,5.21,3.92,3.58,5.82,5.44S295.43,268.28,297.21,270.27Z"/><path class="cls-3" d="M311.22,308.33c-2.17-1.55-4.25-3.21-6.3-4.91s-4.05-3.44-6-5.2-3.92-3.58-5.82-5.44-3.78-3.74-5.56-5.74c2.18,1.56,4.26,3.21,6.3,4.91s4.05,3.44,6,5.21,3.92,3.58,5.82,5.44S309.44,306.34,311.22,308.33Z"/><path class="cls-3" d="M281.68,303.3c-2.18-1.55-4.26-3.21-6.3-4.91s-4.05-3.44-6-5.2-3.93-3.58-5.83-5.44S259.75,284,258,282c2.17,1.55,4.25,3.21,6.3,4.91s4.05,3.44,6,5.2,3.92,3.59,5.82,5.44S279.9,301.31,281.68,303.3Z"/><path class="cls-3" d="M322.24,260.83c-.33,2.65-.79,5.27-1.31,7.87s-1.08,5.2-1.68,7.79-1.28,5.16-2,7.71-1.48,5.11-2.39,7.62c.33-2.65.79-5.27,1.31-7.88s1.08-5.19,1.69-7.78,1.27-5.16,2-7.71S321.34,263.34,322.24,260.83Z"/><path class="cls-3" d="M344.85,286c-1.46,2.24-3,4.39-4.63,6.5s-3.26,4.2-4.94,6.26-3.4,4.07-5.18,6-3.57,3.94-5.48,5.8c1.45-2.24,3-4.39,4.62-6.51s3.26-4.19,4.94-6.25,3.41-4.07,5.18-6.05S342.93,287.82,344.85,286Z"/><path class="cls-3" d="M329.61,227.92c-1.46,2.24-3,4.39-4.63,6.5s-3.26,4.2-4.94,6.26-3.4,4.07-5.18,6-3.57,3.94-5.49,5.8c1.46-2.24,3-4.39,4.63-6.51s3.26-4.19,4.94-6.25,3.41-4.07,5.18-6.05S327.69,229.78,329.61,227.92Z"/><path class="cls-3" d="M305.14,338.27c-2.17-1.56-4.25-3.22-6.3-4.91s-4-3.44-6-5.21-3.92-3.58-5.82-5.44-3.78-3.74-5.55-5.73c2.17,1.55,4.25,3.21,6.29,4.9s4,3.45,6,5.21,3.92,3.58,5.82,5.44S303.36,336.27,305.14,338.27Z"/><path class="cls-3" d="M275.6,333.23c-2.17-1.55-4.25-3.21-6.3-4.91s-4.05-3.44-6-5.2-3.92-3.58-5.82-5.44-3.78-3.74-5.56-5.74c2.18,1.56,4.26,3.22,6.3,4.91s4.05,3.44,6,5.21,3.92,3.58,5.82,5.44S273.82,331.24,275.6,333.23Z"/><path class="cls-3" d="M346,334.22c-1.46,2.24-3,4.39-4.63,6.51s-3.26,4.19-4.94,6.25-3.4,4.08-5.18,6-3.57,3.94-5.48,5.8c1.45-2.24,3-4.39,4.62-6.5s3.26-4.2,4.94-6.26,3.41-4.07,5.18-6.05S344.09,336.08,346,334.22Z"/><path class="cls-3" d="M291.57,383.14c-2.18-1.55-4.25-3.21-6.3-4.91s-4-3.44-6-5.2-3.93-3.58-5.82-5.44-3.78-3.74-5.56-5.74c2.18,1.55,4.25,3.21,6.3,4.91s4,3.44,6,5.2,3.92,3.59,5.82,5.44S289.79,381.15,291.57,383.14Z"/><path class="cls-3" d="M331.56,412.41c-2.47,1-5,1.9-7.5,2.74s-5.06,1.61-7.61,2.36-5.11,1.43-7.69,2.06-5.18,1.22-7.81,1.67c2.47-1,5-1.91,7.5-2.75s5.06-1.61,7.61-2.35,5.11-1.43,7.7-2.06S328.93,412.86,331.56,412.41Z"/><path class="cls-3" d="M276,416.17c-2.17-1.56-4.25-3.22-6.3-4.91s-4-3.44-6-5.21-3.92-3.58-5.82-5.44-3.78-3.74-5.55-5.73c2.17,1.55,4.25,3.21,6.29,4.9s4.05,3.44,6,5.21,3.92,3.58,5.82,5.44S274.25,414.17,276,416.17Z"/><path class="cls-3" d="M316.59,373.69c-.32,2.65-.79,5.27-1.3,7.88s-1.09,5.2-1.69,7.79-1.27,5.15-2,7.71-1.49,5.1-2.39,7.62c.32-2.65.79-5.27,1.3-7.88s1.09-5.2,1.69-7.78,1.27-5.16,2-7.72S315.69,376.21,316.59,373.69Z"/><path class="cls-3" d="M312.69,441.71c-2.66-.23-5.29-.59-7.92-1s-5.24-.88-7.84-1.38-5.21-1.07-7.79-1.69-5.16-1.28-7.71-2.09c2.67.22,5.3.58,7.93,1s5.23.89,7.84,1.39,5.2,1.07,7.79,1.69S310.15,440.9,312.69,441.71Z"/><path class="cls-3" d="M324,340.78c-1.46,2.24-3,4.39-4.63,6.51s-3.26,4.19-4.93,6.25-3.41,4.08-5.18,6.06-3.58,3.93-5.49,5.8c1.46-2.24,3-4.39,4.63-6.51s3.26-4.19,4.93-6.25,3.41-4.08,5.18-6.06S322.05,342.65,324,340.78Z"/><path class="cls-2" d="M23.15,364S8.81,363,9,395.51s-9,95.72,1.22,117,16,29.86,45.5,30.34c0,0,1.59-4.51.25-15.11,0,0-24.63,1.11-23.93-29.11S51.88,363.71,23.15,364Z"/><path class="cls-3" d="M34.39,387.17a1.74,1.74,0,0,0-2.13,0c-.85.62-1.91,2-1.9,5.11,0,3.69,2.66,20.29,4.16,29.38a.64.64,0,0,0,1.26-.09l.9-21.81S37.51,389.6,34.39,387.17Z"/><path class="cls-4" d="M9,395.51C8.81,363,23.15,364,23.15,364c3.67,0,4.06-.93,6.31,2.08-6.69.85-13.87,7.89-13.68,32.92.24,31.52-9,92.84,1.27,113.53,9,18.07,18.17,26.73,39,28.94a9.16,9.16,0,0,1-.34,1.43c-29.46-.48-35.25-9-45.5-30.34S9.26,428,9,395.51Z"/><path class="cls-2" d="M120.2,416.68s14.37-.52,13.08,32,5.9,96-5,116.94-17,29.32-46.47,28.84c0,0-1.44-4.56.25-15.11,0,0,24.59,1.91,24.86-28.31S91.5,415.46,120.2,416.68Z"/><path class="cls-2" d="M78.08,379.4a11,11,0,0,0-13.55-.51c-5.34,3.8-12.13,12.41-12.45,31.7-.52,32,5.55,220.49,5.55,220.49l22.86.37L90.64,457.86S96.85,395.34,78.08,379.4Z"/><path class="cls-2" d="M64.53,378.89a11,11,0,0,1,13.55.51c3.58,3,6.24,7.76,8.22,13.42-3.09-4.43-9.22-4.69-12.12-3.27-7.11,3.49-8.82,17.51-9.14,36.8-.43,26.38-3.69,159-2.26,204.81l-5.15-.08s-6.07-188.49-5.55-220.49C52.4,391.3,59.19,382.69,64.53,378.89Z"/><path class="cls-4" d="M78.94,380.19l.07.07c-12-2.87-18.55,10.37-18.93,33.32-.48,29.68-2.61,193.89-1.86,217.51h-.59s-6.07-188.49-5.55-220.49c.31-18.39,6.49-27.08,11.69-31.14A11.67,11.67,0,0,1,78.94,380.19Z"/><path class="cls-3" d="M83.57,399.57a3.69,3.69,0,0,0-4.5-.06c-1.81,1.3-4.09,4.22-4.19,10.72-.13,7.78,4.88,42.9,7.72,62.13a1.33,1.33,0,0,0,2.65-.13l2.69-46S90.07,404.82,83.57,399.57Z"/><path class="cls-4" d="M128.33,426c-28.7-1.22-13,104.09-13.32,134.32-.27,29.39-31.54,21.35-33.27,20.88.08-.62.17-1.26.28-1.93,0,0,24.58,1.91,24.86-28.31S91.5,415.46,120.2,416.68c0,0,6.64-.23,10.49,9.84A7,7,0,0,0,128.33,426Z"/><path class="cls-3" d="M65.67,393.87a33.63,33.63,0,0,1-3.57-2.46c-1.15-.88-2.23-1.81-3.31-2.76s-2.1-1.95-3.09-3a33.1,33.1,0,0,1-2.83-3.29,34.2,34.2,0,0,1,3.57,2.46c1.14.87,2.23,1.81,3.3,2.76s2.11,2,3.1,3A33.29,33.29,0,0,1,65.67,393.87Z"/><path class="cls-3" d="M73.23,414.41A32.21,32.21,0,0,1,69.66,412c-1.14-.87-2.23-1.81-3.31-2.75s-2.1-1.95-3.09-3a33.1,33.1,0,0,1-2.83-3.29A32.21,32.21,0,0,1,64,405.38c1.14.87,2.23,1.81,3.31,2.75s2.1,1.95,3.09,3A31.89,31.89,0,0,1,73.23,414.41Z"/><path class="cls-3" d="M59.74,415.18a33.63,33.63,0,0,1-3.57-2.46c-1.15-.88-2.23-1.81-3.31-2.76s-2.1-1.95-3.09-3a33.1,33.1,0,0,1-2.83-3.29,34.2,34.2,0,0,1,3.57,2.46c1.14.87,2.23,1.81,3.31,2.76s2.1,2,3.09,3A33.29,33.29,0,0,1,59.74,415.18Z"/><path class="cls-3" d="M91.52,384.63a32,32,0,0,1-2.3,3.68c-.83,1.18-1.71,2.31-2.61,3.42s-1.86,2.19-2.85,3.22a31.9,31.9,0,0,1-3.17,3,34.4,34.4,0,0,1,2.31-3.67c.82-1.18,1.7-2.31,2.61-3.42s1.85-2.19,2.85-3.23A33,33,0,0,1,91.52,384.63Z"/><path class="cls-3" d="M97.17,402.43a32.8,32.8,0,0,1-2.3,3.67c-.82,1.18-1.71,2.31-2.61,3.43s-1.85,2.18-2.85,3.22a33,33,0,0,1-3.16,3,32,32,0,0,1,2.3-3.68c.82-1.18,1.71-2.31,2.61-3.42S93,406.43,94,405.4A33,33,0,0,1,97.17,402.43Z"/><path class="cls-3" d="M83.16,371a34.4,34.4,0,0,1-2.31,3.67c-.82,1.18-1.71,2.31-2.6,3.43s-1.86,2.18-2.86,3.22a33,33,0,0,1-3.16,3,32,32,0,0,1,2.3-3.68c.82-1.18,1.71-2.31,2.61-3.42S79,375,80,374A33,33,0,0,1,83.16,371Z"/><path class="cls-3" d="M67.48,436.71a34.2,34.2,0,0,1-3.57-2.46c-1.14-.87-2.23-1.81-3.3-2.76s-2.11-1.94-3.1-3a33,33,0,0,1-2.83-3.28,31.85,31.85,0,0,1,3.58,2.45c1.14.88,2.22,1.81,3.3,2.76s2.1,1.95,3.09,3A33.1,33.1,0,0,1,67.48,436.71Z"/><path class="cls-3" d="M75,457.26a35.81,35.81,0,0,1-3.57-2.46c-1.14-.88-2.23-1.81-3.3-2.76s-2.11-2-3.1-3a33,33,0,0,1-2.82-3.29,34.2,34.2,0,0,1,3.57,2.46c1.14.87,2.23,1.81,3.3,2.76s2.1,1.95,3.09,3A32,32,0,0,1,75,457.26Z"/><path class="cls-3" d="M56.49,456.51a32.76,32.76,0,0,1-2.4-3.61c-.73-1.24-1.39-2.51-2-3.79s-1.22-2.6-1.75-3.93a33.69,33.69,0,0,1-1.4-4.11,33.86,33.86,0,0,1,2.4,3.62c.73,1.23,1.39,2.51,2,3.79s1.22,2.59,1.75,3.93A33,33,0,0,1,56.49,456.51Z"/><path class="cls-3" d="M93.33,427.48a32.8,32.8,0,0,1-2.3,3.67c-.82,1.18-1.71,2.31-2.61,3.43s-1.85,2.18-2.85,3.22a33,33,0,0,1-3.16,3,32,32,0,0,1,2.3-3.68c.82-1.18,1.71-2.31,2.61-3.42s1.86-2.19,2.85-3.22A35.56,35.56,0,0,1,93.33,427.48Z"/><path class="cls-3" d="M99,445.27a32.94,32.94,0,0,1-2.3,3.68c-.83,1.18-1.71,2.3-2.61,3.42s-1.86,2.19-2.85,3.22a34.35,34.35,0,0,1-3.17,3,34.46,34.46,0,0,1,2.3-3.68c.83-1.18,1.71-2.3,2.61-3.42s1.86-2.18,2.86-3.22A33,33,0,0,1,99,445.27Z"/><path class="cls-3" d="M85,413.84a32.94,32.94,0,0,1-2.3,3.68c-.82,1.18-1.71,2.3-2.61,3.42s-1.85,2.19-2.85,3.22a33,33,0,0,1-3.16,3,32.94,32.94,0,0,1,2.3-3.68c.82-1.18,1.71-2.3,2.61-3.42s1.85-2.18,2.85-3.22A33,33,0,0,1,85,413.84Z"/><path class="cls-3" d="M60.07,480.75a34.57,34.57,0,0,1-2.72-3.37c-.85-1.17-1.63-2.37-2.39-3.58s-1.47-2.47-2.12-3.75a30.53,30.53,0,0,1-1.78-3.95,33.78,33.78,0,0,1,2.73,3.37c.84,1.16,1.62,2.36,2.38,3.58s1.47,2.46,2.12,3.74A33.65,33.65,0,0,1,60.07,480.75Z"/><path class="cls-3" d="M73.18,503a30.91,30.91,0,0,1-3.57-2.46c-1.15-.87-2.23-1.8-3.31-2.75s-2.1-1.95-3.09-3a33.1,33.1,0,0,1-2.83-3.29A34.2,34.2,0,0,1,64,494c1.14.87,2.23,1.81,3.31,2.76s2.1,1.94,3.09,3A34.35,34.35,0,0,1,73.18,503Z"/><path class="cls-3" d="M57.23,500.28a32.21,32.21,0,0,1-3.57-2.46c-1.15-.88-2.23-1.81-3.31-2.76s-2.1-1.95-3.09-3a32,32,0,0,1-2.83-3.29A34.2,34.2,0,0,1,48,491.24c1.14.88,2.23,1.81,3.31,2.76s2.1,1.95,3.09,3A33.1,33.1,0,0,1,57.23,500.28Z"/><path class="cls-3" d="M93.14,480.48a32.8,32.8,0,0,1-2.3,3.67c-.82,1.18-1.71,2.31-2.61,3.43s-1.85,2.18-2.85,3.22a33,33,0,0,1-3.16,3,32.94,32.94,0,0,1,2.3-3.68c.82-1.18,1.71-2.3,2.61-3.42S89,484.48,90,483.45A35.56,35.56,0,0,1,93.14,480.48Z"/><path class="cls-3" d="M95.24,500.81a31.92,31.92,0,0,1-2.3,3.67c-.82,1.18-1.71,2.31-2.61,3.43s-1.85,2.18-2.85,3.22a33,33,0,0,1-3.16,3,32.94,32.94,0,0,1,2.3-3.68c.82-1.18,1.71-2.3,2.61-3.42s1.85-2.19,2.85-3.22A33,33,0,0,1,95.24,500.81Z"/><path class="cls-3" d="M71.79,468.66a32.22,32.22,0,0,1,1.69,4c.5,1.35.91,2.73,1.31,4.1s.73,2.78,1,4.19a33.83,33.83,0,0,1,.62,4.29,32.22,32.22,0,0,1-1.69-4c-.5-1.35-.91-2.73-1.31-4.1s-.72-2.78-1-4.19A33.83,33.83,0,0,1,71.79,468.66Z"/><path class="cls-3" d="M65.85,527.22a32.21,32.21,0,0,1-3.57-2.46C61.13,523.89,60.05,523,59,522s-2.1-1.94-3.09-3a31.89,31.89,0,0,1-2.83-3.28,30.91,30.91,0,0,1,3.57,2.46c1.14.87,2.23,1.8,3.31,2.75s2.1,1.95,3.09,3A33.1,33.1,0,0,1,65.85,527.22Z"/><path class="cls-3" d="M73.41,547.77a34.2,34.2,0,0,1-3.57-2.46c-1.14-.88-2.23-1.81-3.31-2.76s-2.1-1.95-3.09-3a32,32,0,0,1-2.83-3.29,32.21,32.21,0,0,1,3.57,2.46c1.15.88,2.23,1.81,3.31,2.76s2.1,2,3.09,3A33.1,33.1,0,0,1,73.41,547.77Z"/><path class="cls-3" d="M57.46,545.05a34.2,34.2,0,0,1-3.57-2.46c-1.14-.87-2.23-1.81-3.31-2.76s-2.1-1.94-3.09-3a31.89,31.89,0,0,1-2.83-3.28A30.84,30.84,0,0,1,48.23,536c1.15.88,2.23,1.81,3.31,2.76s2.1,2,3.09,3A33.1,33.1,0,0,1,57.46,545.05Z"/><path class="cls-3" d="M79.36,522.12a34.21,34.21,0,0,1-.46,4.31c-.22,1.42-.52,2.82-.84,4.22s-.7,2.78-1.14,4.15a33.68,33.68,0,0,1-1.54,4.05,32.45,32.45,0,0,1,.45-4.31c.22-1.42.52-2.82.84-4.22s.71-2.78,1.15-4.15A34.33,34.33,0,0,1,79.36,522.12Z"/><path class="cls-3" d="M91.57,535.69a34.4,34.4,0,0,1-2.31,3.67c-.82,1.18-1.7,2.31-2.6,3.43S84.8,545,83.8,546a33,33,0,0,1-3.16,3,32,32,0,0,1,2.3-3.68c.83-1.18,1.71-2.31,2.61-3.42s1.86-2.19,2.86-3.22A33,33,0,0,1,91.57,535.69Z"/><path class="cls-3" d="M83.34,504.35A34.46,34.46,0,0,1,81,508c-.83,1.18-1.71,2.3-2.61,3.42s-1.86,2.19-2.85,3.22a34.35,34.35,0,0,1-3.17,3,32.94,32.94,0,0,1,2.3-3.68c.83-1.17,1.71-2.3,2.61-3.42s1.86-2.18,2.86-3.22A33,33,0,0,1,83.34,504.35Z"/><path class="cls-3" d="M71.65,566.63a24.39,24.39,0,0,1-3.12-2.06c-1-.74-1.94-1.53-2.86-2.35s-1.8-1.69-2.65-2.59a23.91,23.91,0,0,1-2.38-2.89,24.06,24.06,0,0,1,3.12,2.06c1,.75,1.95,1.53,2.86,2.36s1.8,1.69,2.65,2.59A24.6,24.6,0,0,1,71.65,566.63Z"/><path class="cls-3" d="M57.93,564.3a26,26,0,0,1-3.13-2.06c-1-.75-1.94-1.53-2.86-2.36s-1.8-1.69-2.65-2.59a24.89,24.89,0,0,1-2.38-2.89A26,26,0,0,1,50,556.46c1,.75,1.94,1.53,2.86,2.36s1.8,1.69,2.64,2.59A24,24,0,0,1,57.93,564.3Z"/><path class="cls-3" d="M90.64,564.75A25.82,25.82,0,0,1,88.72,568c-.7,1-1.44,2-2.23,3s-1.61,1.87-2.47,2.75a23.77,23.77,0,0,1-2.78,2.51A24.54,24.54,0,0,1,83.16,573c.7-1,1.44-2,2.23-3s1.61-1.87,2.47-2.76A25.6,25.6,0,0,1,90.64,564.75Z"/><path class="cls-3" d="M65.35,587.48a23.82,23.82,0,0,1-3.13-2.06c-1-.74-1.94-1.53-2.86-2.35s-1.8-1.69-2.65-2.59a23.91,23.91,0,0,1-2.38-2.89,23.82,23.82,0,0,1,3.13,2.06c1,.75,1.94,1.53,2.86,2.35s1.8,1.69,2.64,2.6A24.68,24.68,0,0,1,65.35,587.48Z"/><path class="cls-3" d="M71.85,605.16a24.39,24.39,0,0,1-3.12-2.06c-1-.74-1.94-1.53-2.86-2.35s-1.8-1.69-2.65-2.59a23.91,23.91,0,0,1-2.38-2.89A24.87,24.87,0,0,1,64,597.33c1,.75,1.94,1.53,2.85,2.36s1.8,1.69,2.65,2.59A24.6,24.6,0,0,1,71.85,605.16Z"/><path class="cls-3" d="M58.13,602.83A26,26,0,0,1,55,600.77c-1-.75-1.94-1.53-2.86-2.36s-1.8-1.69-2.65-2.59a24.89,24.89,0,0,1-2.38-2.89A26,26,0,0,1,50.24,595c1,.75,1.94,1.53,2.86,2.36s1.8,1.69,2.65,2.59A24.89,24.89,0,0,1,58.13,602.83Z"/><path class="cls-3" d="M77,583.09a24.17,24.17,0,0,1-.31,3.73c-.19,1.23-.42,2.44-.71,3.64s-.62,2.39-1,3.56a25.18,25.18,0,0,1-1.4,3.47,24.27,24.27,0,0,1,.31-3.73c.19-1.22.42-2.43.71-3.63s.62-2.39,1-3.57A24.39,24.39,0,0,1,77,583.09Z"/><path class="cls-3" d="M87.48,594.77A25.69,25.69,0,0,1,85.56,598c-.71,1-1.45,2-2.23,3s-1.61,1.87-2.47,2.76a24.52,24.52,0,0,1-2.78,2.5A23.48,23.48,0,0,1,80,603c.7-1,1.44-2,2.23-3s1.6-1.87,2.47-2.75A23.77,23.77,0,0,1,87.48,594.77Z"/><path class="cls-3" d="M80.4,567.8A25.69,25.69,0,0,1,78.48,571c-.71,1-1.45,2-2.23,3s-1.61,1.88-2.47,2.76A25.6,25.6,0,0,1,71,579.24,22.89,22.89,0,0,1,72.92,576c.7-1,1.44-2,2.22-3s1.61-1.87,2.48-2.76A24.7,24.7,0,0,1,80.4,567.8Z"/><path class="cls-3" d="M24.74,448.9a23.07,23.07,0,0,1-3.12-2.06c-1-.75-1.95-1.53-2.86-2.35s-1.8-1.69-2.65-2.59A24.53,24.53,0,0,1,13.73,439a24.39,24.39,0,0,1,3.12,2.06c1,.74,1.94,1.53,2.86,2.35s1.8,1.69,2.65,2.59A26.69,26.69,0,0,1,24.74,448.9Z"/><path class="cls-3" d="M11,446.56a24.39,24.39,0,0,1-3.12-2.06C6.9,443.76,6,443,5,442.15s-1.8-1.69-2.65-2.59A23.91,23.91,0,0,1,0,436.67a23.82,23.82,0,0,1,3.13,2.06c1,.75,1.94,1.53,2.85,2.36s1.8,1.68,2.65,2.59A24.6,24.6,0,0,1,11,446.56Z"/><path class="cls-3" d="M43.73,447a25.69,25.69,0,0,1-1.92,3.21c-.71,1-1.45,2-2.23,3S38,455.06,37.11,456a25.6,25.6,0,0,1-2.78,2.51,23,23,0,0,1,1.92-3.22c.7-1,1.44-2,2.22-3s1.61-1.87,2.48-2.75A23.86,23.86,0,0,1,43.73,447Z"/><path class="cls-3" d="M18.43,469.75a25.5,25.5,0,0,1-3.12-2.06c-1-.75-1.94-1.53-2.86-2.36s-1.8-1.68-2.65-2.59a24.6,24.6,0,0,1-2.38-2.88,23.07,23.07,0,0,1,3.12,2.06c1,.74,2,1.52,2.86,2.35s1.8,1.69,2.65,2.59A24.71,24.71,0,0,1,18.43,469.75Z"/><path class="cls-3" d="M24.94,487.43a23.71,23.71,0,0,1-3.12-2.06c-1-.75-1.95-1.53-2.86-2.35s-1.8-1.69-2.65-2.59a23.91,23.91,0,0,1-2.38-2.89,24.39,24.39,0,0,1,3.12,2.06c1,.74,1.95,1.53,2.86,2.35s1.8,1.69,2.65,2.59A25.57,25.57,0,0,1,24.94,487.43Z"/><path class="cls-3" d="M11.21,485.09A24.39,24.39,0,0,1,8.09,483c-1-.74-1.94-1.53-2.86-2.35s-1.8-1.69-2.65-2.59A23.91,23.91,0,0,1,.2,475.2a23.82,23.82,0,0,1,3.13,2.06c1,.75,1.94,1.53,2.86,2.36S8,481.3,8.83,482.21A24.6,24.6,0,0,1,11.21,485.09Z"/><path class="cls-3" d="M30.06,465.36a24.28,24.28,0,0,1-.32,3.73c-.18,1.22-.41,2.44-.7,3.64s-.62,2.38-1,3.56a22.89,22.89,0,0,1-1.4,3.47A24.28,24.28,0,0,1,27,476c.18-1.22.41-2.44.7-3.64s.63-2.38,1-3.56A25.69,25.69,0,0,1,30.06,465.36Z"/><path class="cls-3" d="M40.57,477a24.6,24.6,0,0,1-1.93,3.21c-.7,1-1.44,2-2.22,3S34.81,485.08,34,486a24.72,24.72,0,0,1-2.79,2.5,25.69,25.69,0,0,1,1.92-3.21c.71-1,1.45-2,2.23-3s1.61-1.87,2.48-2.76A23.78,23.78,0,0,1,40.57,477Z"/><path class="cls-3" d="M33.48,450.07a24.54,24.54,0,0,1-1.92,3.21c-.7,1-1.44,2-2.22,3s-1.61,1.87-2.48,2.76a23.86,23.86,0,0,1-2.78,2.51A25.11,25.11,0,0,1,26,458.29c.71-1,1.45-2,2.23-3s1.61-1.87,2.47-2.75A24.61,24.61,0,0,1,33.48,450.07Z"/><path class="cls-3" d="M25.63,399.39a23.82,23.82,0,0,1-3.13-2.06c-1-.74-1.94-1.52-2.86-2.35s-1.8-1.69-2.64-2.59a24,24,0,0,1-2.39-2.89,26,26,0,0,1,3.13,2.06c1,.75,1.94,1.53,2.86,2.36s1.8,1.69,2.65,2.59A25.64,25.64,0,0,1,25.63,399.39Z"/><path class="cls-3" d="M11.9,397.06A26.72,26.72,0,0,1,8.78,395c-1-.75-1.94-1.53-2.86-2.36s-1.8-1.69-2.65-2.59a24.6,24.6,0,0,1-2.38-2.88A24.81,24.81,0,0,1,4,389.22c1,.75,1.94,1.53,2.85,2.36s1.8,1.69,2.65,2.59A23.91,23.91,0,0,1,11.9,397.06Z"/><path class="cls-3" d="M44.62,397.51a24.07,24.07,0,0,1-1.93,3.22c-.7,1-1.44,2-2.22,3s-1.61,1.87-2.47,2.76a25.52,25.52,0,0,1-2.78,2.5,24.48,24.48,0,0,1,1.91-3.21c.71-1,1.45-2,2.23-3S41,400.91,41.84,400A23.86,23.86,0,0,1,44.62,397.51Z"/><path class="cls-3" d="M19.32,420.24a24.39,24.39,0,0,1-3.12-2.06c-1-.74-1.95-1.53-2.86-2.35s-1.8-1.69-2.65-2.59a23.91,23.91,0,0,1-2.38-2.89,23.71,23.71,0,0,1,3.12,2.06c1,.75,2,1.53,2.86,2.36s1.8,1.68,2.65,2.59A24.6,24.6,0,0,1,19.32,420.24Z"/><path class="cls-3" d="M25.83,437.93a25.13,25.13,0,0,1-3.12-2.06c-1-.75-1.95-1.53-2.86-2.36s-1.8-1.69-2.65-2.59A23,23,0,0,1,14.82,428a26.72,26.72,0,0,1,3.12,2.06c1,.75,1.94,1.53,2.86,2.36s1.8,1.69,2.65,2.59A24.89,24.89,0,0,1,25.83,437.93Z"/><path class="cls-3" d="M12.1,435.59A26.72,26.72,0,0,1,9,433.53C8,432.78,7,432,6.12,431.17s-1.8-1.69-2.65-2.59a24.6,24.6,0,0,1-2.38-2.88,24.81,24.81,0,0,1,3.13,2.05c1,.75,1.94,1.53,2.85,2.36s1.8,1.69,2.65,2.59A23.91,23.91,0,0,1,12.1,435.59Z"/><path class="cls-3" d="M31,415.85a24.17,24.17,0,0,1-.32,3.73c-.18,1.23-.41,2.44-.7,3.64s-.62,2.39-1,3.56a24,24,0,0,1-1.4,3.47,24.15,24.15,0,0,1,.32-3.72c.18-1.23.41-2.44.7-3.64s.63-2.39,1-3.56A25.3,25.3,0,0,1,31,415.85Z"/><path class="cls-3" d="M41.45,427.53a23.48,23.48,0,0,1-1.92,3.21c-.7,1-1.44,2-2.22,3s-1.61,1.87-2.48,2.76A23.86,23.86,0,0,1,32.05,439,25.11,25.11,0,0,1,34,435.75c.71-1,1.45-2,2.23-3s1.61-1.87,2.48-2.75A24.59,24.59,0,0,1,41.45,427.53Z"/><path class="cls-3" d="M34.37,400.56a24.65,24.65,0,0,1-1.92,3.22c-.7,1-1.44,2-2.23,3s-1.6,1.87-2.47,2.75A23,23,0,0,1,25,412a25.69,25.69,0,0,1,1.92-3.21c.71-1,1.44-2,2.23-3s1.61-1.87,2.47-2.76A25.6,25.6,0,0,1,34.37,400.56Z"/><path class="cls-3" d="M121.26,429.78a24.06,24.06,0,0,1-3.12-2.06c-1-.75-2-1.53-2.86-2.36s-1.8-1.68-2.65-2.58a25.57,25.57,0,0,1-2.38-2.89,24.39,24.39,0,0,1,3.12,2.06c1,.74,1.94,1.52,2.86,2.35s1.8,1.69,2.65,2.59A24.71,24.71,0,0,1,121.26,429.78Z"/><path class="cls-3" d="M107.53,427.44a24.39,24.39,0,0,1-3.12-2.06c-1-.75-1.94-1.53-2.86-2.35s-1.8-1.69-2.65-2.59a25.57,25.57,0,0,1-2.38-2.89,23.82,23.82,0,0,1,3.13,2.06c1,.74,1.94,1.53,2.85,2.35s1.8,1.69,2.65,2.59A25.57,25.57,0,0,1,107.53,427.44Z"/><path class="cls-3" d="M140.25,427.9a25.69,25.69,0,0,1-1.92,3.21c-.71,1-1.45,2-2.23,3s-1.61,1.87-2.47,2.76a24.52,24.52,0,0,1-2.78,2.5,23.48,23.48,0,0,1,1.92-3.21c.7-1,1.44-2,2.23-3s1.6-1.87,2.47-2.75A23.77,23.77,0,0,1,140.25,427.9Z"/><path class="cls-3" d="M115,450.63a26.72,26.72,0,0,1-3.12-2.06c-1-.75-1.94-1.53-2.86-2.36s-1.8-1.69-2.65-2.59a24.6,24.6,0,0,1-2.38-2.88,24,24,0,0,1,3.12,2.05c1,.75,2,1.53,2.86,2.36s1.8,1.69,2.65,2.59A23.91,23.91,0,0,1,115,450.63Z"/><path class="cls-3" d="M121.46,468.31a24.76,24.76,0,0,1-3.12-2.06c-1-.75-2-1.53-2.86-2.36s-1.8-1.68-2.65-2.58a25.57,25.57,0,0,1-2.38-2.89,23.71,23.71,0,0,1,3.12,2.06c1,.74,2,1.53,2.86,2.35s1.8,1.69,2.65,2.59A24.71,24.71,0,0,1,121.46,468.31Z"/><path class="cls-3" d="M107.74,466a23.82,23.82,0,0,1-3.13-2.06c-1-.75-1.94-1.53-2.86-2.35S100,459.87,99.1,459a23.91,23.91,0,0,1-2.38-2.89,23.82,23.82,0,0,1,3.13,2.06c1,.75,1.94,1.53,2.86,2.35s1.79,1.69,2.64,2.6A25.72,25.72,0,0,1,107.74,466Z"/><path class="cls-3" d="M126.58,446.24a24.28,24.28,0,0,1-.32,3.73c-.18,1.22-.41,2.43-.7,3.63s-.62,2.39-1,3.57a23.32,23.32,0,0,1-1.4,3.47,25.48,25.48,0,0,1,.32-3.73c.18-1.22.41-2.44.7-3.64s.63-2.38,1-3.56A25.18,25.18,0,0,1,126.58,446.24Z"/><path class="cls-3" d="M137.09,457.91a24.71,24.71,0,0,1-1.93,3.22c-.7,1-1.44,2-2.22,3s-1.61,1.87-2.47,2.75a23.87,23.87,0,0,1-2.79,2.51,25.69,25.69,0,0,1,1.92-3.21c.71-1,1.45-2,2.23-3s1.61-1.87,2.48-2.76A23.86,23.86,0,0,1,137.09,457.91Z"/><path class="cls-3" d="M130,431a23.48,23.48,0,0,1-1.92,3.21c-.7,1-1.44,2-2.22,3s-1.61,1.87-2.48,2.76a22.92,22.92,0,0,1-2.78,2.5,25.69,25.69,0,0,1,1.92-3.21c.71-1,1.45-2,2.23-3s1.61-1.87,2.47-2.76A25.52,25.52,0,0,1,130,431Z"/><path class="cls-3" d="M123.22,483.93a25.13,25.13,0,0,1-3.12-2.06c-1-.75-1.95-1.53-2.86-2.36s-1.8-1.69-2.65-2.59a23.91,23.91,0,0,1-2.38-2.89,26.72,26.72,0,0,1,3.12,2.06c1,.75,2,1.53,2.86,2.36s1.8,1.69,2.65,2.59A23.91,23.91,0,0,1,123.22,483.93Z"/><path class="cls-3" d="M109.49,481.59a26.72,26.72,0,0,1-3.12-2.06c-1-.75-1.94-1.53-2.86-2.36s-1.8-1.69-2.65-2.59a24.6,24.6,0,0,1-2.38-2.88,24.81,24.81,0,0,1,3.13,2.05c1,.75,1.94,1.53,2.85,2.36s1.8,1.69,2.65,2.59A23.91,23.91,0,0,1,109.49,481.59Z"/><path class="cls-3" d="M142.21,482.05a25.69,25.69,0,0,1-1.92,3.21c-.71,1-1.45,2-2.23,3s-1.61,1.87-2.47,2.76a25.52,25.52,0,0,1-2.78,2.5,23.48,23.48,0,0,1,1.92-3.21c.7-1,1.44-2,2.23-3s1.6-1.87,2.47-2.76A24.62,24.62,0,0,1,142.21,482.05Z"/><path class="cls-3" d="M116.91,504.77a24.39,24.39,0,0,1-3.12-2.06c-1-.74-1.94-1.53-2.86-2.35s-1.8-1.69-2.65-2.59a23.91,23.91,0,0,1-2.38-2.89,24.87,24.87,0,0,1,3.13,2.06c1,.75,1.94,1.53,2.85,2.36s1.8,1.69,2.65,2.59A24.6,24.6,0,0,1,116.91,504.77Z"/><path class="cls-3" d="M123.42,522.46a25.9,25.9,0,0,1-3.12-2.06c-1-.75-2-1.53-2.86-2.36s-1.8-1.69-2.65-2.59a23.91,23.91,0,0,1-2.38-2.89,25.9,25.9,0,0,1,3.12,2.06c1,.75,2,1.53,2.86,2.36s1.8,1.69,2.65,2.59A23.91,23.91,0,0,1,123.42,522.46Z"/><path class="cls-3" d="M109.7,520.12a26,26,0,0,1-3.13-2.06c-1-.75-1.94-1.53-2.86-2.36s-1.8-1.68-2.65-2.59a24.6,24.6,0,0,1-2.38-2.88,24.81,24.81,0,0,1,3.13,2c1,.75,1.94,1.53,2.86,2.36s1.79,1.69,2.64,2.59A24,24,0,0,1,109.7,520.12Z"/><path class="cls-3" d="M128.54,500.38a24.17,24.17,0,0,1-.32,3.73c-.18,1.23-.41,2.44-.7,3.64s-.62,2.39-1,3.56a23.43,23.43,0,0,1-1.4,3.48,25.48,25.48,0,0,1,.32-3.73c.18-1.23.41-2.44.7-3.64s.63-2.39,1-3.56A25.81,25.81,0,0,1,128.54,500.38Z"/><path class="cls-3" d="M139.05,512.06a24.6,24.6,0,0,1-1.93,3.21c-.7,1-1.44,2-2.22,3s-1.61,1.87-2.47,2.76a25.6,25.6,0,0,1-2.78,2.51,24,24,0,0,1,1.91-3.22c.71-1,1.45-2,2.23-2.95s1.61-1.88,2.48-2.76A23.86,23.86,0,0,1,139.05,512.06Z"/><path class="cls-3" d="M132,485.09a23,23,0,0,1-1.92,3.22c-.7,1-1.44,2-2.22,3s-1.61,1.87-2.48,2.76a23.78,23.78,0,0,1-2.78,2.5,25.69,25.69,0,0,1,1.92-3.21c.71-1,1.45-2,2.23-3s1.61-1.87,2.48-2.76A24.59,24.59,0,0,1,132,485.09Z"/><path class="cls-3" d="M120.6,536.36a23.82,23.82,0,0,1-3.13-2.06c-1-.74-1.94-1.53-2.86-2.35s-1.8-1.69-2.65-2.59a24.89,24.89,0,0,1-2.38-2.89,24.87,24.87,0,0,1,3.13,2.06c1,.75,1.94,1.53,2.86,2.36s1.8,1.69,2.65,2.59A25.64,25.64,0,0,1,120.6,536.36Z"/><path class="cls-3" d="M106.87,534a26.72,26.72,0,0,1-3.12-2.06c-1-.75-2-1.53-2.86-2.36s-1.8-1.69-2.65-2.59a23.91,23.91,0,0,1-2.38-2.89A25.9,25.9,0,0,1,99,526.19c1,.75,2,1.53,2.86,2.36s1.8,1.69,2.65,2.59A23.91,23.91,0,0,1,106.87,534Z"/><path class="cls-3" d="M139.58,534.48a23.59,23.59,0,0,1-1.92,3.22c-.7,1-1.44,2-2.22,3s-1.61,1.87-2.48,2.75a23,23,0,0,1-2.78,2.51,25.69,25.69,0,0,1,1.92-3.21c.71-1,1.45-2,2.23-3s1.61-1.87,2.48-2.76A24.59,24.59,0,0,1,139.58,534.48Z"/><path class="cls-3" d="M114.29,557.21a23.71,23.71,0,0,1-3.12-2.06c-1-.74-2-1.53-2.86-2.35s-1.8-1.69-2.65-2.59a23.91,23.91,0,0,1-2.38-2.89,24.39,24.39,0,0,1,3.12,2.06c1,.75,1.95,1.53,2.86,2.36s1.8,1.68,2.65,2.59A24.6,24.6,0,0,1,114.29,557.21Z"/><path class="cls-3" d="M132.87,570.81a23.63,23.63,0,0,1-3.4,1.56c-1.16.44-2.33.84-3.51,1.18s-2.39.63-3.6.87a23.83,23.83,0,0,1-3.71.49,24.76,24.76,0,0,1,3.4-1.56c1.16-.44,2.33-.84,3.51-1.17s2.39-.64,3.6-.88A25.45,25.45,0,0,1,132.87,570.81Z"/><path class="cls-3" d="M107.07,572.56A26.72,26.72,0,0,1,104,570.5c-1-.75-1.94-1.53-2.86-2.36s-1.8-1.69-2.65-2.59a24.6,24.6,0,0,1-2.38-2.88,24,24,0,0,1,3.12,2.05c1,.75,1.95,1.53,2.86,2.36s1.8,1.69,2.65,2.59A23.91,23.91,0,0,1,107.07,572.56Z"/><path class="cls-3" d="M125.92,552.82a25.48,25.48,0,0,1-.32,3.73c-.18,1.23-.41,2.44-.7,3.64s-.62,2.39-1,3.56a24,24,0,0,1-1.4,3.47,24.38,24.38,0,0,1,.32-3.73c.18-1.22.41-2.43.7-3.63s.62-2.39,1-3.57A24.45,24.45,0,0,1,125.92,552.82Z"/><path class="cls-3" d="M124.11,584.42a24.42,24.42,0,0,1-3.74-.17c-1.23-.13-2.45-.32-3.66-.56s-2.41-.53-3.6-.87a24.81,24.81,0,0,1-3.53-1.26,25.76,25.76,0,0,1,3.74.17c1.23.14,2.45.32,3.66.56s2.41.53,3.6.87A24.81,24.81,0,0,1,124.11,584.42Z"/><path class="cls-3" d="M129.34,537.53a24.54,24.54,0,0,1-1.92,3.21c-.7,1-1.44,2-2.23,3s-1.6,1.88-2.47,2.76a24.7,24.7,0,0,1-2.78,2.51,24.54,24.54,0,0,1,1.92-3.21c.7-1,1.44-2,2.23-3s1.61-1.87,2.47-2.76A25.6,25.6,0,0,1,129.34,537.53Z"/><path class="cls-2" d="M410.29,401s18.94-1.3,18.65,41.61S440.86,569,427.33,597.16s-21.17,39.42-60.08,40.06c0,0-2.09-6-.33-20,0,0,32.53,1.46,31.59-38.44S372.37,400.63,410.29,401Z"/><path class="cls-3" d="M395.46,431.59a2.31,2.31,0,0,1,2.82,0c1.11.83,2.51,2.69,2.5,6.76,0,4.86-3.51,26.78-5.5,38.78a.84.84,0,0,1-1.66-.11l-1.18-28.8S391.34,434.8,395.46,431.59Z"/><path class="cls-4" d="M428.94,442.61c.29-42.91-18.65-41.61-18.65-41.61-4.84,0-5.35-1.23-8.32,2.76,8.83,1.11,18.31,10.41,18.06,43.45-.32,41.63,11.86,122.58-1.68,149.91-11.83,23.85-24,35.29-51.55,38.21a15,15,0,0,0,.45,1.89c38.91-.64,46.55-11.9,60.08-40.06S428.64,485.53,428.94,442.61Z"/><path class="cls-2" d="M282.16,484.15s-19-.69-17.27,42.2-7.79,126.7,6.65,154.41S294,719.47,332.9,718.84c0,0,1.89-6-.33-20,0,0-32.46,2.53-32.83-37.38S320.06,482.54,282.16,484.15Z"/><path class="cls-2" d="M337.77,431.34a14.51,14.51,0,0,1,17.89-.68c7.06,5,16,16.39,16.43,41.86.69,42.25-7.32,291.12-7.32,291.12l-30.17.5L321.19,534.93S313,452.38,337.77,431.34Z"/><path class="cls-2" d="M355.66,430.66a14.51,14.51,0,0,0-17.89.68c-4.72,4-8.24,10.25-10.85,17.72,4.07-5.85,12.17-6.2,16-4.32,9.39,4.61,11.65,23.12,12.07,48.58.56,34.84,4.88,210,3,270.44l6.8-.12s8-248.87,7.32-291.12C371.68,447.05,362.72,435.68,355.66,430.66Z"/><path class="cls-4" d="M336.63,432.38l-.09.09c15.86-3.79,24.5,13.69,25,44,.64,39.2,3.46,256,2.46,287.2l.78,0s8-248.87,7.32-291.12c-.39-24.29-8.56-35.75-15.43-41.11A15.4,15.4,0,0,0,336.63,432.38Z"/><path class="cls-3" d="M330.52,458a4.88,4.88,0,0,1,6-.08c2.38,1.71,5.39,5.57,5.53,14.15.17,10.27-6.44,56.64-10.19,82a1.76,1.76,0,0,1-3.5-.17l-3.56-60.72S321.94,464.9,330.52,458Z"/><path class="cls-4" d="M271.43,496.51C309.32,494.9,288.64,634,289,673.86c.36,38.8,41.64,28.19,43.93,27.57-.11-.82-.23-1.67-.37-2.55,0,0-32.46,2.53-32.83-37.38s20.32-179-17.58-177.35c0,0-8.78-.3-13.85,13A9.15,9.15,0,0,1,271.43,496.51Z"/><path class="cls-3" d="M354.16,450.44a55.18,55.18,0,0,1,3.86-4.21c1.33-1.35,2.72-2.64,4.11-3.91s2.85-2.5,4.33-3.68a54.93,54.93,0,0,1,4.6-3.38,55.06,55.06,0,0,1-3.85,4.21c-1.33,1.35-2.72,2.64-4.12,3.91s-2.85,2.5-4.33,3.67S355.77,449.39,354.16,450.44Z"/><path class="cls-3" d="M344.18,477.56a56.86,56.86,0,0,1,3.85-4.2c1.33-1.35,2.72-2.64,4.12-3.91s2.84-2.5,4.33-3.68a54.93,54.93,0,0,1,4.6-3.38c-1.21,1.48-2.52,2.87-3.86,4.21s-2.72,2.63-4.12,3.91-2.84,2.49-4.33,3.67A56.46,56.46,0,0,1,344.18,477.56Z"/><path class="cls-3" d="M362,478.57c1.21-1.48,2.52-2.86,3.85-4.2s2.72-2.64,4.12-3.92,2.85-2.49,4.33-3.67a54.93,54.93,0,0,1,4.6-3.38c-1.21,1.48-2.52,2.86-3.85,4.21s-2.72,2.63-4.12,3.91-2.85,2.49-4.33,3.67A54.93,54.93,0,0,1,362,478.57Z"/><path class="cls-3" d="M320,438.25a56.75,56.75,0,0,1,4,4c1.29,1.39,2.52,2.83,3.73,4.29s2.37,2.95,3.49,4.48a56.67,56.67,0,0,1,3.17,4.74,56.89,56.89,0,0,1-4-4c-1.29-1.39-2.51-2.83-3.72-4.29s-2.37-3-3.49-4.48A56.67,56.67,0,0,1,320,438.25Z"/><path class="cls-3" d="M312.56,461.74c1.43,1.28,2.75,2.64,4,4s2.51,2.84,3.72,4.29,2.38,2.95,3.49,4.49a55.07,55.07,0,0,1,3.17,4.74,56.88,56.88,0,0,1-4-4c-1.29-1.39-2.52-2.83-3.73-4.28s-2.37-3-3.48-4.49S313.54,463.39,312.56,461.74Z"/><path class="cls-3" d="M331.07,420.24a56.88,56.88,0,0,1,4,4c1.29,1.39,2.52,2.83,3.73,4.28s2.37,2.95,3.49,4.49a56.67,56.67,0,0,1,3.17,4.74c-1.43-1.28-2.75-2.64-4-4s-2.52-2.84-3.73-4.29-2.37-3-3.48-4.49A56.77,56.77,0,0,1,331.07,420.24Z"/><path class="cls-3" d="M351.77,507a56.86,56.86,0,0,1,3.85-4.2c1.33-1.35,2.72-2.64,4.12-3.91s2.84-2.5,4.33-3.68a54.77,54.77,0,0,1,4.59-3.38c-1.21,1.48-2.51,2.86-3.85,4.21s-2.72,2.63-4.12,3.91-2.84,2.49-4.33,3.67A56.46,56.46,0,0,1,351.77,507Z"/><path class="cls-3" d="M341.78,534.13c1.21-1.48,2.52-2.86,3.85-4.2s2.72-2.64,4.12-3.92,2.85-2.49,4.33-3.67a54.93,54.93,0,0,1,4.6-3.38c-1.21,1.48-2.51,2.86-3.85,4.21s-2.72,2.63-4.12,3.91-2.85,2.49-4.33,3.67A54.93,54.93,0,0,1,341.78,534.13Z"/><path class="cls-3" d="M366.28,533.15a56.91,56.91,0,0,1,2-5.34c.73-1.75,1.54-3.46,2.36-5.17s1.7-3.38,2.64-5a55,55,0,0,1,3-4.85,56.16,56.16,0,0,1-2,5.34c-.73,1.75-1.54,3.46-2.36,5.16s-1.71,3.38-2.65,5S367.38,531.58,366.28,533.15Z"/><path class="cls-3" d="M317.63,494.82a56.89,56.89,0,0,1,4,4c1.29,1.39,2.51,2.83,3.72,4.28s2.37,3,3.49,4.49a56.67,56.67,0,0,1,3.17,4.74,56.75,56.75,0,0,1-4-4c-1.29-1.39-2.52-2.83-3.73-4.29s-2.37-3-3.48-4.49A55,55,0,0,1,317.63,494.82Z"/><path class="cls-3" d="M310.17,518.31a56.75,56.75,0,0,1,4,4c1.29,1.39,2.52,2.84,3.73,4.29s2.37,3,3.48,4.48a56.77,56.77,0,0,1,3.18,4.74,54.86,54.86,0,0,1-4-4c-1.29-1.39-2.51-2.83-3.72-4.28s-2.37-3-3.49-4.49A56.67,56.67,0,0,1,310.17,518.31Z"/><path class="cls-3" d="M328.67,476.81c1.43,1.28,2.75,2.64,4,4s2.51,2.84,3.73,4.29,2.37,2.95,3.48,4.49,2.2,3.09,3.18,4.74a55,55,0,0,1-4-4c-1.29-1.39-2.52-2.83-3.73-4.28s-2.37-3-3.48-4.49S329.65,478.46,328.67,476.81Z"/><path class="cls-3" d="M361.55,565.15c.74-1.77,1.6-3.46,2.5-5.13s1.86-3.3,2.84-4.92,2-3.2,3.11-4.75a55.92,55.92,0,0,1,3.45-4.54c-.74,1.77-1.6,3.46-2.5,5.13s-1.86,3.29-2.84,4.91-2,3.2-3.11,4.76S362.79,563.69,361.55,565.15Z"/><path class="cls-3" d="M344.24,594.52c1.22-1.48,2.52-2.86,3.86-4.2s2.72-2.64,4.12-3.91,2.84-2.5,4.33-3.68a54.77,54.77,0,0,1,4.59-3.38c-1.21,1.48-2.51,2.86-3.85,4.21s-2.72,2.63-4.12,3.91-2.85,2.49-4.33,3.67A54.93,54.93,0,0,1,344.24,594.52Z"/><path class="cls-3" d="M365.3,590.94a55.18,55.18,0,0,1,3.86-4.21c1.33-1.35,2.72-2.64,4.12-3.91s2.84-2.5,4.32-3.68a56.63,56.63,0,0,1,4.6-3.38,55.06,55.06,0,0,1-3.85,4.21c-1.33,1.35-2.72,2.64-4.12,3.91s-2.85,2.5-4.33,3.68S366.91,589.89,365.3,590.94Z"/><path class="cls-3" d="M317.88,564.8a56.75,56.75,0,0,1,4,4c1.29,1.39,2.52,2.83,3.73,4.29s2.37,3,3.49,4.48a56.67,56.67,0,0,1,3.17,4.74,54.72,54.72,0,0,1-4-4c-1.29-1.39-2.52-2.83-3.73-4.29s-2.37-2.95-3.48-4.48A56.77,56.77,0,0,1,317.88,564.8Z"/><path class="cls-3" d="M315.11,591.64c1.43,1.28,2.76,2.64,4,4s2.51,2.84,3.73,4.29,2.37,2.95,3.48,4.49a55.94,55.94,0,0,1,3.18,4.74,57,57,0,0,1-4-4c-1.29-1.39-2.51-2.83-3.73-4.28s-2.37-3-3.48-4.49S316.09,593.29,315.11,591.64Z"/><path class="cls-3" d="M346.07,549.19a55.48,55.48,0,0,1-1,5.62c-.39,1.85-.87,3.68-1.37,5.51s-1,3.64-1.67,5.43-1.27,3.57-2.06,5.32a55.48,55.48,0,0,1,1-5.62c.39-1.85.87-3.69,1.37-5.51s1.06-3.64,1.67-5.43S345.28,550.93,346.07,549.19Z"/><path class="cls-3" d="M353.92,626.51c1.21-1.48,2.52-2.86,3.86-4.21s2.72-2.63,4.11-3.91,2.85-2.49,4.33-3.67a54.93,54.93,0,0,1,4.6-3.38,56.86,56.86,0,0,1-3.85,4.2c-1.33,1.35-2.72,2.64-4.12,3.91s-2.85,2.5-4.33,3.68A54.93,54.93,0,0,1,353.92,626.51Z"/><path class="cls-3" d="M343.94,653.64c1.21-1.48,2.51-2.86,3.85-4.21s2.72-2.63,4.12-3.91,2.84-2.5,4.33-3.68,3-2.33,4.6-3.38a55.18,55.18,0,0,1-3.86,4.21c-1.33,1.35-2.72,2.64-4.12,3.91s-2.84,2.5-4.33,3.68A56.46,56.46,0,0,1,343.94,653.64Z"/><path class="cls-3" d="M365,650.05a56.86,56.86,0,0,1,3.85-4.2c1.33-1.35,2.72-2.64,4.12-3.92s2.84-2.49,4.33-3.67a56.46,56.46,0,0,1,4.59-3.38c-1.21,1.48-2.51,2.86-3.85,4.21s-2.72,2.63-4.12,3.91-2.84,2.49-4.33,3.67A56.46,56.46,0,0,1,365,650.05Z"/><path class="cls-3" d="M336.08,619.78a56.29,56.29,0,0,1,1.86,5.39c.55,1.82,1,3.65,1.46,5.49s.84,3.69,1.17,5.56.62,3.74.77,5.65a56.29,56.29,0,0,1-1.86-5.39c-.55-1.82-1-3.65-1.46-5.49s-.84-3.69-1.16-5.56A56,56,0,0,1,336.08,619.78Z"/><path class="cls-3" d="M320,637.69a55,55,0,0,1,4,4c1.29,1.39,2.51,2.83,3.73,4.28s2.37,3,3.48,4.49a56.77,56.77,0,0,1,3.18,4.74,57,57,0,0,1-4-4c-1.29-1.39-2.51-2.83-3.73-4.28s-2.36-2.95-3.48-4.49S320.94,639.34,320,637.69Z"/><path class="cls-3" d="M330.83,596.32a56.75,56.75,0,0,1,4,4c1.29,1.39,2.52,2.83,3.73,4.29s2.37,3,3.49,4.48a56.67,56.67,0,0,1,3.17,4.74,54.72,54.72,0,0,1-4-4c-1.29-1.39-2.52-2.83-3.73-4.29s-2.37-2.95-3.48-4.48A56.77,56.77,0,0,1,330.83,596.32Z"/><path class="cls-3" d="M346.26,678.55a42.41,42.41,0,0,1,3.26-3.68c1.14-1.17,2.33-2.28,3.53-3.38s2.45-2.14,3.74-3.15a42.62,42.62,0,0,1,4-2.85,42.41,42.41,0,0,1-3.26,3.68c-1.14,1.17-2.33,2.28-3.53,3.38s-2.46,2.15-3.75,3.15A42.48,42.48,0,0,1,346.26,678.55Z"/><path class="cls-3" d="M364.38,675.46a42.27,42.27,0,0,1,3.26-3.67c1.14-1.18,2.33-2.29,3.53-3.39s2.46-2.14,3.74-3.15a44,44,0,0,1,4-2.85,41,41,0,0,1-3.26,3.68c-1.14,1.18-2.33,2.29-3.53,3.39s-2.46,2.14-3.74,3.14A42.1,42.1,0,0,1,364.38,675.46Z"/><path class="cls-3" d="M321.19,676.07a43.89,43.89,0,0,1,3.53,3.42c1.12,1.19,2.18,2.43,3.23,3.68s2,2.54,3,3.87a41.05,41.05,0,0,1,2.67,4.13,42.29,42.29,0,0,1-3.53-3.42c-1.13-1.19-2.18-2.43-3.23-3.68s-2-2.54-3-3.87A42.22,42.22,0,0,1,321.19,676.07Z"/><path class="cls-3" d="M354.58,706.08a44.25,44.25,0,0,1,3.27-3.68c1.14-1.17,2.33-2.28,3.53-3.38s2.45-2.15,3.74-3.15a42.62,42.62,0,0,1,4-2.85,42.52,42.52,0,0,1-3.27,3.68c-1.13,1.17-2.32,2.28-3.53,3.38s-2.45,2.14-3.74,3.15A42.62,42.62,0,0,1,354.58,706.08Z"/><path class="cls-3" d="M346,729.43a42.7,42.7,0,0,1,3.27-3.68c1.13-1.18,2.32-2.29,3.53-3.39s2.45-2.14,3.74-3.14a40.73,40.73,0,0,1,4-2.85,42.41,42.41,0,0,1-3.26,3.68c-1.13,1.17-2.33,2.28-3.53,3.38s-2.45,2.14-3.74,3.14A42.72,42.72,0,0,1,346,729.43Z"/><path class="cls-3" d="M364.11,726.34a44.25,44.25,0,0,1,3.27-3.68c1.14-1.17,2.33-2.28,3.53-3.38s2.45-2.15,3.74-3.15a42.62,42.62,0,0,1,4-2.85,42.52,42.52,0,0,1-3.27,3.68c-1.13,1.17-2.32,2.28-3.53,3.38s-2.45,2.14-3.74,3.15A42.62,42.62,0,0,1,364.11,726.34Z"/><path class="cls-3" d="M339.23,700.28a42,42,0,0,1,1.67,4.63c.49,1.56.9,3.13,1.29,4.72s.71,3.17,1,4.79a43.36,43.36,0,0,1,.59,4.88,42.1,42.1,0,0,1-1.68-4.63c-.48-1.55-.89-3.13-1.28-4.71s-.71-3.18-1-4.79A43.82,43.82,0,0,1,339.23,700.28Z"/><path class="cls-3" d="M325.36,715.7a42.29,42.29,0,0,1,3.53,3.42c1.13,1.19,2.18,2.43,3.23,3.68s2,2.54,3,3.87a40.44,40.44,0,0,1,2.67,4.13,43.89,43.89,0,0,1-3.53-3.42c-1.12-1.19-2.18-2.43-3.22-3.68s-2-2.54-3-3.87A42.3,42.3,0,0,1,325.36,715.7Z"/><path class="cls-3" d="M334.71,680.1a42.29,42.29,0,0,1,3.53,3.42c1.13,1.18,2.18,2.42,3.23,3.67s2,2.55,3,3.88a40.3,40.3,0,0,1,2.67,4.12,42.24,42.24,0,0,1-3.53-3.42c-1.12-1.18-2.18-2.42-3.22-3.67s-2-2.55-3-3.88A42.16,42.16,0,0,1,334.71,680.1Z"/><path class="cls-3" d="M408.2,513.1a42.41,42.41,0,0,1,3.26-3.68c1.14-1.17,2.33-2.28,3.53-3.38s2.46-2.14,3.74-3.15a44,44,0,0,1,4-2.85,42.41,42.41,0,0,1-3.26,3.68c-1.14,1.17-2.33,2.28-3.53,3.38s-2.46,2.15-3.74,3.15A44,44,0,0,1,408.2,513.1Z"/><path class="cls-3" d="M426.32,510a44.11,44.11,0,0,1,3.27-3.67c1.13-1.18,2.32-2.29,3.53-3.39s2.45-2.14,3.74-3.15a42.48,42.48,0,0,1,4-2.85,41,41,0,0,1-3.26,3.68c-1.13,1.18-2.33,2.29-3.53,3.39s-2.45,2.14-3.74,3.14A40.87,40.87,0,0,1,426.32,510Z"/><path class="cls-3" d="M383.13,510.62a42.29,42.29,0,0,1,3.53,3.42c1.12,1.19,2.18,2.43,3.23,3.68s2,2.54,3,3.87a41.05,41.05,0,0,1,2.67,4.13A42.29,42.29,0,0,1,392,522.3c-1.12-1.19-2.18-2.43-3.23-3.68s-2-2.54-3-3.87A44.16,44.16,0,0,1,383.13,510.62Z"/><path class="cls-3" d="M416.53,540.63a42.41,42.41,0,0,1,3.26-3.68c1.14-1.17,2.33-2.28,3.53-3.38s2.45-2.15,3.74-3.15a42.62,42.62,0,0,1,4-2.85,42.41,42.41,0,0,1-3.26,3.68c-1.14,1.17-2.33,2.28-3.53,3.38s-2.46,2.14-3.75,3.15A42.48,42.48,0,0,1,416.53,540.63Z"/><path class="cls-3" d="M407.93,564a42.7,42.7,0,0,1,3.27-3.68c1.13-1.18,2.33-2.29,3.53-3.39s2.45-2.14,3.74-3.14a40.87,40.87,0,0,1,4-2.85,42.52,42.52,0,0,1-3.27,3.68c-1.13,1.17-2.32,2.28-3.53,3.38s-2.45,2.14-3.74,3.14A42.72,42.72,0,0,1,407.93,564Z"/><path class="cls-3" d="M426.06,560.89a42.41,42.41,0,0,1,3.26-3.68c1.14-1.17,2.33-2.28,3.53-3.38s2.45-2.15,3.74-3.15a42.62,42.62,0,0,1,4-2.85,42.41,42.41,0,0,1-3.26,3.68c-1.14,1.17-2.33,2.28-3.53,3.38s-2.46,2.14-3.75,3.15A42.48,42.48,0,0,1,426.06,560.89Z"/><path class="cls-3" d="M401.18,534.83a44.19,44.19,0,0,1,1.67,4.63c.48,1.56.89,3.13,1.28,4.72s.71,3.17,1,4.79a43.36,43.36,0,0,1,.59,4.88,40.07,40.07,0,0,1-1.67-4.63c-.49-1.56-.9-3.13-1.29-4.71s-.71-3.18-1-4.79A39.57,39.57,0,0,1,401.18,534.83Z"/><path class="cls-3" d="M387.3,550.25a42.42,42.42,0,0,1,3.54,3.42c1.12,1.19,2.18,2.43,3.22,3.68s2,2.54,3,3.87a42.3,42.3,0,0,1,2.68,4.13,42.42,42.42,0,0,1-3.54-3.42c-1.12-1.19-2.18-2.43-3.22-3.68s-2-2.54-3-3.87A44.24,44.24,0,0,1,387.3,550.25Z"/><path class="cls-3" d="M396.65,514.65a42.42,42.42,0,0,1,3.54,3.42c1.12,1.18,2.18,2.42,3.22,3.67s2,2.55,3,3.88a42.16,42.16,0,0,1,2.68,4.12,40.88,40.88,0,0,1-3.54-3.42c-1.12-1.18-2.18-2.42-3.22-3.67s-2-2.55-3-3.88A44.09,44.09,0,0,1,396.65,514.65Z"/><path class="cls-3" d="M407,447.74a41,41,0,0,1,3.26-3.68c1.14-1.18,2.33-2.29,3.53-3.39s2.45-2.14,3.74-3.14a40.87,40.87,0,0,1,4-2.85,42.52,42.52,0,0,1-3.27,3.68c-1.13,1.17-2.32,2.28-3.53,3.38s-2.45,2.14-3.74,3.14A43.91,43.91,0,0,1,407,447.74Z"/><path class="cls-3" d="M425.15,444.65a42.41,42.41,0,0,1,3.26-3.68c1.14-1.17,2.33-2.28,3.53-3.38s2.45-2.15,3.74-3.15a42.62,42.62,0,0,1,4-2.85,42.41,42.41,0,0,1-3.26,3.68c-1.14,1.17-2.33,2.28-3.53,3.38s-2.46,2.14-3.75,3.15A42.48,42.48,0,0,1,425.15,444.65Z"/><path class="cls-3" d="M382,445.25a42.36,42.36,0,0,1,3.53,3.43c1.12,1.18,2.18,2.42,3.22,3.67s2,2.54,3,3.87a45.51,45.51,0,0,1,2.67,4.13,42.42,42.42,0,0,1-3.54-3.42c-1.12-1.18-2.18-2.42-3.22-3.67s-2-2.55-3-3.88A41.05,41.05,0,0,1,382,445.25Z"/><path class="cls-3" d="M415.35,475.26a42.56,42.56,0,0,1,3.27-3.67c1.13-1.18,2.32-2.29,3.53-3.39s2.45-2.14,3.74-3.15a41.36,41.36,0,0,1,4-2.85,42.7,42.7,0,0,1-3.27,3.68c-1.13,1.18-2.33,2.29-3.53,3.38s-2.45,2.15-3.74,3.15A42.62,42.62,0,0,1,415.35,475.26Z"/><path class="cls-3" d="M406.76,498.61a42.41,42.41,0,0,1,3.26-3.68c1.14-1.17,2.33-2.28,3.53-3.38s2.46-2.15,3.74-3.15a44,44,0,0,1,4-2.85,42.41,42.41,0,0,1-3.26,3.68c-1.14,1.17-2.33,2.28-3.53,3.38s-2.46,2.14-3.74,3.15A44,44,0,0,1,406.76,498.61Z"/><path class="cls-3" d="M424.88,495.52a44.25,44.25,0,0,1,3.27-3.68c1.13-1.17,2.32-2.28,3.53-3.38s2.45-2.14,3.74-3.15a41.36,41.36,0,0,1,4-2.85,42.7,42.7,0,0,1-3.27,3.68c-1.13,1.18-2.33,2.29-3.53,3.38s-2.45,2.15-3.74,3.15A42.62,42.62,0,0,1,424.88,495.52Z"/><path class="cls-3" d="M400,469.47a41.15,41.15,0,0,1,1.67,4.62c.49,1.56.9,3.14,1.29,4.72s.71,3.18,1,4.79a41.66,41.66,0,0,1,.58,4.88,43.22,43.22,0,0,1-1.67-4.62c-.49-1.56-.89-3.14-1.28-4.72s-.71-3.18-1-4.79A43.93,43.93,0,0,1,400,469.47Z"/><path class="cls-3" d="M386.13,484.89a42.29,42.29,0,0,1,3.53,3.42c1.12,1.18,2.18,2.42,3.23,3.67s2,2.54,3,3.88a42.07,42.07,0,0,1,2.67,4.12,40.76,40.76,0,0,1-3.53-3.42c-1.12-1.18-2.18-2.42-3.23-3.67s-2-2.55-3-3.88A44,44,0,0,1,386.13,484.89Z"/><path class="cls-3" d="M395.48,449.28A42.29,42.29,0,0,1,399,452.7c1.12,1.19,2.18,2.43,3.23,3.68s2,2.54,3,3.87a41.05,41.05,0,0,1,2.67,4.13,42.29,42.29,0,0,1-3.53-3.42c-1.12-1.19-2.18-2.43-3.23-3.68s-2-2.54-3-3.87A44.16,44.16,0,0,1,395.48,449.28Z"/><path class="cls-3" d="M280.76,501.45a42.41,42.41,0,0,1,3.26-3.68c1.14-1.17,2.33-2.29,3.53-3.38s2.45-2.15,3.74-3.15a40.87,40.87,0,0,1,4-2.85,42.41,42.41,0,0,1-3.26,3.68c-1.14,1.17-2.33,2.28-3.53,3.38s-2.46,2.14-3.75,3.14A40.82,40.82,0,0,1,280.76,501.45Z"/><path class="cls-3" d="M298.88,498.36a42.52,42.52,0,0,1,3.27-3.68c1.13-1.17,2.32-2.28,3.52-3.38s2.46-2.15,3.75-3.15a42.48,42.48,0,0,1,4-2.85,42.41,42.41,0,0,1-3.26,3.68c-1.14,1.17-2.33,2.28-3.53,3.38s-2.45,2.14-3.74,3.15A42.62,42.62,0,0,1,298.88,498.36Z"/><path class="cls-3" d="M255.69,499a45.8,45.8,0,0,1,3.53,3.43c1.12,1.18,2.18,2.42,3.23,3.67s2,2.54,3,3.88a42.07,42.07,0,0,1,2.67,4.12,42.29,42.29,0,0,1-3.53-3.42c-1.13-1.18-2.18-2.42-3.23-3.67s-2-2.55-3-3.88A41.05,41.05,0,0,1,255.69,499Z"/><path class="cls-3" d="M289.09,529a42.27,42.27,0,0,1,3.26-3.67c1.14-1.18,2.33-2.29,3.53-3.39s2.45-2.14,3.74-3.15a42.62,42.62,0,0,1,4-2.85,41.08,41.08,0,0,1-3.27,3.68c-1.13,1.18-2.32,2.29-3.53,3.39s-2.45,2.14-3.74,3.14A42,42,0,0,1,289.09,529Z"/><path class="cls-3" d="M280.49,552.32a44.25,44.25,0,0,1,3.27-3.68c1.13-1.17,2.32-2.28,3.53-3.38s2.45-2.15,3.74-3.15a41.36,41.36,0,0,1,4-2.85,44.25,44.25,0,0,1-3.27,3.68c-1.13,1.17-2.33,2.28-3.53,3.38s-2.45,2.15-3.74,3.15A42.62,42.62,0,0,1,280.49,552.32Z"/><path class="cls-3" d="M298.62,549.23a42.27,42.27,0,0,1,3.26-3.67c1.14-1.18,2.33-2.29,3.53-3.39s2.45-2.14,3.74-3.15a42.62,42.62,0,0,1,4-2.85,41.08,41.08,0,0,1-3.27,3.68c-1.13,1.18-2.32,2.29-3.53,3.38s-2.45,2.15-3.74,3.15A42,42,0,0,1,298.62,549.23Z"/><path class="cls-3" d="M273.73,523.18a39.26,39.26,0,0,1,1.67,4.62c.49,1.56.9,3.14,1.29,4.72s.71,3.18,1,4.79a43.93,43.93,0,0,1,.59,4.88,41.21,41.21,0,0,1-1.68-4.62c-.48-1.56-.89-3.14-1.28-4.72s-.71-3.18-1-4.79A43.93,43.93,0,0,1,273.73,523.18Z"/><path class="cls-3" d="M259.86,538.6a40.8,40.8,0,0,1,3.53,3.42c1.13,1.18,2.19,2.42,3.23,3.67s2,2.55,3,3.88a42.16,42.16,0,0,1,2.68,4.12,39.45,39.45,0,0,1-3.54-3.42c-1.12-1.18-2.18-2.42-3.22-3.67s-2-2.55-3-3.88A42.16,42.16,0,0,1,259.86,538.6Z"/><path class="cls-3" d="M269.21,503a40.8,40.8,0,0,1,3.53,3.42c1.13,1.19,2.18,2.43,3.23,3.68s2,2.54,3,3.87a40.44,40.44,0,0,1,2.67,4.13,43.89,43.89,0,0,1-3.53-3.42c-1.12-1.19-2.18-2.43-3.22-3.68s-2-2.54-3-3.87A42.3,42.3,0,0,1,269.21,503Z"/><path class="cls-3" d="M278.17,572.94a42.41,42.41,0,0,1,3.26-3.68c1.14-1.17,2.33-2.28,3.53-3.38s2.46-2.15,3.74-3.15a44,44,0,0,1,4-2.85,42.41,42.41,0,0,1-3.26,3.68c-1.14,1.17-2.33,2.28-3.53,3.38s-2.46,2.14-3.74,3.15A44,44,0,0,1,278.17,572.94Z"/><path class="cls-3" d="M296.29,569.85a44.25,44.25,0,0,1,3.27-3.68c1.13-1.17,2.32-2.28,3.53-3.38s2.45-2.14,3.74-3.15a42.48,42.48,0,0,1,4-2.85,41,41,0,0,1-3.26,3.68c-1.13,1.18-2.33,2.29-3.53,3.38S301.59,566,300.3,567A42.62,42.62,0,0,1,296.29,569.85Z"/><path class="cls-3" d="M253.1,570.46a42.29,42.29,0,0,1,3.53,3.42c1.12,1.19,2.18,2.42,3.23,3.67s2,2.55,3,3.88a41.05,41.05,0,0,1,2.67,4.13,42.29,42.29,0,0,1-3.53-3.42c-1.12-1.19-2.18-2.43-3.23-3.68s-2-2.54-3-3.87A45.51,45.51,0,0,1,253.1,570.46Z"/><path class="cls-3" d="M286.5,600.47a42.41,42.41,0,0,1,3.26-3.68c1.14-1.17,2.33-2.28,3.53-3.38s2.45-2.15,3.74-3.15a40.87,40.87,0,0,1,4-2.85,42.41,42.41,0,0,1-3.26,3.68c-1.14,1.17-2.33,2.28-3.53,3.38s-2.46,2.14-3.75,3.15A42.48,42.48,0,0,1,286.5,600.47Z"/><path class="cls-3" d="M277.9,623.81a44.11,44.11,0,0,1,3.27-3.67c1.13-1.18,2.33-2.29,3.53-3.39s2.45-2.14,3.74-3.15a42.62,42.62,0,0,1,4-2.85,41.08,41.08,0,0,1-3.27,3.68c-1.13,1.18-2.32,2.29-3.53,3.39S283.2,620,281.91,621A40.87,40.87,0,0,1,277.9,623.81Z"/><path class="cls-3" d="M296,620.73a42.41,42.41,0,0,1,3.26-3.68c1.14-1.17,2.33-2.29,3.53-3.38s2.45-2.15,3.74-3.15a40.87,40.87,0,0,1,4-2.85,42.41,42.41,0,0,1-3.26,3.68c-1.14,1.17-2.33,2.28-3.53,3.38s-2.46,2.14-3.75,3.15A42.48,42.48,0,0,1,296,620.73Z"/><path class="cls-3" d="M271.15,594.67a44.19,44.19,0,0,1,1.67,4.63c.48,1.55.89,3.13,1.28,4.71s.71,3.18,1,4.79a43.82,43.82,0,0,1,.59,4.89,40.07,40.07,0,0,1-1.67-4.63c-.49-1.56-.9-3.13-1.29-4.72s-.71-3.18-1-4.79A39.64,39.64,0,0,1,271.15,594.67Z"/><path class="cls-3" d="M257.27,610.09a42.42,42.42,0,0,1,3.54,3.42c1.12,1.19,2.18,2.43,3.22,3.68s2,2.54,3,3.87a41.13,41.13,0,0,1,2.68,4.13,42.42,42.42,0,0,1-3.54-3.42c-1.12-1.19-2.18-2.43-3.22-3.68s-2-2.54-3-3.87A45.6,45.6,0,0,1,257.27,610.09Z"/><path class="cls-3" d="M266.62,574.48a41,41,0,0,1,3.54,3.43c1.12,1.18,2.18,2.42,3.22,3.67s2,2.54,3,3.87a43.54,43.54,0,0,1,2.68,4.13,42.42,42.42,0,0,1-3.54-3.42c-1.12-1.18-2.18-2.42-3.22-3.67s-2-2.55-3-3.88A43,43,0,0,1,266.62,574.48Z"/><path class="cls-3" d="M281.63,642.18a44.25,44.25,0,0,1,3.27-3.68c1.13-1.17,2.32-2.28,3.53-3.38s2.45-2.15,3.74-3.15a40.73,40.73,0,0,1,4-2.85,42.41,42.41,0,0,1-3.26,3.68c-1.13,1.17-2.33,2.28-3.53,3.38s-2.45,2.14-3.74,3.15A42.62,42.62,0,0,1,281.63,642.18Z"/><path class="cls-3" d="M299.76,639.09a42.41,42.41,0,0,1,3.26-3.68c1.14-1.17,2.33-2.28,3.53-3.38s2.45-2.15,3.74-3.15a42.62,42.62,0,0,1,4-2.85,42.52,42.52,0,0,1-3.27,3.68c-1.13,1.17-2.32,2.28-3.53,3.38s-2.45,2.14-3.74,3.15A43.82,43.82,0,0,1,299.76,639.09Z"/><path class="cls-3" d="M256.56,639.7a40.8,40.8,0,0,1,3.53,3.42c1.13,1.18,2.19,2.42,3.23,3.67s2,2.55,3,3.88a40.3,40.3,0,0,1,2.67,4.12,40.71,40.71,0,0,1-3.53-3.42c-1.12-1.18-2.18-2.42-3.22-3.67s-2-2.55-3-3.88A42.16,42.16,0,0,1,256.56,639.7Z"/><path class="cls-3" d="M290,669.7a42.27,42.27,0,0,1,3.26-3.67c1.14-1.18,2.33-2.29,3.53-3.39s2.46-2.14,3.74-3.14a42.2,42.2,0,0,1,4-2.86,41,41,0,0,1-3.26,3.68c-1.14,1.18-2.33,2.29-3.53,3.39s-2.46,2.14-3.74,3.14A42.1,42.1,0,0,1,290,669.7Z"/><path class="cls-3" d="M265.42,687.66a43.05,43.05,0,0,1,4.85.82c1.6.34,3.17.76,4.74,1.2s3.12,1,4.65,1.51a40.65,40.65,0,0,1,4.54,1.89,43.83,43.83,0,0,1-4.85-.82c-1.59-.34-3.16-.77-4.73-1.21s-3.12-.94-4.65-1.5A46,46,0,0,1,265.42,687.66Z"/><path class="cls-3" d="M299.49,690a42.27,42.27,0,0,1,3.26-3.67c1.14-1.18,2.33-2.29,3.53-3.39s2.46-2.14,3.74-3.15a44,44,0,0,1,4-2.85,41,41,0,0,1-3.26,3.68c-1.14,1.18-2.33,2.29-3.53,3.39s-2.45,2.14-3.74,3.14A42.1,42.1,0,0,1,299.49,690Z"/><path class="cls-3" d="M274.61,663.91a44,44,0,0,1,1.67,4.62c.49,1.56.89,3.14,1.28,4.72s.72,3.18,1,4.79a41.68,41.68,0,0,1,.59,4.88,41.15,41.15,0,0,1-1.67-4.62c-.49-1.56-.9-3.14-1.29-4.72s-.71-3.18-1-4.79A41.68,41.68,0,0,1,274.61,663.91Z"/><path class="cls-3" d="M277,705.63a44,44,0,0,1,4.69-1.49c1.57-.42,3.16-.77,4.76-1.1s3.2-.58,4.82-.79a42,42,0,0,1,4.91-.39,44,44,0,0,1-4.69,1.49c-1.58.42-3.17.77-4.76,1.1s-3.21.58-4.83.78A40,40,0,0,1,277,705.63Z"/><path class="cls-3" d="M270.09,643.72a43.89,43.89,0,0,1,3.53,3.42c1.12,1.19,2.18,2.43,3.22,3.68s2,2.54,3,3.87a44.16,44.16,0,0,1,2.67,4.13A42.29,42.29,0,0,1,279,655.4c-1.13-1.19-2.18-2.43-3.23-3.68s-2-2.54-3-3.87A42.22,42.22,0,0,1,270.09,643.72Z"/></g></g></g></svg>