<svg xmlns="http://www.w3.org/2000/svg" viewBox="0 0 1282.06 469.8"><defs><style>.cls-1{fill:none;stroke:#fecd9a;stroke-miterlimit:10;stroke-width:2.9px;}.cls-2{fill:#ed1c24;}.cls-3{fill:#fff;}.cls-4{fill:#006838;}</style></defs><g id="Capa_2" data-name="Capa 2"><g id="Layer_1" data-name="Layer 1"><path class="cls-1" d="M1,1.1C135.38,116.79,371,245.35,512.11,256.38c300,23.44,647-125.6,705.23-168.16,0,0,29.33-22.82,63.61-63.53"/><path class="cls-2" d="M926.84,426.42A8.85,8.85,0,1,1,937.57,420,8.84,8.84,0,0,1,926.84,426.42Z"/><path class="cls-3" d="M726.74,468.13a8.85,8.85,0,1,1,10.73-6.43A8.85,8.85,0,0,1,726.74,468.13Z"/><path class="cls-4" d="M672.45,253.87,707,420.67A19.78,19.78,0,0,0,730.32,436l4.54-.94c7.18,8.17,22.75,20.58,43.8,7.35l-.35,1.48c23.71,31.49,49.39,1.86,49.39,1.86,33.83,15.39,45.31-19,45.31-19,34,8.14,41.5-28.09,41.5-28.09-.57-.12-1.12-.27-1.69-.39l5.1-1.06a19.78,19.78,0,0,0,15.36-23.37l-34.51-166.8a2.6,2.6,0,0,0-3.07-2L674.47,250.8A2.59,2.59,0,0,0,672.45,253.87ZM886.6,398.52a6,6,0,1,1,4.33,7.31A6,6,0,0,1,886.6,398.52ZM839.28,427a6,6,0,1,1,4.33,7.31A6,6,0,0,1,839.28,427Zm-46.4,7.27a6,6,0,1,1,4.33,7.31A6,6,0,0,1,792.88,434.24Zm-44.45-6.89a6,6,0,1,1,4.32,7.31A6,6,0,0,1,748.43,427.35Z"/><path class="cls-2" d="M55.37,294.23a8.85,8.85,0,1,0-8.23-9.41A8.84,8.84,0,0,0,55.37,294.23Z"/><path class="cls-3" d="M232.89,395.55a8.85,8.85,0,1,0-8.23-9.42A8.84,8.84,0,0,0,232.89,395.55Z"/><path class="cls-4" d="M72.85,269.2l4.53,2.58-1.74-.15s-4,36.77,30.84,39.51c0,0,.32,36.27,37.25,32.05,0,0,15.31,36.1,47.56,13.44l.12-1.51c16,19.07,34.59,12.06,43.94,6.5l4,2.29a19.77,19.77,0,0,0,27-7.42l84.21-148.06a2.6,2.6,0,0,0-1-3.54L153.19,93.2a2.59,2.59,0,0,0-3.54,1L65.44,242.24A19.77,19.77,0,0,0,72.85,269.2ZM219.2,343.71a6,6,0,1,1-6.37,5.62A6,6,0,0,1,219.2,343.71Zm-44.41-7.14a6,6,0,1,1-6.37,5.62A6,6,0,0,1,174.79,336.57Zm-41.91-21.21a6,6,0,1,1-6.36,5.62A6,6,0,0,1,132.88,315.36ZM96.63,273.71a6,6,0,1,1-6.37,5.63A6,6,0,0,1,96.63,273.71Z"/><path class="cls-4" d="M579.36,468.29a8.85,8.85,0,1,1,12.28-2.39A8.85,8.85,0,0,1,579.36,468.29Z"/><path class="cls-3" d="M377,439.5a8.85,8.85,0,1,1,12.28-2.4A8.85,8.85,0,0,1,377,439.5Z"/><path class="cls-2" d="M397.19,222.48l-21.57,169a19.78,19.78,0,0,0,17.11,22.12l4.6.58c4.14,10.06,14.84,26.86,39,21.19l-.82,1.28c12.19,37.49,46.11,17.81,46.11,17.81,27,25.55,49-3.26,49-3.26,29.54,18.75,48.38-13.08,48.38-13.08-.5-.3-1-.62-1.48-.93l5.17.66a19.77,19.77,0,0,0,22.12-17.11l21.57-169a2.6,2.6,0,0,0-2.25-2.9L400.1,220.23A2.6,2.6,0,0,0,397.19,222.48ZM585.38,390.61c.34-3,1-6.39,3.69-7.73,2.33-1.18,5.33-.07,7,2a12,12,0,0,1,2.17,7.37c.16,9.12-4.47,17.56-9,25.5l-.38-1.05C583.73,409.31,584.34,399.52,585.38,390.61Zm-37.2,30.69a12,12,0,0,1,7.11-2.92c9.05-1.1,17.93,2.62,26.29,6.26l-1,.48C573.79,431,564,431.41,555,431.3c-3,0-6.46-.36-8.07-2.87C545.53,426.23,546.32,423.14,548.18,421.3Zm-50.11,10.58a6,6,0,1,1,1.71,8.32A6,6,0,0,1,498.07,431.88Zm-46.25-8.2a6,6,0,1,1,1.72,8.32A6,6,0,0,1,451.82,423.68Zm-49.9-28.74c9.05-1.17,18.61-2.29,27,1.29a12.07,12.07,0,0,1,6,4.78c1.28,2.28,1.17,5.47-.79,7.19-2.25,2-5.68,1.31-8.55.52-8.65-2.39-18-5.51-22.84-13Zm-7-35.76a12.07,12.07,0,0,1,4.13-6.48c2.13-1.5,5.32-1.73,7.24,0,2.18,2,1.89,5.51,1.4,8.45-1.48,8.85-3.62,18.43-10.59,24.07l-.65.91C394.38,377.29,392.28,367.9,395,359.18Z"/><path class="cls-4" d="M1025.56,399.92a8.85,8.85,0,1,1,9.6-8A8.83,8.83,0,0,1,1025.56,399.92Z"/><path class="cls-3" d="M1212.66,324.78a8.85,8.85,0,1,1,9.6-8A8.86,8.86,0,0,1,1212.66,324.78Z"/><path class="cls-2" d="M938.52,196.75l60.09,159.38a19.78,19.78,0,0,0,25.48,11.53l4.33-1.64c8.37,7,25.69,16.78,44.42.44l-.12,1.51c28.33,27.41,49.07-5.86,49.07-5.86,35.82,9.92,41.8-25.85,41.8-25.85,34.88,2.73,36.62-34.22,36.62-34.22-.59,0-1.16-.09-1.74-.13l4.87-1.83a19.78,19.78,0,0,0,11.53-25.48l-60.09-159.38a2.6,2.6,0,0,0-3.35-1.51L940,193.4A2.6,2.6,0,0,0,938.52,196.75Zm256.67,84.95c-8-4-12.23-12.85-15.61-21.16-1.13-2.76-2.18-6.09-.5-8.55,1.48-2.15,4.64-2.63,7.05-1.63a12,12,0,0,1,5.46,5.42c4.53,7.91,4.55,17.54,4.44,26.66Zm-33.41,23.67a12.07,12.07,0,0,1,4.82-6c7.4-5.33,17-6.35,26.06-7.19l-.66.91c-3.11,8.41-11.5,13.5-19.41,17.73-2.63,1.41-5.83,2.81-8.46,1.38C1161.84,311,1161,307.87,1161.78,305.37Zm-31.48,36.35a6,6,0,1,1,5.42,6.55A6,6,0,0,1,1130.3,341.72Zm-44.69,14.42a6,6,0,1,1,5.41,6.54A6,6,0,0,1,1085.61,356.14Zm-64.67-3.35c7.36-5.4,15.19-11,24.27-11.9a12,12,0,0,1,7.58,1.3c2.21,1.37,3.66,4.22,2.77,6.68-1,2.8-4.34,3.88-7.24,4.57-8.73,2.07-18.38,3.82-26.29-.41Zm-22.85-35.65c1.14-2.35,3.83-4.08,6.36-3.45,2.89.72,4.31,3.91,5.3,6.73,3,8.46,5.72,17.88,2.33,26.19l-.13,1.11c-6.13-6.76-12.5-14-14.35-22.91A12,12,0,0,1,998.09,317.14Z"/></g></g></svg>