<svg xmlns="http://www.w3.org/2000/svg" viewBox="0 0 1152.89 475.11"><defs><style>.cls-1{fill:#006838;}.cls-2{fill:#ed1c24;}.cls-3{fill:#fff;}</style></defs><g id="Capa_2" data-name="Capa 2"><g id="Layer_1" data-name="Layer 1"><path class="cls-1" d="M228,329.87c-11.76,10.81-28.31,14.9-44.26,15.6s-31.89-1.57-47.87-1.63c-9.69,0-20.8,1.54-26.11,9.64a9.84,9.84,0,0,0-1.81,5.35,10.61,10.61,0,0,0,1.7,5.28c5.36,9.06,16.49,12.79,26.87,14.55,13.21,2.25,27.2,2.37,39.57-2.81,9.15-3.83,16.9-10.33,24.11-17.15,9.36-8.85,18-18.37,26.72-27.89"/><path class="cls-1" d="M226.25,328.1c-13.27,12.1-32.07,15.06-49.4,15-10.71,0-21.38-1.07-32.07-1.54-8.45-.37-17.47-.8-25.58,2.07-7.45,2.63-16.41,10.1-13,19,3,7.91,10.76,12.83,18.4,15.59,8.28,3,17.46,4.16,26.21,4.38,9.78.24,19.62-1.29,28.52-5.47,8.53-4,15.85-10.24,22.65-16.67,7.51-7.11,14.58-14.64,21.57-22.26,1.72-1.87,3.43-3.75,5.15-5.63,2.16-2.37-1.36-5.92-3.54-3.54-6.69,7.34-13.39,14.69-20.4,21.73-6.47,6.49-13.14,13-20.85,18.06a53.51,53.51,0,0,1-25.5,8.6,86.58,86.58,0,0,1-26.26-2.19c-7-1.66-14.36-4.48-18.93-10.31a12.45,12.45,0,0,1-2.7-5.27,7.29,7.29,0,0,1,1.6-5.21,16.48,16.48,0,0,1,7.75-5.75c7.56-2.89,16-2.49,23.92-2.17,10.28.41,20.54,1.4,30.83,1.55,17.25.27,35.76-2.07,50.15-12.4a55.51,55.51,0,0,0,5-4c2.39-2.18-1.16-5.7-3.53-3.54Z"/><path class="cls-2" d="M294.64,379.8c2.08,3.23,4.21,6.57,4.8,10.37s-.78,8.17-4.2,9.91c-5.85,3-12.22-3.26-14.87-9.26a50.59,50.59,0,0,1-4.23-23.18S291.12,374.35,294.64,379.8Z"/><path class="cls-1" d="M260.63,359.23q-14.55,15.34-28.56,31.2c-16,18.1-32,37.94-35.91,61.79-1,6.28-.77,13.63,4,17.79,6.22,5.38,16.6,1.78,21.3-5s5.44-15.37,6.52-23.53c4.08-31.1,18.87-55.14,36.19-81.29Z"/><path class="cls-1" d="M258.87,357.46q-11,11.64-21.77,23.58c-6.47,7.19-12.93,14.4-18.94,22-11.36,14.3-21.66,30.52-24.46,48.9-1.19,7.8-.51,17.95,7.64,21.81,7.13,3.38,16,.12,20.92-5.6,6.14-7.15,7-17,8.17-26a129.54,129.54,0,0,1,6.45-26.6c6.13-17.23,15.7-33,25.65-48.22,1.27-1.95,2.56-3.89,3.84-5.83a2.52,2.52,0,0,0-1.49-3.67l-3.58-1c-3.11-.86-4.43,4-1.33,4.82l3.58,1-1.5-3.68c-9.76,14.76-19.4,29.75-26.37,46.06a141.48,141.48,0,0,0-8.22,25.21c-1,4.49-1.66,9-2.24,13.58a74.73,74.73,0,0,1-2.42,12.77,21,21,0,0,1-5.84,9.79,15.1,15.1,0,0,1-8.56,3.72,8.7,8.7,0,0,1-7.92-3.42c-2.12-2.92-2.43-6.76-2.27-10.24a52.68,52.68,0,0,1,2.29-12.05A80.69,80.69,0,0,1,205,432.44a129.23,129.23,0,0,1,14.06-22.55c5.41-7.15,11.36-13.9,17.32-20.61q10.26-11.53,20.81-22.8L262.4,361C264.61,358.66,261.09,355.12,258.87,357.46Z"/><path class="cls-3" d="M171.72,400.86l-25.85-2.39c-4.69-.43-9.57-.84-14,.85s-8.11,6.16-7.29,10.8c.89,5.06,6.46,7.89,11.55,8.53,14.55,1.82,28.09-7.7,38.26-18.27Z"/><path class="cls-3" d="M171.72,398.36c-9.35-.86-18.7-1.85-28.06-2.58-4.18-.33-8.62-.38-12.59,1.2a14.63,14.63,0,0,0-8.07,7.39,10.48,10.48,0,0,0,.91,10.39,15.89,15.89,0,0,0,8.58,5.67c7.39,2.18,15.54.52,22.42-2.51,8.12-3.56,15.16-9.44,21.27-15.77,1.84-1.9-.05-4.6-2.43-4.18l-2.7.48a2.51,2.51,0,0,0-1.74,3.07,2.54,2.54,0,0,0,3.07,1.75l2.7-.48-2.43-4.17c-9.14,9.46-21.36,18.81-35.28,17.65-4.33-.36-11.55-3-10.24-8.64a9.1,9.1,0,0,1,5.44-5.9c3.4-1.41,7.28-1.24,10.87-1,9.44.72,18.86,1.73,28.28,2.6a2.5,2.5,0,1,0,0-5Z"/><path class="cls-1" d="M912.57,347.13c12.4,11.4,29.85,15.72,46.67,16.46s33.64-1.66,50.48-1.72c10.22,0,21.93,1.62,27.54,10.17a10.4,10.4,0,0,1,1.91,5.63,11.3,11.3,0,0,1-1.8,5.57c-5.65,9.56-17.39,13.49-28.33,15.35-13.93,2.37-28.69,2.5-41.73-3-9.65-4-17.83-10.9-25.43-18.09-9.86-9.33-19-19.38-28.17-29.41"/><path class="cls-1" d="M910.81,348.9c13.5,12.32,32.08,16.65,49.9,17.25,10.8.36,21.57-.51,32.34-1.15,5.47-.33,10.94-.6,16.42-.63a58.82,58.82,0,0,1,11.48.89,26.48,26.48,0,0,1,10.23,4c2.78,1.94,6,5.55,5.43,9.19s-3.89,7.29-6.76,9.57a34.48,34.48,0,0,1-10.11,5.32,85.31,85.31,0,0,1-26.53,4.27c-9.6.15-19.3-1.36-28-5.68-8.47-4.24-15.66-10.51-22.48-17-7.63-7.28-14.84-15-22-22.74q-2.67-2.91-5.33-5.84c-2.18-2.38-5.7,1.16-3.54,3.54,7.37,8.08,14.75,16.17,22.51,23.89,7.17,7.15,14.63,14.26,23.25,19.64a61.78,61.78,0,0,0,28.81,9,95.3,95.3,0,0,0,29.37-2.74c8.07-2,16.36-5.61,21.63-12.32,3.08-3.92,5.34-8.78,3.38-13.74a20,20,0,0,0-8.6-9.6c-7.31-4.29-16.26-4.78-24.53-4.67-11.13.15-22.21,1.23-33.33,1.66-18.8.73-39-.6-55-11.61a47.63,47.63,0,0,1-5.1-4.07c-2.37-2.17-5.92,1.36-3.53,3.53Z"/><path class="cls-2" d="M858.25,379.8c-2.08,3.23-4.21,6.57-4.8,10.37s.78,8.17,4.2,9.91c5.85,3,12.21-3.26,14.87-9.26a50.72,50.72,0,0,0,4.23-23.18S861.77,374.35,858.25,379.8Z"/><path class="cls-1" d="M892.25,359.23q14.57,15.34,28.57,31.2c16,18.1,32,37.94,35.9,61.79,1,6.28.78,13.63-4,17.79-6.22,5.38-16.59,1.78-21.3-5s-5.44-15.37-6.51-23.53c-4.09-31.1-18.87-55.14-36.2-81.29Z"/><path class="cls-1" d="M890.49,361q10.62,11.2,21,22.68c6.27,7,12.54,13.94,18.43,21.22,10.91,13.5,20.74,28.64,24.08,45.94,1.16,6,1.92,15.6-4.9,18.57-6.09,2.65-13.37-1.84-16.52-7.19-4.47-7.61-4.46-17-5.85-25.46a133,133,0,0,0-7-25.63c-6.31-16.54-15.49-31.74-25.14-46.51-1.23-1.89-2.47-3.77-3.72-5.66l-1.49,3.68,3.58-1c3.1-.86,1.78-5.68-1.33-4.82l-3.58,1a2.51,2.51,0,0,0-1.49,3.67c10.08,15.23,20.13,30.75,27.07,47.73a135.66,135.66,0,0,1,7.82,26.32c1.69,9.08,1.69,18.71,5.74,27.19,3.39,7.11,10.74,12.81,18.92,12.37a13.56,13.56,0,0,0,10.24-5.35c2.51-3.31,3.37-7.57,3.4-11.66a50.8,50.8,0,0,0-1.9-12.84,84.52,84.52,0,0,0-4.61-13.07,123.67,123.67,0,0,0-14.07-23.45c-5.66-7.61-11.87-14.79-18.16-21.88q-10.65-12-21.61-23.72c-1.78-1.89-3.55-3.78-5.34-5.66C891.8,355.12,888.27,358.66,890.49,361Z"/><path class="cls-3" d="M971.94,422l27.25-2.52c4.95-.46,10.1-.89,14.74.9s8.55,6.49,7.69,11.38c-.94,5.33-6.81,8.32-12.18,9-15.35,1.93-29.62-8.11-40.34-19.26Z"/><path class="cls-3" d="M971.94,424.5,998.7,422c6.55-.61,15.64-1.67,19.56,5a6,6,0,0,1-.46,7.11c-1.85,2.22-4.75,3.35-7.51,3.91-6.6,1.35-13.74-.41-19.68-3.3-7.52-3.65-14-9.09-19.75-15.06l-2.43,4.17,2.85.51a2.57,2.57,0,0,0,3.07-1.75,2.51,2.51,0,0,0-1.74-3.07l-2.85-.51c-2.37-.42-4.27,2.28-2.43,4.18,11.11,11.51,26.4,22.43,43.28,19.84,7.14-1.1,14.73-6.39,13.46-14.48-.6-3.88-3.34-7.19-6.59-9.25-3.71-2.34-8.32-2.88-12.62-2.78-5.36.13-10.73.86-16.07,1.35l-16.85,1.56a2.57,2.57,0,0,0-2.5,2.5A2.53,2.53,0,0,0,971.94,424.5Z"/><path class="cls-1" d="M121.07,156.14c-30.68-6.75-62,4.65-92.16,13.45-5,1.46-10.28,2.87-15.45,2S3.22,167,2.56,161.83c-.78-6.07,4.35-11.12,9-15.09,4.94-4.19,10-8.45,16-10.91,10-4.09,21.3-2.7,32-1.12,23.2,3.42,47.78,8.07,64.89,24.1"/><path class="cls-1" d="M121.73,153.73c-18.26-4-37-1.76-55,2.51-9.17,2.18-18.2,4.87-27.22,7.57-4.45,1.34-8.89,2.72-13.37,4C22,168.93,17.4,170,13.07,169c-3.07-.74-6.17-2.62-7.51-5.59s0-6.4,1.85-9c2.34-3.17,5.58-5.68,8.59-8.17a56.85,56.85,0,0,1,10.29-7.12c7.73-3.95,16.63-3.91,25.05-3,8.1.85,16.2,2.21,24.18,3.77,15.1,3,30.5,7.46,42.85,17,1.5,1.16,2.93,2.4,4.32,3.69,2.35,2.19,5.89-1.34,3.53-3.54C114,145.66,98.06,139.73,82,136.15c-8.2-1.83-16.53-3.14-24.85-4.29-9.16-1.27-18.75-2.18-27.73.66a41.56,41.56,0,0,0-12,6.34,108.83,108.83,0,0,0-10.21,8.46c-2.95,2.79-5.8,6.16-6.81,10.19a12.41,12.41,0,0,0,2.91,11.38c6.53,7.35,17,5.78,25.37,3.37,9.42-2.7,18.75-5.67,28.19-8.28,18.35-5.09,37.55-9.12,56.66-6.65,2.32.3,4.62.73,6.9,1.22,3.14.68,4.48-4.14,1.33-4.82Z"/><path class="cls-3" d="M142.08,143.11c-23.69-7.12-43.82-23.2-62.89-39-4-3.34-8.36-7.64-7.89-12.86.44-5,5.41-8.65,10.38-9.58,11-2.06,21.35,5.41,29.55,13,14.63,13.57,27.72,29.35,35,47.91C146.27,142.65,146.21,144.35,142.08,143.11Z"/><path class="cls-3" d="M142.75,140.7c-12.92-3.91-24.76-10.54-35.82-18.18-5.57-3.84-10.94-8-16.22-12.17-2.72-2.17-5.4-4.37-8.09-6.58a39.52,39.52,0,0,1-6.72-6.33c-1.57-2.06-2.65-4.59-1.86-7.17.71-2.32,2.76-4,4.84-5,5.25-2.65,11.78-1.25,16.81,1.23,5.9,2.9,10.89,7.25,15.62,11.75A177.32,177.32,0,0,1,125,112.66a123.2,123.2,0,0,1,12.73,18,98.69,98.69,0,0,1,4.94,9.73,27.16,27.16,0,0,0,1.06,2.51s.26-1.3.14-.84c-.09.29.34-.68.14-.37,0,0,.85-.77.53-.56.61-.4-.21-.09.26-.1a6.4,6.4,0,0,1-2-.36c-3.1-.88-4.43,3.94-1.33,4.82,2.28.65,5.59,1.11,7-1.4.7-1.29.2-2.42-.33-3.69-.7-1.69-1.43-3.37-2.22-5a113.65,113.65,0,0,0-11.29-18.67A162.07,162.07,0,0,0,120.27,100c-5.15-5.27-10.53-10.5-16.64-14.67-5.84-4-12.9-7.09-20.12-6.4-6.53.61-13.69,4.55-14.63,11.65-1,7.45,5.4,12.73,10.54,17,5.82,4.79,11.69,9.53,17.74,14,12,9,24.81,17,39,22.14q2.63.94,5.31,1.76C144.5,146.46,145.82,141.63,142.75,140.7Z"/><path class="cls-1" d="M154.18,125.49c-7.15-11.79-14.37-23.7-18.86-36.75a97.71,97.71,0,0,1-.76-60.93c1.44-4.55,3.37-9.21,7.12-12.17s9.76-3.53,13-.05A13,13,0,0,1,157.38,21c9.08,31.05-23.28,68.53-6.13,96a20.89,20.89,0,0,0,6.13,5.7S158.38,127.61,154.18,125.49Z"/><path class="cls-1" d="M156.34,124.23c-4.89-8.06-9.79-16.15-13.86-24.67A100.72,100.72,0,0,1,134,73.42a96.37,96.37,0,0,1-.75-27.5,91.55,91.55,0,0,1,2.56-13.32c1.07-4,2.23-8.07,4.45-11.58,1.82-2.87,4.62-5.21,8.16-5.32a6.09,6.09,0,0,1,4.07,1.16,9.1,9.1,0,0,1,2.47,4.59A47.09,47.09,0,0,1,156,41.05c-1.81,13.87-7.21,27-10.25,40.58-1.46,6.51-2.49,13.28-1.93,20s2.54,14,7.13,19a29.8,29.8,0,0,0,5.19,4.23l-1.15-1.5c.11.59,0-.69,0,0,0,.18,0,.36,0,.54s-.06.73,0,.28,0,.21-.09.26c.17-.36.19-.42.06-.19a1.24,1.24,0,0,1,.5-.49c.38-.13.44-.16.17-.08a.77.77,0,0,1,.56,0c-.06.07-.71-.22-.75-.24a2.57,2.57,0,0,0-3.42.9,2.52,2.52,0,0,0,.9,3.42c1.66.79,3.52,1.29,5.18.23a4.66,4.66,0,0,0,1.88-3.94,3.91,3.91,0,0,0-1.08-3.28c-1.76-1.51-3.76-2.58-5.17-4.51-4.08-5.62-5.25-12.94-5.06-19.68.21-7.4,2-14.66,4-21.8,2.14-7.7,4.6-15.3,6.42-23.08,1.73-7.44,3-15.18,2.26-22.83a35.41,35.41,0,0,0-2.91-12.09,10.67,10.67,0,0,0-10.73-5.93c-10.24.93-14.21,11.3-16.57,19.88A100.23,100.23,0,0,0,133.84,92c3.69,9.83,8.77,19,14.14,28.05q2,3.36,4,6.7C153.69,129.5,158,127,156.34,124.23Z"/><path class="cls-2" d="M174.08,97.42c5.31-13.31,12.78-28.48,26.88-31a5.25,5.25,0,0,1,3.65.34c2.07,1.28,1.74,4.39.88,6.67C201,85.3,189.65,93.05,179,100"/><path class="cls-1" d="M1025.36,153.19c32.34-7.12,65.38,4.9,97.18,14.18,5.3,1.54,10.83,3,16.29,2.14s10.8-4.84,11.5-10.32c.81-6.41-4.59-11.73-9.52-15.91-5.21-4.42-10.54-8.92-16.87-11.51-10.54-4.32-22.45-2.84-33.72-1.18-24.47,3.61-50.39,8.51-68.44,25.41"/><path class="cls-1" d="M1026,155.6c20-4.34,40.44-1.17,60,3.81,10,2.56,19.89,5.6,29.79,8.56,9.18,2.74,19.83,6.88,29,2.13a14.87,14.87,0,0,0,7.7-9c1.1-4.23-.25-8.59-2.74-12.07s-6-6.47-9.36-9.3a72.71,72.71,0,0,0-11.67-8.38c-8.78-4.77-18.76-5.39-28.53-4.48-9.08.85-18.19,2.37-27.15,4.08-17.07,3.27-34.3,8.43-48.22,19.23-1.67,1.3-3.28,2.66-4.83,4.11-2.36,2.19,1.19,5.72,3.54,3.53,12.12-11.28,28-17,43.91-20.61,8.24-1.85,16.6-3.18,25-4.39,8.91-1.28,18.3-2.34,27.11.13,8.45,2.37,15.67,8.45,22,14.33,2.69,2.51,5.46,5.44,6.25,9.16a8.28,8.28,0,0,1-3.65,8.28c-7.47,5.4-17.61,1.28-25.45-1-9.51-2.83-19-5.77-28.6-8.31-18.94-5-38.65-8.5-58.24-5.8q-3.6.5-7.14,1.27c-3.14.68-1.81,5.5,1.33,4.82Z"/><path class="cls-3" d="M1010.81,132.36c23.68-7.12,43.81-23.2,62.89-38.94,4-3.34,8.36-7.65,7.89-12.87-.45-5-5.41-8.64-10.38-9.58-11-2.06-21.36,5.42-29.56,13-14.63,13.57-27.71,29.35-35,47.92C1006.61,131.91,1006.68,133.6,1010.81,132.36Z"/><path class="cls-3" d="M1011.47,134.77c14.37-4.35,27.51-11.88,39.69-20.56,6.14-4.38,12.08-9,17.94-13.81,2.83-2.3,5.75-4.54,8.44-7a20.77,20.77,0,0,0,6-8.52c2.31-7.05-2.79-13.19-9.11-15.58-6.8-2.57-14.5-.66-20.7,2.6-6.49,3.42-12,8.46-17.23,13.53a169.28,169.28,0,0,0-14.7,16.06,125.22,125.22,0,0,0-12.29,18.32,106.26,106.26,0,0,0-4.7,9.88c-.51,1.25-1,2.42-.32,3.69a3.81,3.81,0,0,0,2.34,1.77,8.78,8.78,0,0,0,4.62-.37c3.09-.88,1.78-5.7-1.33-4.82a10.21,10.21,0,0,1-1.79.37h-.25c.31.06.34.06.08,0-.36-.37.43.32.09,0a2,2,0,0,1,.77,1c-.13-.46.11.84.14.84a12.12,12.12,0,0,0,.55-1.35,95.29,95.29,0,0,1,4.21-8.69,118.67,118.67,0,0,1,10.76-16.3A164.47,164.47,0,0,1,1037.94,91c4.62-4.62,9.4-9.23,14.9-12.8,5.07-3.29,11.12-5.89,17.3-4.92,4.69.74,10.28,4.43,8.71,9.88-.81,2.8-3,5-5.14,6.93-2.4,2.16-5,4.16-7.47,6.2-5.24,4.27-10.54,8.46-16,12.43-12.27,8.9-25.49,16.78-40.08,21.2C1007.07,130.88,1008.38,135.71,1011.47,134.77Z"/><path class="cls-1" d="M990,116.7c7.27-12,14.61-24.11,19.18-37.38a99.43,99.43,0,0,0,.77-62c-1.46-4.63-3.43-9.37-7.24-12.38s-9.92-3.59-13.25-.05a13.22,13.22,0,0,0-2.72,5.48C977.54,42,1010.45,80.1,993,108a21.18,21.18,0,0,1-6.23,5.79S985.76,118.85,990,116.7Z"/><path class="cls-1" d="M992.18,118c5.56-9.16,11.14-18.36,15.52-28.15A105.81,105.81,0,0,0,1016.35,59a102.18,102.18,0,0,0-1.17-31.36A79.79,79.79,0,0,0,1011.07,13c-1.75-4.34-4.28-8.7-8.48-11.08a13.22,13.22,0,0,0-12.25-.66c-4.25,2.13-5.77,7-6.69,11.37-1.65,7.73-1.12,15.67.29,23.39,2.82,15.48,9.48,30.27,11.33,45.86.83,7,.61,14.1-2.13,20.54a23.8,23.8,0,0,1-2.71,5,22.38,22.38,0,0,1-4.92,4.28c-2.21,1.61-1.66,6.05.55,7.46,1.68,1.07,3.55.57,5.23-.23a2.51,2.51,0,0,0,.89-3.42,2.54,2.54,0,0,0-3.42-.9l-.76.24a.72.72,0,0,1,.54,0c-.27-.07-.21,0,.16.08a1.22,1.22,0,0,1,.5.48c-.13-.23-.11-.17.06.19-.06,0-.17-.76-.1-.28s0-.19,0-.28,0-.37,0-.56c0-.65-.12.63,0,0L988,115.94a24.15,24.15,0,0,0,8.41-8.92,36.1,36.1,0,0,0,3.38-9.46c1.36-6.71.94-13.55-.2-20.26-2.42-14.16-8-27.56-10.67-41.65-1.25-6.48-1.9-13.37-.84-19.84a41,41,0,0,1,1.13-4.93,9.36,9.36,0,0,1,2.51-4.68c2.38-2,6.15-1.34,8.61.16,3.26,2,5.12,5.77,6.39,9.22a87.19,87.19,0,0,1,3.56,13.2,96.86,96.86,0,0,1-5.46,55.07c-3.59,8.88-8.37,17.24-13.27,25.44q-1.85,3.08-3.71,6.15C986.19,118.19,990.52,120.71,992.18,118Z"/><path class="cls-2" d="M969.45,91.27c-5.6-14-13.48-30-28.35-32.75a5.49,5.49,0,0,0-3.84.36c-2.19,1.35-1.84,4.63-.93,7C941.1,78.49,953,86.66,964.28,94"/></g></g></svg>