<svg xmlns="http://www.w3.org/2000/svg" viewBox="0 0 268.67 495.85"><defs><style>.cls-1{isolation:isolate;}.cls-2{fill:#811423;}.cls-3,.cls-4{fill:#f89842;}.cls-4,.cls-7{mix-blend-mode:multiply;}.cls-5{fill:#2b0f12;}.cls-6{fill:#faab68;}.cls-7{fill:#0e122e;}.cls-8{fill:#e18e4c;}.cls-9{fill:#e9a522;}.cls-10{fill:#bb202b;}.cls-11{fill:#fff;}.cls-12{fill:#fbb274;}</style></defs><g class="cls-1"><g id="Capa_2" data-name="Capa 2"><g id="Layer_1" data-name="Layer 1"><path class="cls-2" d="M21.46,319.34c4.91-4.22,40.4-10.37,45.26-14.62,17.57-15.37,33.62-41.41,37.67-64.34,9.15-51.93,50.69-79,86.39-69.42q3.16.85,6.26,1.95t6.19,2.15c34.42,13.5,77.71,63,56.9,116.64-8.42,21.71-12.95,51.32-8,74.13,1.38,6.31,3.84,12.57,5.29,18.87C272.27,449.46,204.8,515,108.26,490.63,13.28,466.62-28.95,362.6,21.46,319.34Z"/><path class="cls-3" d="M28,297.15c4.91-4.21,10.61-7.79,15.47-12,17.58-15.37,33.63-41.41,37.67-64.34,9.16-51.93,61.49-63.52,97.19-53.91q3.16.85,6.26,1.95t6.18,2.15c34.43,13.5,65.39,56.28,46.12,101.13-9.2,21.39-13,51.32-8,74.13,1.38,6.31,3.85,12.57,5.29,18.87C249,429.85,179.72,501.81,85,471-2.41,442.61-22.4,340.42,28,297.15Z"/><path class="cls-4" d="M51.86,440.67c99.5,42.82,177.62-42.56,159.41-112.62-6.43-24.72-1.23-52.74,8-74.13,8.38-19.5,9.17-53.11-13-74.76,27.3,18.5,47,55,30.67,92.93-9.2,21.39-13,51.32-8,74.13,1.38,6.31,3.85,12.57,5.29,18.87C249,429.85,179.72,501.81,85,471c-34.25-11.13-58.14-33.58-71.51-59.37C22.57,426.35,36.78,434.18,51.86,440.67Z"/><circle class="cls-2" cx="142.2" cy="298.87" r="62.78" transform="translate(-73.11 47.5) rotate(-15.14)"/><circle class="cls-5" cx="142.2" cy="298.87" r="41.43" transform="translate(-169.68 188.09) rotate(-45)"/><path class="cls-6" d="M197.24,20l-3.94-1.3a2.83,2.83,0,0,1-1.81-3.57l.25-.75a2.83,2.83,0,0,1,3.95-1.65l3.73,1.85a2.83,2.83,0,0,1,1.52,3.09l0,.19A2.83,2.83,0,0,1,197.24,20Z"/><path class="cls-6" d="M195.32,28l-3.95-1.29a2.84,2.84,0,0,1-1.8-3.58l.25-.75a2.83,2.83,0,0,1,4-1.65l3.73,1.85A2.83,2.83,0,0,1,199,25.65l0,.19A2.82,2.82,0,0,1,195.32,28Z"/><path class="cls-6" d="M193.94,37.58,190,36.28a2.83,2.83,0,0,1-1.81-3.58l.25-.75a2.83,2.83,0,0,1,3.95-1.65l3.73,1.85a2.83,2.83,0,0,1,1.52,3.09l0,.2A2.83,2.83,0,0,1,193.94,37.58Z"/><path class="cls-7" d="M155.17,259.52A41.4,41.4,0,0,1,182.67,290a41.43,41.43,0,0,0-73.94,33.29,41.43,41.43,0,0,1,46.44-63.75Z"/><rect class="cls-8" x="170.58" y="34.78" width="41.24" height="225.63" transform="translate(326.6 347.61) rotate(-161.76)"/><rect class="cls-6" x="167.99" y="33.93" width="41.24" height="225.63" transform="translate(321.83 345.14) rotate(-161.76)"/><rect class="cls-9" x="91.05" y="365.4" width="44.18" height="12.78" transform="translate(104.26 760.3) rotate(-161.76)"/><path class="cls-10" d="M202.46,53.47l36.18,11.92a9.93,9.93,0,0,0,12.23-5.5L264.3,28.73a9.93,9.93,0,0,0-6-13.36L216.41,1.57a9.93,9.93,0,0,0-12.78,7.16l-7.73,33A9.94,9.94,0,0,0,202.46,53.47Z"/><path class="cls-2" d="M199.23,52.4l36.19,11.92a9.91,9.91,0,0,0,12.22-5.5l13.43-31.16a9.94,9.94,0,0,0-6-13.36L213.18.5A9.94,9.94,0,0,0,200.4,7.67l-7.73,33A9.93,9.93,0,0,0,199.23,52.4Z"/><rect class="cls-6" x="89.98" y="364.33" width="44.18" height="12.78" transform="translate(102.49 757.88) rotate(-161.76)"/><polygon class="cls-11" points="245.18 25.03 187.26 201.43 128.97 377.71 186.9 201.31 245.18 25.03"/><polygon class="cls-11" points="239.04 23 181.11 199.41 122.83 375.69 180.75 199.29 239.04 23"/><polygon class="cls-11" points="232.9 20.98 174.97 197.38 116.68 373.67 174.6 197.26 232.9 20.98"/><polygon class="cls-11" points="226.75 18.95 168.82 195.36 110.54 371.64 168.46 195.24 226.75 18.95"/><polygon class="cls-11" points="220.6 16.93 162.68 193.33 104.39 369.62 162.32 193.21 220.6 16.93"/><polygon class="cls-11" points="214.46 14.9 156.54 191.31 98.25 367.59 156.17 191.19 214.46 14.9"/><path class="cls-3" d="M135.92,176.39C122.71,179.09,105.51,187,93,208.31a2.45,2.45,0,0,0,3.83,3c9.62-9.54,24.73-22.84,40.59-30.3A2.44,2.44,0,0,0,135.92,176.39Z"/><path class="cls-12" d="M56.44,323.74c1.19-12.64-15.83-18-22.09-7-8.51,15-14.79,33-13,52.12,2.23,24.06,18.44,41.65,36.1,53.85,10.45,7.23,23.34-4.68,17-15.7A139,139,0,0,1,56.44,323.74Z"/><path class="cls-6" d="M260.76,40.9l3.94,1.3a2.84,2.84,0,0,0,3.58-1.8l.25-.75a2.83,2.83,0,0,0-2.2-3.67l-4.1-.74a2.85,2.85,0,0,0-3.06,1.59l-.08.17A2.83,2.83,0,0,0,260.76,40.9Z"/><path class="cls-6" d="M257.55,48.49l3.94,1.3A2.84,2.84,0,0,0,265.07,48l.24-.74a2.83,2.83,0,0,0-2.19-3.68L259,42.83A2.84,2.84,0,0,0,256,44.41l-.08.18A2.83,2.83,0,0,0,257.55,48.49Z"/><path class="cls-6" d="M253,57l3.94,1.3a2.84,2.84,0,0,0,3.58-1.8l.25-.75a2.84,2.84,0,0,0-2.2-3.68l-4.1-.73a2.85,2.85,0,0,0-3.06,1.58l-.08.18A2.83,2.83,0,0,0,253,57Z"/></g></g></g></svg>