<svg xmlns="http://www.w3.org/2000/svg" xmlns:xlink="http://www.w3.org/1999/xlink" viewBox="0 0 1363.42 495.85"><defs><style>.cls-1{fill:none;}.cls-2{isolation:isolate;}.cls-3{clip-path:url(#clip-path);}.cls-4{fill:#811423;}.cls-5,.cls-6{fill:#f89842;}.cls-6,.cls-9{mix-blend-mode:multiply;}.cls-7{fill:#2b0f12;}.cls-8{fill:#faab68;}.cls-9{fill:#0e122e;}.cls-10{fill:#e18e4c;}.cls-11{fill:#e9a522;}.cls-12{fill:#bb202b;}.cls-13{fill:#fff;}.cls-14{fill:#fbb274;}</style><clipPath id="clip-path" transform="translate(41.18 -37.74)"><rect class="cls-1" width="1279.31" height="610.21"/></clipPath></defs><g class="cls-2"><g id="Capa_2" data-name="Capa 2"><g id="Layer_1" data-name="Layer 1"><g class="cls-3"><path class="cls-4" d="M1075,357.07c4.91-4.21,40.4-10.36,45.26-14.61,17.57-15.37,33.62-41.41,37.67-64.34,9.15-51.94,50.69-79,86.39-69.42q3.17.86,6.26,1.94t6.19,2.16c34.42,13.5,77.71,63,56.9,116.64-8.42,21.71-13,51.32-8,74.13,1.38,6.31,3.84,12.57,5.29,18.87,14.81,64.76-52.66,130.34-149.2,105.93C1066.85,504.36,1024.62,400.34,1075,357.07Z" transform="translate(41.18 -37.74)"/><path class="cls-5" d="M1081.58,334.89c4.91-4.22,10.61-7.79,15.47-12,17.58-15.37,33.63-41.41,37.67-64.34,9.16-51.94,61.49-63.52,97.19-53.91q3.16.85,6.26,1.94t6.18,2.16c34.43,13.5,65.39,56.28,46.12,101.13-9.2,21.39-13,51.32-8,74.13,1.38,6.31,3.85,12.57,5.29,18.87,14.81,64.76-54.5,136.72-149.2,105.93C1051.16,480.35,1031.17,378.15,1081.58,334.89Z" transform="translate(41.18 -37.74)"/><path class="cls-6" d="M1105.43,478.41c99.5,42.81,177.62-42.56,159.41-112.62-6.43-24.72-1.23-52.74,8-74.13,8.38-19.5,9.17-53.11-13-74.76,27.3,18.49,47,55,30.67,92.93-9.2,21.39-13,51.32-8,74.13,1.38,6.31,3.85,12.57,5.29,18.87,14.81,64.76-54.5,136.72-149.2,105.93-34.25-11.13-58.14-33.58-71.51-59.37C1076.14,464.09,1090.35,471.92,1105.43,478.41Z" transform="translate(41.18 -37.74)"/><circle class="cls-4" cx="1195.77" cy="336.6" r="62.78" transform="translate(-5.23 286.18) rotate(-15.14)"/><circle class="cls-7" cx="1195.77" cy="336.6" r="41.43" transform="translate(153.4 906.39) rotate(-45)"/><path class="cls-8" d="M1250.81,57.71l-3.94-1.3a2.83,2.83,0,0,1-1.81-3.58l.25-.74a2.83,2.83,0,0,1,4-1.65l3.73,1.85a2.83,2.83,0,0,1,1.52,3.09l0,.19A2.84,2.84,0,0,1,1250.81,57.71Z" transform="translate(41.18 -37.74)"/><path class="cls-8" d="M1248.89,65.72l-4-1.3a2.83,2.83,0,0,1-1.8-3.57l.25-.75a2.83,2.83,0,0,1,3.95-1.65l3.73,1.85a2.83,2.83,0,0,1,1.52,3.09l0,.19A2.82,2.82,0,0,1,1248.89,65.72Z" transform="translate(41.18 -37.74)"/><path class="cls-8" d="M1247.51,75.31,1243.57,74a2.84,2.84,0,0,1-1.81-3.58l.25-.75a2.83,2.83,0,0,1,4-1.65l3.73,1.85a2.83,2.83,0,0,1,1.52,3.09l0,.2A2.82,2.82,0,0,1,1247.51,75.31Z" transform="translate(41.18 -37.74)"/><path class="cls-9" d="M1208.74,297.26a41.38,41.38,0,0,1,27.5,30.46A41.43,41.43,0,0,0,1162.3,361a41.43,41.43,0,0,1,46.44-63.75Z" transform="translate(41.18 -37.74)"/><rect class="cls-10" x="1224.15" y="72.52" width="41.24" height="225.63" transform="translate(2410.19 713.17) rotate(-161.76)"/><rect class="cls-8" x="1221.56" y="71.67" width="41.24" height="225.63" transform="translate(2405.41 710.71) rotate(-161.76)"/><rect class="cls-11" x="1144.62" y="403.14" width="44.18" height="12.78" transform="translate(2187.85 1125.86) rotate(-161.76)"/><path class="cls-12" d="M1256,91.2l36.18,11.93a9.93,9.93,0,0,0,12.23-5.5l13.43-31.17a9.93,9.93,0,0,0-6-13.35L1270,39.31a9.93,9.93,0,0,0-12.78,7.16l-7.73,33A9.93,9.93,0,0,0,1256,91.2Z" transform="translate(41.18 -37.74)"/><path class="cls-4" d="M1252.8,90.14,1289,102.06a9.91,9.91,0,0,0,12.22-5.5l13.43-31.16a9.94,9.94,0,0,0-6-13.36l-41.88-13.8A9.94,9.94,0,0,0,1254,45.41l-7.73,33A9.93,9.93,0,0,0,1252.8,90.14Z" transform="translate(41.18 -37.74)"/><rect class="cls-8" x="1143.55" y="402.07" width="44.18" height="12.78" transform="translate(2186.07 1123.45) rotate(-161.76)"/><polygon class="cls-13" points="1339.93 25.03 1282.01 201.43 1223.72 377.71 1281.64 201.31 1339.93 25.03"/><polygon class="cls-13" points="1333.79 23 1275.87 199.41 1217.58 375.69 1275.5 199.29 1333.79 23"/><polygon class="cls-13" points="1327.64 20.98 1269.72 197.38 1211.43 373.67 1269.36 197.26 1327.64 20.98"/><polygon class="cls-13" points="1321.5 18.95 1263.58 195.36 1205.29 371.64 1263.21 195.24 1321.5 18.95"/><polygon class="cls-13" points="1315.36 16.93 1257.43 193.33 1199.14 369.62 1257.07 193.21 1315.36 16.93"/><polygon class="cls-13" points="1309.21 14.9 1251.29 191.31 1193 367.59 1250.92 191.19 1309.21 14.9"/><path class="cls-5" d="M1189.49,214.13c-13.21,2.7-30.41,10.55-42.88,31.92a2.44,2.44,0,0,0,3.83,3c9.62-9.53,24.73-22.83,40.59-30.29A2.44,2.44,0,0,0,1189.49,214.13Z" transform="translate(41.18 -37.74)"/><path class="cls-14" d="M1110,361.48c1.19-12.64-15.83-18-22.09-7-8.51,15-14.79,33-13,52.12,2.23,24.06,18.44,41.64,36.1,53.85,10.45,7.23,23.34-4.68,17-15.7A139.05,139.05,0,0,1,1110,361.48Z" transform="translate(41.18 -37.74)"/><path class="cls-8" d="M1314.33,78.64l3.94,1.3a2.84,2.84,0,0,0,3.58-1.8l.25-.75a2.84,2.84,0,0,0-2.2-3.68l-4.1-.73a2.85,2.85,0,0,0-3.06,1.58l-.08.18A2.83,2.83,0,0,0,1314.33,78.64Z" transform="translate(41.18 -37.74)"/><path class="cls-8" d="M1311.12,86.23l3.94,1.3a2.84,2.84,0,0,0,3.58-1.81l.24-.74a2.83,2.83,0,0,0-2.19-3.68l-4.11-.73a2.84,2.84,0,0,0-3.06,1.58l-.08.18A2.84,2.84,0,0,0,1311.12,86.23Z" transform="translate(41.18 -37.74)"/><path class="cls-8" d="M1306.52,94.76l3.94,1.3a2.83,2.83,0,0,0,3.58-1.81l.25-.74a2.84,2.84,0,0,0-2.2-3.68l-4.1-.73a2.84,2.84,0,0,0-3.06,1.58l-.08.18A2.83,2.83,0,0,0,1306.52,94.76Z" transform="translate(41.18 -37.74)"/><path class="cls-4" d="M206,357.07c-4.9-4.21-40.4-10.36-45.26-14.61-17.57-15.37-33.62-41.41-37.67-64.34-9.15-51.94-50.69-79-86.39-69.42q-3.16.86-6.26,1.94t-6.18,2.16c-34.43,13.5-77.72,63-56.91,116.64,8.42,21.71,13,51.32,8,74.13-1.38,6.31-3.84,12.57-5.29,18.87C-44.78,487.2,22.69,552.78,119.24,528.37,214.21,504.36,256.45,400.34,206,357.07Z" transform="translate(41.18 -37.74)"/><path class="cls-5" d="M199.48,334.89c-4.91-4.22-10.61-7.79-15.47-12-17.57-15.37-33.62-41.41-37.67-64.34C137.19,206.57,84.85,195,49.15,204.6q-3.16.85-6.26,1.94t-6.18,2.16C2.29,222.2-28.68,265-9.4,309.83c9.19,21.39,13,51.32,8,74.13-1.38,6.31-3.84,12.57-5.29,18.87-14.81,64.76,54.5,136.72,149.2,105.93C229.9,480.35,249.89,378.15,199.48,334.89Z" transform="translate(41.18 -37.74)"/><path class="cls-6" d="M175.63,478.41C76.13,521.22-2,435.85,16.22,365.79c6.43-24.72,1.23-52.74-8-74.13-8.38-19.5-9.17-53.11,13-74.76-27.3,18.49-47,55-30.66,92.93,9.19,21.39,13,51.32,8,74.13-1.38,6.31-3.84,12.57-5.29,18.87-14.81,64.76,54.5,136.72,149.2,105.93,34.25-11.13,58.14-33.58,71.52-59.37C204.93,464.09,190.72,471.92,175.63,478.41Z" transform="translate(41.18 -37.74)"/><circle class="cls-4" cx="85.29" cy="336.6" r="62.78" transform="translate(-220.73 293.3) rotate(-74.86)"/><circle class="cls-7" cx="85.29" cy="336.6" r="41.43" transform="translate(-171.85 121.16) rotate(-45)"/><path class="cls-8" d="M30.25,57.71l3.94-1.3A2.83,2.83,0,0,0,36,52.83l-.25-.74a2.83,2.83,0,0,0-3.95-1.65l-3.73,1.85a2.83,2.83,0,0,0-1.52,3.09l0,.19A2.84,2.84,0,0,0,30.25,57.71Z" transform="translate(41.18 -37.74)"/><path class="cls-8" d="M32.17,65.72l3.95-1.3a2.83,2.83,0,0,0,1.8-3.57l-.24-.75a2.83,2.83,0,0,0-4-1.65L30,60.3a2.83,2.83,0,0,0-1.52,3.09l0,.19A2.82,2.82,0,0,0,32.17,65.72Z" transform="translate(41.18 -37.74)"/><path class="cls-8" d="M33.55,75.31,37.49,74a2.84,2.84,0,0,0,1.81-3.58l-.25-.75A2.83,2.83,0,0,0,35.1,68l-3.73,1.85A2.83,2.83,0,0,0,29.85,73l0,.2A2.83,2.83,0,0,0,33.55,75.31Z" transform="translate(41.18 -37.74)"/><path class="cls-9" d="M72.32,297.26a41.35,41.35,0,0,0-27.49,30.46A41.42,41.42,0,0,1,118.76,361a41.42,41.42,0,0,0-46.44-63.75Z" transform="translate(41.18 -37.74)"/><rect class="cls-10" x="15.67" y="72.52" width="41.24" height="225.63" transform="translate(-15 -17.07) rotate(-18.24)"/><rect class="cls-8" x="18.26" y="71.67" width="41.24" height="225.63" transform="translate(-14.6 -16.3) rotate(-18.24)"/><rect class="cls-11" x="92.25" y="403.14" width="44.18" height="12.78" transform="translate(-81.24 18.62) rotate(-18.24)"/><path class="cls-12" d="M25,91.2l-36.18,11.93a9.93,9.93,0,0,1-12.23-5.5L-36.8,66.46a9.91,9.91,0,0,1,6-13.35l41.88-13.8a9.92,9.92,0,0,1,12.77,7.16l7.73,33A9.92,9.92,0,0,1,25,91.2Z" transform="translate(41.18 -37.74)"/><path class="cls-4" d="M28.26,90.14-7.92,102.06a9.92,9.92,0,0,1-12.23-5.5L-33.58,65.4a9.94,9.94,0,0,1,6-13.36l41.88-13.8a9.93,9.93,0,0,1,12.77,7.17l7.73,33A9.93,9.93,0,0,1,28.26,90.14Z" transform="translate(41.18 -37.74)"/><rect class="cls-8" x="93.33" y="402.07" width="44.18" height="12.78" transform="translate(-80.85 18.9) rotate(-18.24)"/><polygon class="cls-13" points="23.49 25.03 81.78 201.31 139.7 377.71 81.41 201.43 23.49 25.03"/><polygon class="cls-13" points="29.63 23 87.92 199.29 145.85 375.69 87.56 199.41 29.63 23"/><polygon class="cls-13" points="35.78 20.98 94.07 197.26 151.99 373.67 93.7 197.38 35.78 20.98"/><polygon class="cls-13" points="41.92 18.95 100.21 195.24 158.13 371.64 99.85 195.36 41.92 18.95"/><polygon class="cls-13" points="48.07 16.93 106.36 193.21 164.28 369.62 105.99 193.33 48.07 16.93"/><polygon class="cls-13" points="54.21 14.9 112.5 191.19 170.43 367.59 112.14 191.31 54.21 14.9"/><path class="cls-5" d="M91.57,214.13c13.21,2.7,30.41,10.55,42.88,31.92a2.44,2.44,0,0,1-3.83,3C121,239.48,105.89,226.18,90,218.72A2.44,2.44,0,0,1,91.57,214.13Z" transform="translate(41.18 -37.74)"/><path class="cls-14" d="M171.05,361.48c-1.19-12.64,15.83-18,22.09-7,8.52,15,14.79,33,13,52.12-2.23,24.06-18.44,41.64-36.1,53.85-10.45,7.23-23.34-4.68-17-15.7A139.05,139.05,0,0,0,171.05,361.48Z" transform="translate(41.18 -37.74)"/><path class="cls-8" d="M-33.27,78.64l-3.94,1.3a2.84,2.84,0,0,1-3.58-1.8l-.25-.75a2.84,2.84,0,0,1,2.2-3.68l4.1-.73a2.85,2.85,0,0,1,3.06,1.58l.08.18A2.83,2.83,0,0,1-33.27,78.64Z" transform="translate(41.18 -37.74)"/><path class="cls-8" d="M-30.06,86.23-34,87.53a2.82,2.82,0,0,1-3.57-1.81l-.25-.74a2.84,2.84,0,0,1,2.19-3.68l4.11-.73a2.84,2.84,0,0,1,3.06,1.58l.08.18A2.83,2.83,0,0,1-30.06,86.23Z" transform="translate(41.18 -37.74)"/><path class="cls-8" d="M-25.46,94.76l-3.94,1.3A2.83,2.83,0,0,1-33,94.25l-.25-.74A2.84,2.84,0,0,1-31,89.83l4.1-.73a2.84,2.84,0,0,1,3.06,1.58l.08.18A2.83,2.83,0,0,1-25.46,94.76Z" transform="translate(41.18 -37.74)"/></g></g></g></g></svg>