<svg xmlns="http://www.w3.org/2000/svg" viewBox="0 0 268.67 495.85"><defs><style>.cls-1{isolation:isolate;}.cls-2{fill:#811423;}.cls-3,.cls-4{fill:#f89842;}.cls-4,.cls-7{mix-blend-mode:multiply;}.cls-5{fill:#2b0f12;}.cls-6{fill:#faab68;}.cls-7{fill:#0e122e;}.cls-8{fill:#e18e4c;}.cls-9{fill:#e9a522;}.cls-10{fill:#bb202b;}.cls-11{fill:#fff;}.cls-12{fill:#fbb274;}</style></defs><g class="cls-1"><g id="Capa_2" data-name="Capa 2"><g id="Layer_1" data-name="Layer 1"><path class="cls-2" d="M247.21,319.34c-4.9-4.22-40.4-10.37-45.26-14.62-17.57-15.37-33.62-41.41-37.67-64.34-9.15-51.93-50.69-79-86.39-69.42q-3.17.85-6.26,1.95t-6.18,2.15C31,188.56-12.27,238.05,8.54,291.7c8.42,21.71,13,51.32,8,74.13-1.38,6.31-3.84,12.57-5.28,18.87C-3.6,449.46,63.87,515,160.42,490.63,255.39,466.62,297.63,362.6,247.21,319.34Z"/><path class="cls-3" d="M240.66,297.15c-4.91-4.21-10.61-7.79-15.47-12-17.57-15.37-33.62-41.41-37.67-64.34-9.15-51.93-61.49-63.52-97.19-53.91q-3.17.85-6.26,1.95T77.89,171c-34.42,13.5-65.39,56.28-46.11,101.13,9.19,21.39,12.95,51.32,8,74.13-1.38,6.31-3.84,12.57-5.29,18.87C19.64,429.85,89,501.81,183.66,471,271.08,442.61,291.07,340.42,240.66,297.15Z"/><path class="cls-4" d="M216.81,440.67C117.31,483.49,39.19,398.11,57.4,328.05c6.43-24.72,1.24-52.74-8-74.13-8.38-19.5-9.17-53.11,13-74.76-27.3,18.5-47,55-30.66,92.93,9.19,21.39,12.95,51.32,8,74.13-1.38,6.31-3.84,12.57-5.29,18.87C19.64,429.85,89,501.81,183.66,471c34.24-11.13,58.13-33.58,71.51-59.37C246.11,426.35,231.9,434.18,216.81,440.67Z"/><circle class="cls-2" cx="126.47" cy="298.87" r="62.78" transform="translate(-195.05 342.91) rotate(-74.86)"/><circle class="cls-5" cx="126.47" cy="298.87" r="41.43" transform="translate(-174.29 176.96) rotate(-45)"/><path class="cls-6" d="M71.43,20l3.94-1.3a2.83,2.83,0,0,0,1.81-3.57l-.25-.75a2.83,2.83,0,0,0-4-1.65l-3.73,1.85a2.83,2.83,0,0,0-1.52,3.09l0,.19A2.82,2.82,0,0,0,71.43,20Z"/><path class="cls-6" d="M73.36,28l3.94-1.29a2.84,2.84,0,0,0,1.8-3.58l-.24-.75a2.83,2.83,0,0,0-4-1.65l-3.74,1.85a2.83,2.83,0,0,0-1.52,3.09l0,.19A2.83,2.83,0,0,0,73.36,28Z"/><path class="cls-6" d="M74.73,37.58l3.94-1.3a2.83,2.83,0,0,0,1.81-3.58L80.23,32a2.83,2.83,0,0,0-4-1.65l-3.73,1.85A2.83,2.83,0,0,0,71,35.24l0,.2A2.83,2.83,0,0,0,74.73,37.58Z"/><path class="cls-7" d="M113.5,259.52A41.37,41.37,0,0,0,86,290a41.42,41.42,0,0,1,73.93,33.29,41.42,41.42,0,0,0-46.44-63.75Z"/><rect class="cls-8" x="56.85" y="34.78" width="41.24" height="225.63" transform="translate(-42.3 31.66) rotate(-18.24)"/><rect class="cls-6" x="59.44" y="33.93" width="41.24" height="225.63" transform="translate(-41.9 32.43) rotate(-18.24)"/><rect class="cls-9" x="133.43" y="365.4" width="44.18" height="12.78" transform="translate(-108.54 67.35) rotate(-18.24)"/><path class="cls-10" d="M66.21,53.47,30,65.39a9.94,9.94,0,0,1-12.23-5.5L4.38,28.73a9.92,9.92,0,0,1,6-13.36L52.27,1.57A9.92,9.92,0,0,1,65,8.73l7.73,33A9.93,9.93,0,0,1,66.21,53.47Z"/><path class="cls-2" d="M69.44,52.4,33.26,64.32A9.92,9.92,0,0,1,21,58.82L7.6,27.66a9.94,9.94,0,0,1,6-13.36L55.5.5A9.93,9.93,0,0,1,68.27,7.67l7.73,33A9.92,9.92,0,0,1,69.44,52.4Z"/><rect class="cls-6" x="134.51" y="364.33" width="44.18" height="12.78" transform="translate(-108.15 67.63) rotate(-18.24)"/><polygon class="cls-11" points="23.49 25.03 81.78 201.31 139.7 377.71 81.41 201.43 23.49 25.03"/><polygon class="cls-11" points="29.63 23 87.92 199.29 145.85 375.69 87.56 199.41 29.63 23"/><polygon class="cls-11" points="35.78 20.98 94.07 197.26 151.99 373.67 93.7 197.38 35.78 20.98"/><polygon class="cls-11" points="41.92 18.95 100.21 195.24 158.13 371.64 99.85 195.36 41.92 18.95"/><polygon class="cls-11" points="48.07 16.93 106.36 193.21 164.28 369.62 105.99 193.33 48.07 16.93"/><polygon class="cls-11" points="54.21 14.9 112.5 191.19 170.43 367.59 112.14 191.31 54.21 14.9"/><path class="cls-3" d="M132.76,176.39c13.2,2.7,30.4,10.56,42.87,31.92a2.45,2.45,0,0,1-3.83,3c-9.62-9.54-24.73-22.84-40.59-30.3A2.44,2.44,0,0,1,132.76,176.39Z"/><path class="cls-12" d="M212.23,323.74c-1.19-12.64,15.83-18,22.09-7,8.52,15,14.79,33,13,52.12-2.23,24.06-18.44,41.65-36.1,53.85-10.45,7.23-23.34-4.68-17-15.7A139,139,0,0,0,212.23,323.74Z"/><path class="cls-6" d="M7.91,40.9,4,42.2A2.84,2.84,0,0,1,.39,40.4l-.25-.75A2.83,2.83,0,0,1,2.34,36l4.1-.74A2.84,2.84,0,0,1,9.5,36.83l.08.17A2.83,2.83,0,0,1,7.91,40.9Z"/><path class="cls-6" d="M11.12,48.49l-3.94,1.3A2.83,2.83,0,0,1,3.61,48l-.25-.74a2.84,2.84,0,0,1,2.19-3.68l4.11-.73a2.84,2.84,0,0,1,3.06,1.58l.08.18A2.83,2.83,0,0,1,11.12,48.49Z"/><path class="cls-6" d="M15.72,57l-3.94,1.3a2.84,2.84,0,0,1-3.58-1.8L8,55.77a2.84,2.84,0,0,1,2.2-3.68l4.1-.73a2.84,2.84,0,0,1,3.06,1.58l.09.18A2.84,2.84,0,0,1,15.72,57Z"/></g></g></g></svg>