<svg xmlns="http://www.w3.org/2000/svg" viewBox="0 0 1061.58 1061.58"><defs><style>.cls-1{fill:none;stroke:#f5d1c3;stroke-width:14.19px;}.cls-1,.cls-14{stroke-miterlimit:10;}.cls-2,.cls-7{fill:#e38f73;}.cls-3{fill:#efbc6b;}.cls-4{fill:#eda56e;}.cls-5{fill:#5f9595;}.cls-6{fill:#c4d7d3;}.cls-7{font-size:151.92px;font-family:Sunmora-Bold, Sunmora;font-weight:700;}.cls-8{letter-spacing:-0.02em;}.cls-9{letter-spacing:-0.02em;}.cls-10{letter-spacing:-0.02em;}.cls-11{letter-spacing:-0.01em;}.cls-12{letter-spacing:-0.06em;}.cls-13{letter-spacing:0em;}.cls-14{font-size:61.61px;fill:#fab8aa;stroke:#fab8aa;stroke-width:2.37px;font-family:Geometria-Light, Geometria;font-weight:300;letter-spacing:0.18em;}</style></defs><g id="Layer_2" data-name="Layer 2"><g id="Layer_1-2" data-name="Layer 1"><circle class="cls-1" cx="530.79" cy="530.79" r="523.69"/><path class="cls-2" d="M532.72,424.9c-61.68,0-111.67,46.55-111.67,104H644.39C644.39,471.45,594.39,424.9,532.72,424.9Z"/><path class="cls-3" d="M49.26,455.7,400.06,522l-.19,6.86H43.68S39.44,486.51,49.26,455.7Z"/><path class="cls-3" d="M444.41,433.22,244.64,136.83A492.31,492.31,0,0,0,136.75,244.54l295.5,200.55Z"/><path class="cls-3" d="M665.57,528.87H1017.9a481.07,481.07,0,0,0-5.78-74.41L665.38,522Z"/><path class="cls-4" d="M415.56,468.46,118.72,271A482.13,482.13,0,0,0,55.07,424.9l349.69,69.44S410.07,473.51,415.56,468.46Z"/><path class="cls-3" d="M539.36,401,609.19,50a488.52,488.52,0,0,0-153.76-.5l66.82,351.72A90,90,0,0,1,539.36,401Z"/><path class="cls-4" d="M591.5,414,779.74,112.26A484.31,484.31,0,0,0,639.91,56L570.22,406A50.92,50.92,0,0,1,591.5,414Z"/><path class="cls-3" d="M631.8,443.57l293-199A492.23,492.23,0,0,0,807.49,130.12L618,430.7S626.91,439.15,631.8,443.57Z"/><path class="cls-4" d="M493.37,406.54,424,55.5a485,485,0,0,0-153.26,63.56l195.38,299S484.83,407.43,493.37,406.54Z"/><path class="cls-4" d="M948.59,278.57s48.33,59.95,56.9,141.64l-345.8,70.9c-.09-6.95-9.82-22.65-9.82-22.65l293.29-197Z"/><path class="cls-5" d="M172.25,873.44s85.14,3.91,119.8,23.17,65.46,26.95,100.12,23.1,80.86-38.5,150.17-38.5,73.17,30.8,154,26.95,156.08-36.54,195.49-37.52c0,0-126.18,160.74-361.07,162.67S172.25,873.44,172.25,873.44Z"/><path class="cls-6" d="M141.64,836.15s50.29-8.85,115.75,6.55,65.46,23.1,111.67,23.1,119.37-26.33,161.73-26.64S665.57,862,700.22,862s123.22-34.65,181-34.65h45.16l-19,25.08s-74.16,11.5-95.48,17.27-73.16,23.11-127.07,23.11-109.75-29.56-154-27.3-123.22,38.85-169.43,35-143.67-53.58-199.87-39.3Z"/><text class="cls-7" transform="translate(121.21 702.96)"><tspan class="cls-8">S</tspan><tspan class="cls-9" x="98.9" y="0">o</tspan><tspan class="cls-10" x="173.5" y="0">l</tspan><tspan class="cls-11" x="209.96" y="0">s</tspan><tspan x="287.44" y="0">of</tspan><tspan class="cls-12" x="417.79" y="0">t</tspan><tspan x="470.5" y="0">w</tspan><tspan class="cls-10" x="604.2" y="0">ar</tspan><tspan class="cls-13" x="748.07" y="0">e</tspan></text><text class="cls-14" transform="translate(247.63 780.05)">DISEÑOS WEB</text></g></g></svg>