<svg xmlns="http://www.w3.org/2000/svg" viewBox="0 0 564.9 173.69"><defs><style>.cls-1{fill:#ed1c24;}.cls-2{font-size:90px;fill:#fff;font-family:LuckiestGuy-Regular, Luckiest Guy;}</style></defs><g id="Capa_2" data-name="Capa 2"><g id="Layer_1" data-name="Layer 1"><path class="cls-1" d="M2.66,110a5.39,5.39,0,0,0,2.8,7.71c33.18,12.36,200.72,69.06,341.76,11.91,115.55-46.83,178.57-24.87,203.89-9.91a5.4,5.4,0,0,0,7.88-6.37L543.28,66.83a5.44,5.44,0,0,1,.51-4.55l18.35-30.1a5.37,5.37,0,0,0-1.18-7c-14.9-12-78.15-51.8-213.74,3.14-134.74,54.6-293.66,5.29-336.52-10a5.39,5.39,0,0,0-6.84,7L21.72,72.21a5.41,5.41,0,0,1-.35,4.58Z"/><text class="cls-2" transform="translate(43.42 117.86) rotate(14.39)">L</text><text class="cls-2" transform="matrix(0.99, 0.16, -0.16, 0.99, 95.16, 130.9)">u</text><text class="cls-2" transform="translate(162.07 140.31) rotate(3.69)">i</text><text class="cls-2" transform="translate(201.48 142.8) rotate(-2.18)">s</text><text class="cls-2" transform="matrix(0.99, -0.15, 0.15, 0.99, 262.5, 138.97)"> </text><text class="cls-2" transform="translate(293.64 134.32) rotate(-15.73)">f</text><text class="cls-2" transform="matrix(0.94, -0.33, 0.33, 0.94, 346.13, 117.01)">e</text><text class="cls-2" transform="translate(401.72 98.07) rotate(-10.67)">s</text><text class="cls-2" transform="translate(453.67 88.37) rotate(1.14)">t</text></g></g></svg>