<svg xmlns="http://www.w3.org/2000/svg" xmlns:xlink="http://www.w3.org/1999/xlink" viewBox="0 0 234.43 204.86"><defs><style>.cls-1{fill:none;}.cls-2{isolation:isolate;}.cls-3{clip-path:url(#clip-path);}.cls-4{fill:#f89842;}.cls-5{fill:#ed1c24;}.cls-6{fill:#006838;stroke:#006838;stroke-miterlimit:10;stroke-width:0.39px;}.cls-7{fill:#fff;}.cls-8{fill:#8e191c;}.cls-9{opacity:0.39;mix-blend-mode:multiply;}.cls-10{opacity:0.31;mix-blend-mode:screen;}</style><clipPath id="clip-path" transform="translate(83.86)"><path class="cls-1" d="M111.07,76.23C122,44,110,10.77,84.35,2.09S29,12.54,18.13,44.81c-5.65,16.74-5.34,34.25-.07,48.24,6.12,16.28,11.84,36.07,4.9,52a79.09,79.09,0,0,1-12.73,20.64c-16.35,18.53-11,29.94,1.43,36.69a12.28,12.28,0,0,0,2.79,1.39,12,12,0,0,0,3.06.58c14,2.2,28.69-2.44,27-27.09A71.49,71.49,0,0,1,45,162.64c2.74-20.52,17.14-37.73,35.25-47.76C93.63,107.47,105.13,93.8,111.07,76.23Z"/></clipPath></defs><g class="cls-2"><g id="Capa_2" data-name="Capa 2"><g id="Layer_1" data-name="Layer 1"><g class="cls-3"><path class="cls-4" d="M111.07,76.23C122,44,110,10.77,84.35,2.09S29,12.54,18.13,44.81c-5.65,16.74-5.34,34.25-.07,48.24,6.12,16.28,11.84,36.07,4.9,52a79.09,79.09,0,0,1-12.73,20.64c-16.35,18.53-11,29.94,1.43,36.69a12.28,12.28,0,0,0,2.79,1.39,12,12,0,0,0,3.06.58c14,2.2,28.69-2.44,27-27.09A71.49,71.49,0,0,1,45,162.64c2.74-20.52,17.14-37.73,35.25-47.76C93.63,107.47,105.13,93.8,111.07,76.23Z" transform="translate(83.86)"/><path class="cls-5" d="M150,72.26C92.41,69.2,41.22,51.88-6.4,19.38L4.87,3.72C49.3,33.92,96.94,50,150.57,53Z" transform="translate(83.86)"/><path class="cls-5" d="M148.68,119.33C81.79,116,21.31,95.53-33.9,57.61l11.27-15.67C29.59,77.7,86,96.78,149.23,100Z" transform="translate(83.86)"/><path class="cls-6" d="M149.74,82.15C90.11,79,37.12,61.05-12.18,27.41L-8.31,22c48.18,32.88,100,50.39,158.24,53.5C149.85,78.17,149.81,79.5,149.74,82.15Z" transform="translate(83.86)"/><path class="cls-7" d="M149.46,92C87.8,88.75,33,70.22-17.95,35.44l3.87-5.38c49.85,34,103.43,52.14,163.73,55.35C149.57,88.06,149.53,89.38,149.46,92Z" transform="translate(83.86)"/><path class="cls-7" d="M148.27,134c-69.88-3.5-133-24.86-190.72-64.47l3.87-5.38C18,103,79.93,123.9,148.46,127.34,148.38,130,148.34,131.32,148.27,134Z" transform="translate(83.86)"/><path class="cls-7" d="M146.26,204.85C62.33,201-14.82,174.91-83.86,127.06l3.86-5.38c68.05,47.08,143.8,72.68,226.44,76.55C146.37,200.88,146.33,202.21,146.26,204.85Z" transform="translate(83.86)"/><path class="cls-6" d="M-15.12,54.63c-5,1.12-7.58,1.64-12.74,2.55,6.08,4.24,9.18,6.27,15.46,10.15C-13.6,62.24-14.14,59.7-15.12,54.63Z" transform="translate(83.86)"/><path class="cls-6" d="M3.93,66.19C-1,67.68-3.5,68.37-8.56,69.65c6.33,3.79,9.55,5.59,16.07,9C6,73.66,5.25,71.17,3.93,66.19Z" transform="translate(83.86)"/><path class="cls-6" d="M23.69,76.35c-4.81,1.83-7.25,2.7-12.2,4.34,6.56,3.32,9.89,4.89,16.62,7.82C26.23,83.65,25.34,81.22,23.69,76.35Z" transform="translate(83.86)"/><path class="cls-6" d="M44.06,85.08c-4.66,2.16-7,3.2-11.85,5.19C39,93.11,42.4,94.44,49.32,96.89,47.1,92.18,46.05,89.81,44.06,85.08Z" transform="translate(83.86)"/><path class="cls-6" d="M65,92.34c-4.5,2.49-6.79,3.69-11.45,6,6.94,2.36,10.45,3.44,17.52,5.4C68.51,99.22,67.29,96.93,65,92.34Z" transform="translate(83.86)"/><path class="cls-6" d="M86.37,98.13c-4.32,2.79-6.52,4.15-11,6.8,7.1,1.87,10.68,2.7,17.88,4.17C90.38,104.74,89,102.54,86.37,98.13Z" transform="translate(83.86)"/><path class="cls-6" d="M108.15,102.41c-4.12,3.08-6.23,4.6-10.53,7.55,7.23,1.37,10.87,2,18.18,2.91C112.63,108.72,111.1,106.62,108.15,102.41Z" transform="translate(83.86)"/><path class="cls-6" d="M130.24,105.15c-3.9,3.37-5.9,5-10,8.27,7.33.86,11,1.18,18.41,1.62C135.17,111.13,133.49,109.15,130.24,105.15Z" transform="translate(83.86)"/><path class="cls-6" d="M-31.44,79.51c-5.32.93-8,1.35-13.44,2.07,6.63,4.63,10,6.84,16.87,11.07C-29.5,87.39-30.18,84.76-31.44,79.51Z" transform="translate(83.86)"/><path class="cls-6" d="M-10.59,92.16c-5.23,1.31-7.88,1.92-13.23,3,6.91,4.14,10.43,6.1,17.55,9.82C-8.12,99.87-9,97.3-10.59,92.16Z" transform="translate(83.86)"/><path class="cls-6" d="M11,103.27c-5.11,1.69-7.7,2.48-13,4,7.17,3.63,10.81,5.34,18.15,8.54C14,110.79,13,108.28,11,103.27Z" transform="translate(83.86)"/><path class="cls-6" d="M33.32,112.82c-5,2-7.51,3-12.63,4.88,7.39,3.1,11.12,4.55,18.67,7.23C36.83,120.1,35.62,117.68,33.32,112.82Z" transform="translate(83.86)"/><path class="cls-6" d="M56.21,120.77c-4.82,2.39-7.27,3.54-12.25,5.76,7.58,2.57,11.41,3.75,19.13,5.9C60.22,127.79,58.84,125.46,56.21,120.77Z" transform="translate(83.86)"/><path class="cls-6" d="M79.61,127.1c-4.64,2.72-7,4-11.83,6.6,7.75,2,11.66,3,19.53,4.55C84.11,133.83,82.57,131.59,79.61,127.1Z" transform="translate(83.86)"/><path class="cls-6" d="M103.45,131.78c-4.45,3-6.73,4.52-11.36,7.41,7.89,1.49,11.86,2.13,19.84,3.18C108.42,138.17,106.73,136.06,103.45,131.78Z" transform="translate(83.86)"/><path class="cls-6" d="M127.62,134.78c-4.24,3.34-6.4,5-10.83,8.19,8,.93,12,1.29,20.09,1.77C133.06,140.81,131.21,138.81,127.62,134.78Z" transform="translate(83.86)"/><path class="cls-6" d="M-50.71,108.87c-5.65.71-8.51,1-14.27,1.51,7.29,5.09,11,7.52,18.55,12.17C-48.26,117.08-49.12,114.34-50.71,108.87Z" transform="translate(83.86)"/><path class="cls-6" d="M-27.74,122.81c-5.58,1.12-8.4,1.63-14.1,2.53,7.61,4.54,11.47,6.7,19.29,10.8C-24.74,130.81-25.78,128.14-27.74,122.81Z" transform="translate(83.86)"/><path class="cls-6" d="M-3.93,135.05c-5.47,1.52-8.24,2.23-13.85,3.54,7.88,4,11.87,5.86,20,9.38C-.39,142.82-1.61,140.23-3.93,135.05Z" transform="translate(83.86)"/><path class="cls-6" d="M20.63,145.57c-5.34,1.9-8,2.8-13.55,4.51,8.12,3.41,12.23,5,20.53,7.95C24.7,153.06,23.3,150.57,20.63,145.57Z" transform="translate(83.86)"/><path class="cls-6" d="M45.85,154.33c-5.2,2.27-7.84,3.36-13.19,5.45,8.33,2.83,12.54,4.13,21,6.49C50.43,161.52,48.87,159.13,45.85,154.33Z" transform="translate(83.86)"/><path class="cls-6" d="M71.64,161.31c-5,2.62-7.59,3.9-12.79,6.35,8.51,2.25,12.81,3.25,21.45,5C76.72,168.16,75,165.89,71.64,161.31Z" transform="translate(83.86)"/><path class="cls-6" d="M97.9,166.46c-4.85,3-7.32,4.42-12.34,7.24,8.67,1.64,13,2.34,21.81,3.49C103.47,172.94,101.57,170.8,97.9,166.46Z" transform="translate(83.86)"/><path class="cls-6" d="M124.53,169.77c-4.63,3.3-7,4.92-11.83,8.08,8.8,1,13.21,1.42,22.08,2C130.57,175.84,128.52,173.83,124.53,169.77Z" transform="translate(83.86)"/><polygon class="cls-8" points="178.92 194.89 188.84 188.48 174.92 183.77 178.92 194.89"/><polygon class="cls-8" points="161.62 189.04 171.54 182.63 157.63 177.93 161.62 189.04"/><polygon class="cls-8" points="144.33 183.2 154.25 176.79 140.33 172.08 144.33 183.2"/><polygon class="cls-8" points="127.03 177.35 136.95 170.94 123.04 166.24 127.03 177.35"/><polygon class="cls-8" points="109.74 171.5 119.66 165.09 105.74 160.39 109.74 171.5"/><polygon class="cls-8" points="92.44 165.66 102.36 159.25 88.45 154.54 92.44 165.66"/><polygon class="cls-8" points="75.15 159.81 85.07 153.4 71.15 148.69 75.15 159.81"/><polygon class="cls-8" points="57.85 153.97 67.77 147.55 53.86 142.85 57.85 153.97"/><polygon class="cls-8" points="88.49 66.74 84.49 55.62 98.41 60.33 88.49 66.74"/><polygon class="cls-8" points="105.78 72.58 101.78 61.47 115.7 66.17 105.78 72.58"/><polygon class="cls-8" points="123.08 78.43 119.08 67.32 133 72.02 123.08 78.43"/><polygon class="cls-8" points="140.37 84.28 136.37 73.16 150.29 77.87 140.37 84.28"/><polygon class="cls-8" points="157.66 90.13 153.67 79.01 167.59 83.71 157.66 90.13"/><polygon class="cls-8" points="174.96 95.97 170.96 84.86 184.88 89.56 174.96 95.97"/><polygon class="cls-8" points="192.25 101.82 188.26 90.7 202.17 95.41 192.25 101.82"/><polygon class="cls-8" points="209.55 107.66 205.55 96.55 219.47 101.25 209.55 107.66"/></g><g class="cls-9"><path class="cls-4" d="M111.07,76.23C122,44,110,10.77,84.35,2.09A39.67,39.67,0,0,0,69.92,0c19.64,10.67,35.21,41,26,68.23-5.47,16.2-12.52,30-24.86,36.83a60.28,60.28,0,0,0-30.73,44.63,66.67,66.67,0,0,0-.49,13.49C41.45,186,22.49,204.84,2.58,184a14.53,14.53,0,0,1-2.35-.37c-1.37,8.49,3.63,14.54,11.43,18.77a12.28,12.28,0,0,0,2.79,1.39,12,12,0,0,0,3.06.58c14,2.2,28.69-2.44,27-27.09A71.49,71.49,0,0,1,45,162.64c2.74-20.52,17.14-37.73,35.25-47.76C93.63,107.47,105.13,93.8,111.07,76.23Z" transform="translate(83.86)"/></g><g class="cls-10"><ellipse class="cls-7" cx="48.94" cy="34.19" rx="27.24" ry="14.81" transform="translate(81.34 64.44) rotate(-65.39)"/></g></g></g></g></svg>