<svg xmlns="http://www.w3.org/2000/svg" xmlns:xlink="http://www.w3.org/1999/xlink" viewBox="0 0 230.68 204.86"><defs><style>.cls-1{fill:none;}.cls-2{isolation:isolate;}.cls-3{clip-path:url(#clip-path);}.cls-4{fill:#f89842;}.cls-5{fill:#ed1c24;}.cls-6,.cls-8{fill:#006838;stroke-miterlimit:10;stroke-width:0.39px;}.cls-6{stroke:#2bb673;}.cls-7{fill:#fff;}.cls-8{stroke:#006838;}.cls-9{fill:#8e191c;}.cls-10{opacity:0.39;mix-blend-mode:multiply;}.cls-11{opacity:0.31;mix-blend-mode:screen;}</style><clipPath id="clip-path" transform="translate(36.56)"><path class="cls-1" d="M95.64,47.56C87.11,15.22,59.35-5.5,33.63,1.29S-6,39.79,2.51,72.13c4.42,16.77,14.16,30.94,26,39.55,13.83,10,29.23,23.13,32.17,40a77.24,77.24,0,0,1,.75,23.8c-3.36,24,7.18,30.5,21,29.28a11.22,11.22,0,0,0,5.86-1.55c12.65-5.77,22.18-17.53,7.41-36.78a70.71,70.71,0,0,1-7.48-12.28c-8.86-18.3-6.38-40.19,3-58.21C98.27,82.59,100.29,65.17,95.64,47.56Z"/></clipPath></defs><g class="cls-2"><g id="Capa_2" data-name="Capa 2"><g id="Layer_1" data-name="Layer 1"><g class="cls-3"><path class="cls-4" d="M95.64,47.56C87.11,15.22,59.35-5.5,33.63,1.29S-6,39.79,2.51,72.13c4.42,16.77,14.16,30.94,26,39.55,13.83,10,29.23,23.13,32.17,40a77.24,77.24,0,0,1,.75,23.8c-3.36,24,7.18,30.5,21,29.28a11.22,11.22,0,0,0,5.86-1.55c12.65-5.77,22.18-17.53,7.41-36.78a70.71,70.71,0,0,1-7.48-12.28c-8.86-18.3-6.38-40.19,3-58.21C98.27,82.59,100.29,65.17,95.64,47.56Z" transform="translate(36.56)"/><path class="cls-5" d="M125.42,23.22C76.68,51.93,25.19,65.51-31.38,64.57c.3-7.57.45-11.36.76-18.93,52.74.79,100.54-11.8,146.05-38.52Z" transform="translate(36.56)"/><path class="cls-5" d="M174.92,103C110.41,141.44,40,160-35.11,158.34l.75-18.93c71.33,1.53,138-16.06,199.29-52.56Z" transform="translate(36.56)"/><path class="cls-6" d="M130.54,31.46C80.09,61.19,26.79,75.25-31.76,74.27l.25-6.49C25.72,68.73,77.8,55,127.11,25.94,128.49,28.15,129.17,29.25,130.54,31.46Z" transform="translate(36.56)"/><path class="cls-7" d="M135.66,39.71C83.74,70.41,28.16,85.06-32.15,84c.1-2.6.15-3.9.26-6.5,59,1.06,113.34-13.27,164.12-43.29C133.61,36.4,134.29,37.5,135.66,39.71Z" transform="translate(36.56)"/><path class="cls-7" d="M157.39,74.71Q69,127.23-33.79,125.13c.1-2.6.16-3.9.26-6.5Q67.27,120.69,154,69.18Z" transform="translate(36.56)"/><path class="cls-7" d="M194.11,133.86C123.44,176.19,45.79,196.67-36.56,194.7c.1-2.59.15-3.89.26-6.49,81.08,1.87,157.37-18.25,227-59.87C192.06,130.55,192.74,131.65,194.11,133.86Z" transform="translate(36.56)"/><path class="cls-8" d="M-19.44,98.17c-3.51,3.64-5.33,5.44-9.06,9,7.28.18,10.91.17,18.17-.06C-14.07,103.58-15.89,101.79-19.44,98.17Z" transform="translate(36.56)"/><path class="cls-8" d="M2.43,97.33c-3.24,3.88-4.91,5.8-8.37,9.6,7.24-.33,10.86-.6,18.05-1.34C8.14,102.35,6.21,100.69,2.43,97.33Z" transform="translate(36.56)"/><path class="cls-8" d="M24.12,95c-2.95,4.1-4.48,6.13-7.65,10.16,7.18-.84,10.75-1.36,17.86-2.59C30.15,99.56,28.11,98.05,24.12,95Z" transform="translate(36.56)"/><path class="cls-8" d="M45.54,91.08c-2.65,4.29-4,6.43-6.9,10.66,7.08-1.33,10.61-2.1,17.6-3.83C51.87,95.25,49.73,93.88,45.54,91.08Z" transform="translate(36.56)"/><path class="cls-8" d="M66.61,85.71C64.27,90.18,63,92.4,60.48,96.83c7-1.83,10.43-2.84,17.29-5.06C73.22,89.43,71,88.21,66.61,85.71Z" transform="translate(36.56)"/><path class="cls-8" d="M87.27,78.87c-2,4.62-3.09,6.93-5.34,11.53,6.83-2.31,10.21-3.57,16.91-6.27C94.13,82.11,91.82,81.06,87.27,78.87Z" transform="translate(36.56)"/><path class="cls-8" d="M107.43,70.58c-1.7,4.76-2.61,7.14-4.54,11.88,6.67-2.79,10-4.28,16.47-7.46C114.52,73.33,112.13,72.44,107.43,70.58Z" transform="translate(36.56)"/><path class="cls-8" d="M127,60.86c-1.38,4.88-2.12,7.31-3.72,12.19,6.47-3.26,9.67-5,16-8.63C134.3,63.09,131.85,62.38,127,60.86Z" transform="translate(36.56)"/><path class="cls-8" d="M-19.35,127.38c-3.85,3.64-5.83,5.44-9.89,9,7.94.2,11.91.19,19.82-.06C-13.49,132.78-15.47,131-19.35,127.38Z" transform="translate(36.56)"/><path class="cls-8" d="M4.58,126.46C1,130.37-.83,132.3-4.61,136.11c7.9-.36,11.84-.65,19.69-1.46C10.79,131.44,8.69,129.8,4.58,126.46Z" transform="translate(36.56)"/><path class="cls-8" d="M28.31,123.87c-3.27,4.14-5,6.2-8.47,10.26,7.84-.91,11.74-1.48,19.5-2.83C34.84,128.4,32.63,126.91,28.31,123.87Z" transform="translate(36.56)"/><path class="cls-8" d="M51.75,119.62c-3,4.36-4.51,6.53-7.71,10.83,7.74-1.45,11.58-2.29,19.22-4.18C58.57,123.69,56.27,122.35,51.75,119.62Z" transform="translate(36.56)"/><path class="cls-8" d="M74.81,113.74c-2.65,4.57-4,6.84-6.92,11.35,7.61-2,11.38-3.1,18.87-5.52C81.9,117.32,79.51,116.15,74.81,113.74Z" transform="translate(36.56)"/><path class="cls-8" d="M97.42,106.26c-2.34,4.74-3.56,7.1-6.12,11.81,7.45-2.53,11.15-3.9,18.46-6.85C104.74,109.33,102.27,108.33,97.42,106.26Z" transform="translate(36.56)"/><path class="cls-8" d="M119.48,97.19c-2,4.89-3.06,7.34-5.29,12.21,7.27-3,10.87-4.67,18-8.14C127,99.73,124.48,98.91,119.48,97.19Z" transform="translate(36.56)"/><path class="cls-8" d="M140.91,86.56c-1.66,5-2.55,7.54-4.44,12.57,7.06-3.57,10.55-5.45,17.42-9.43C148.63,88.55,146,87.92,140.91,86.56Z" transform="translate(36.56)"/><path class="cls-8" d="M-19.24,161.86c-4.25,3.65-6.42,5.44-10.88,9,8.73.22,13.09.21,21.79-.06C-12.79,167.26-15,165.48-19.24,161.86Z" transform="translate(36.56)"/><path class="cls-8" d="M7.12,160.85c-4,3.93-6,5.88-10.17,9.7,8.68-.39,13-.71,21.65-1.59C13.91,165.78,11.62,164.16,7.12,160.85Z" transform="translate(36.56)"/><path class="cls-8" d="M33.26,158c-3.66,4.2-5.55,6.28-9.43,10.39,8.61-1,12.9-1.62,21.42-3.11C40.37,162.44,38,161,33.26,158Z" transform="translate(36.56)"/><path class="cls-8" d="M59.09,153.31c-3.36,4.45-5.09,6.66-8.67,11,8.5-1.6,12.73-2.52,21.12-4.6C66.48,157.25,64,156,59.09,153.31Z" transform="translate(36.56)"/><path class="cls-8" d="M84.49,146.84c-3,4.67-4.6,7-7.86,11.6,8.36-2.19,12.52-3.4,20.74-6.07C92.14,150.25,89.56,149.14,84.49,146.84Z" transform="translate(36.56)"/><path class="cls-8" d="M109.4,138.59c-2.7,4.88-4.11,7.31-7,12.13,8.19-2.77,12.25-4.28,20.29-7.51C117.27,141.46,114.62,140.53,109.4,138.59Z" transform="translate(36.56)"/><path class="cls-8" d="M133.71,128.6c-2.36,5.06-3.6,7.58-6.2,12.61,8-3.35,12-5.15,19.77-9C141.78,130.9,139.06,130.16,133.71,128.6Z" transform="translate(36.56)"/><path class="cls-8" d="M157.32,116.89c-2,5.21-3.07,7.82-5.32,13,7.76-3.91,11.6-6,19.15-10.36C165.55,118.59,162.79,118.06,157.32,116.89Z" transform="translate(36.56)"/><polygon class="cls-9" points="182.64 151.81 187.3 141.19 173.35 144.87 182.64 151.81"/><polygon class="cls-9" points="165.31 156.38 169.97 145.76 156.02 149.44 165.31 156.38"/><polygon class="cls-9" points="147.98 160.95 152.64 150.33 138.69 154.01 147.98 160.95"/><polygon class="cls-9" points="130.65 165.53 135.31 154.9 121.36 158.58 130.65 165.53"/><polygon class="cls-9" points="113.32 170.1 117.97 159.47 104.03 163.15 113.32 170.1"/><polygon class="cls-9" points="95.98 174.67 100.64 164.05 86.7 167.72 95.98 174.67"/><polygon class="cls-9" points="78.65 179.24 83.31 168.62 69.36 172.29 78.65 179.24"/><polygon class="cls-9" points="61.32 183.81 65.98 173.19 52.03 176.87 61.32 183.81"/><polygon class="cls-9" points="39.87 97.4 30.58 90.46 44.53 86.78 39.87 97.4"/><polygon class="cls-9" points="57.2 92.83 47.91 85.89 61.86 82.21 57.2 92.83"/><polygon class="cls-9" points="74.53 88.26 65.24 81.31 79.19 77.64 74.53 88.26"/><polygon class="cls-9" points="91.86 83.69 82.58 76.74 96.52 73.06 91.86 83.69"/><polygon class="cls-9" points="109.2 79.11 99.91 72.17 113.85 68.49 109.2 79.11"/><polygon class="cls-9" points="126.53 74.54 117.24 67.6 131.19 63.92 126.53 74.54"/><polygon class="cls-9" points="143.86 69.97 134.57 63.03 148.52 59.35 143.86 69.97"/><polygon class="cls-9" points="161.19 65.4 151.9 58.46 165.85 54.78 161.19 65.4"/></g><g class="cls-10"><path class="cls-4" d="M95.64,47.56C87.11,15.22,59.35-5.5,33.63,1.29A39.16,39.16,0,0,0,20.69,7.42C42.56,5.53,71.73,22,78.93,49.24c4.28,16.23,6,31.35-.43,43.63a59.12,59.12,0,0,0-1,53.18,65.54,65.54,0,0,0,6.89,11.33C98,175.12,92.69,200.86,65.1,194.56a13.14,13.14,0,0,1-2.13,1c3.48,7.7,10.85,9.95,19.53,9.19a11.22,11.22,0,0,0,5.86-1.55c12.65-5.77,22.18-17.53,7.41-36.78a70.71,70.71,0,0,1-7.48-12.28c-8.86-18.3-6.38-40.19,3-58.21C98.27,82.59,100.29,65.17,95.64,47.56Z" transform="translate(36.56)"/></g><g class="cls-11"><path class="cls-7" d="M36.36,44.51C38.63,59.11,34,71.94,26.1,73.17S9.89,63.58,7.62,49,9.94,21.56,17.88,20.32,34.09,29.92,36.36,44.51Z" transform="translate(36.56)"/></g></g></g></g></svg>