<svg xmlns="http://www.w3.org/2000/svg" viewBox="0 0 560.98 154.69"><defs><style>.cls-1{fill:#ed1c24;}</style></defs><g id="Capa_2" data-name="Capa 2"><g id="Layer_1" data-name="Layer 1"><path class="cls-1" d="M.7,110a5.39,5.39,0,0,0,2.8,7.71c33.18,12.36,200.72,69.06,341.76,11.91,115.56-46.83,178.57-24.87,203.89-9.91a5.4,5.4,0,0,0,7.88-6.37L541.32,66.83a5.44,5.44,0,0,1,.51-4.55l18.35-30.1a5.37,5.37,0,0,0-1.18-7c-14.9-12-78.15-51.8-213.74,3.14C210.52,82.93,51.6,33.62,8.74,18.34a5.39,5.39,0,0,0-6.84,7L19.76,72.21a5.45,5.45,0,0,1-.34,4.58Z"/></g></g></svg>